<?xml version="1.0" standalone="no"?>
<!DOCTYPE svg PUBLIC "-//W3C//DTD SVG 1.1//EN" "http://www.w3.org/Graphics/SVG/1.1/DTD/svg11.dtd" >
<svg xmlns="http://www.w3.org/2000/svg">
<metadata></metadata>
<defs>
<font id="my_underwoodregular" horiz-adv-x="1024" >
<font-face units-per-em="2048" ascent="1536" descent="-512" />
<missing-glyph horiz-adv-x="500" />
<glyph horiz-adv-x="2048" />
<glyph horiz-adv-x="2048" />
<glyph unicode="&#xd;" />
<glyph unicode=" " />
<glyph unicode="&#x22;" horiz-adv-x="970" d="M41 1079q-10 47 19.5 91.5t125.5 89.5q47 -27 83 -49.5t62.5 -49t43 -62.5t24.5 -89l-18 -72l-16 -84q-33 -31 -49.5 -74t-25.5 -86t-15.5 -77.5t-19.5 -49t-36.5 1t-66.5 72.5q39 66 30.5 125t-37 113.5t-61.5 103.5t-43 96zM517 1109q-5 58 30 106t137 79 q39 -47 84 -77.5t81 -64.5t55.5 -78t6.5 -116q-27 -35 -40 -82t-23 -95t-20.5 -93t-29 -79t-50 -50t-84.5 -8q23 72 4 145.5t-50.5 146t-63.5 140.5t-37 126z" />
<glyph unicode="#" horiz-adv-x="1284" d="M31 555q33 39 66.5 56.5t69.5 29.5t76 25.5t87 46.5l-35 176q-27 14 -57.5 2t-57 -21.5t-44 -2.5t-17.5 61v67q39 14 102.5 17.5t120.5 19t96 54t31 124.5q20 66 34.5 137.5t36 140t57.5 133.5t101 116l74 -70q0 -80 -27.5 -142.5t-61.5 -124t-61.5 -129t-27.5 -153.5 q16 -51 69.5 -67.5t108.5 -16.5q80 53 113 116.5t41 132.5t6 139.5t6 139t41 132t113 116.5q66 -33 84 -72.5t11 -83.5t-29 -94.5t-34 -103.5q-39 -6 -47 -19.5t-3 -32t14.5 -41t3.5 -48.5q-23 -23 -28 -47.5t-4 -49t6 -48t2 -43t-17.5 -35t-49.5 -23.5q27 -12 63 -18.5 t68.5 -14.5t56 -23.5t23.5 -47.5q12 -63 -4 -88t-49 -29t-74 1t-76.5 2t-59 -23.5t-19.5 -77.5q12 -45 37.5 -65.5t54.5 -30t58.5 -12.5t53 -11t36 -28.5t8.5 -63.5q-27 -49 -70 -61.5t-90 -9.5t-93 11t-81 1t-51.5 -40.5t-4.5 -113.5q-35 -53 -54 -123t-35.5 -146.5 t-35 -152.5t-49.5 -142q-29 -29 -57.5 -50t-67.5 -5q-53 74 -45.5 155t41 161.5t74.5 158.5t55 144q20 20 13.5 39.5t-15 39t-6.5 39t43 39.5q-59 -20 -109.5 -17t-90 0t-69.5 -25.5t-50 -96.5q-39 -86 -42 -176t-9.5 -175t-37 -159t-122.5 -127q-53 80 -58.5 148.5t16 132 t56.5 123t60.5 122t29.5 129t-37 142.5zM455 750q33 -14 72.5 -36t76.5 -30t62.5 7.5t31.5 74.5q0 39 -19.5 51t-46 13t-52 3.5t-37.5 20.5q6 -33 -2.5 -58.5t-23.5 -41t-32.5 -17.5t-29.5 13z" />
<glyph unicode="$" horiz-adv-x="1175" d="M26 497.5q3 59.5 78 139.5q18 20 46 24.5t53.5 -5t47 -28t28.5 -44.5q20 20 31.5 47.5t21.5 59.5t21.5 62.5t31.5 57.5q-47 39 -95 61.5t-91 49t-77 69.5t-54 123q-33 66 -19 127.5t56 115.5t98.5 100t109.5 81q33 14 37 55t1 92.5t-1 102.5t35 86q12 -27 46 -38 t65.5 -19.5t49 -21.5t-0.5 -44l35 -55l88 178l125 -107q-59 -20 -62.5 -49.5t15 -64.5t39 -74t8.5 -78q78 -41 147.5 -95t134.5 -134q-8 -41 -16 -77t-24.5 -66.5t-44 -57.5t-75.5 -47l-71 90q-6 -29 -22.5 -47t-29 -34.5t-15.5 -34t16 -44.5q57 -8 99 -35.5t75.5 -65.5 t62.5 -81t64 -82q6 -47 5 -112.5t-16.5 -131t-47 -125t-87.5 -92.5q-33 6 -56.5 0t-44 -17t-37.5 -25.5t-36 -28.5q-31 -27 -34 -57.5t7.5 -64.5t23.5 -69t16.5 -67.5t-15 -61t-72.5 -51.5q-31 57 -66.5 66.5t-73.5 -4t-73.5 -35t-64.5 -26.5t-48.5 18.5t-23.5 103.5 q27 88 -2 154.5t-81 121t-112.5 101.5t-96 99t-32.5 111.5zM244 1255l35 -176l-19 35l107 121h-88v20h-35zM492 795l88 -158l-52 16q0 -20 -2 -39.5t3.5 -37t19.5 -34t47 -30.5q-23 23 -24 50.5t5.5 58t12.5 59.5t2 53.5t-26.5 41t-73.5 20.5zM492 1079l36 -18q53 0 73 14.5 t20 39t-13.5 55t-25 61.5t-16 60t13.5 52q-18 -47 -34 -74.5t-19 -47t8.5 -39t44.5 -52.5zM524 435.5q2 -11.5 11.5 -11.5t26 2t34.5 -18q14 25 7 37t-21.5 18t-31 12.5t-22.5 18.5q-6 -47 -4 -58.5zM545 -18h35q0 12 -2.5 33.5t-16.5 37.5zM561 1675l35 -100v33zM774 758 q27 -39 33 -82t4 -86t-5 -85t3 -81q31 -14 44 -6t18.5 25.5t6.5 38t6 34.5t19.5 16.5t44.5 -20.5q0 41 5 77t34 64q-23 14 -47.5 22.5t-43.5 19t-29.5 24.5t-4.5 39h-88z" />
<glyph unicode="%" horiz-adv-x="1400" d="M53 918q0 109 16.5 214t69.5 211q39 27 88 62t100.5 59.5t102.5 28.5t98 -29q51 20 108.5 45t108 61t88 83t50.5 114l16 -16q14 53 55 76.5t91.5 23.5t98.5 -22.5t75 -61.5q-14 -88 -48 -167.5t-76 -153.5t-86 -145.5t-80 -144.5t-54.5 -148.5t-10.5 -159.5 q53 -27 105.5 -10.5t103.5 35t100.5 17.5t96.5 -59q45 -68 61.5 -134t13 -132.5t-20.5 -133t-38 -130.5q-31 -47 -73 -93t-94 -80t-111.5 -47t-124.5 9q-45 4 -70 27.5t-40 56.5t-27.5 70t-31 66.5t-49 47t-83.5 13.5l-318 -672q-59 27 -72.5 64.5t-7.5 80.5t19.5 87t7.5 83 q39 29 58.5 59.5t29.5 66.5t16.5 75t20.5 86q12 33 33.5 69t47 75.5t51.5 81.5t44 89q12 27 40 61t46 69.5t16 74.5t-47 78q6 -66 -30.5 -104.5t-85 -57t-93.5 -19.5t-59 5q-47 -6 -89 8t-75 42t-54.5 66t-27.5 79zM229 899q66 -12 104 0t60.5 40t35.5 66.5t28.5 78.5t40 75 t69.5 58q-47 -12 -69.5 12t-39 51t-39 38t-69.5 -28q-90 -80 -112.5 -182t-8.5 -209zM668 473l22 21v106zM668 1010l22 14q0 6 2 15.5t1 18.5t-6 15t-19 6q47 25 78.5 69t52 93t32 99.5t17.5 91.5q-47 18 -73.5 3.5t-44 -39t-30 -48t-32.5 -23.5q-49 -186 0 -315zM721 690 q27 -23 40 -19.5t19 20t9.5 41t12.5 45t27.5 31.5t53.5 3l-35 37q-6 -20 -16.5 -45t-25.5 -43.5t-36.5 -25.5t-48.5 7v-51zM899 371q29 -27 45.5 -46.5t44.5 -5.5q33 27 70 65t59.5 82t25.5 92t-32 95q-33 -14 -72 -39.5t-72.5 -62.5t-54 -82t-14.5 -98z" />
<glyph unicode="&#x26;" horiz-adv-x="1404" d="M49 541q12 59 36 107t56.5 89t75.5 79t96 79q-4 72 -22.5 139.5t-29.5 132t-6 129t46 129.5q45 66 107.5 81.5t127 -1t123 -55.5t99.5 -78q-27 -35 -35 -62.5t-7 -51t7 -45t9 -45t-2 -50t-25 -61.5q-20 -29 -47 -68t-45.5 -86t-21.5 -98t23 -105q41 -41 88.5 -55t88.5 39 q-25 66 -11.5 109t43 75.5t63.5 62.5t48 70q39 27 78 24t75.5 -21.5t69.5 -45t62 -45.5l-37 -143l-178 109q-80 -96 -113 -201t-45 -223q18 -33 45 -65t59.5 -57.5t72.5 -41t85 -15.5q57 8 77.5 27t22.5 40.5t-7 46t-10 45t14.5 35.5t64.5 19q39 -27 57.5 -64.5t18.5 -77.5 t-18.5 -78t-57.5 -64q-53 -47 -109.5 -59.5t-113 -4t-111.5 33t-109 50.5q-31 35 -58.5 41t-53 -6t-50 -35.5t-52 -47t-57.5 -41t-64 -17.5q-113 -23 -187 11t-122 98.5t-77.5 148.5t-56.5 164zM210 474.5q11 -97.5 103 -163.5q53 -27 105.5 -27.5t100.5 15.5t90 47t75 72 l-283 352l-120 -106q-82 -92 -71 -189.5zM386 1250q-3 -36 10.5 -69.5t29.5 -65.5t10 -58q27 -33 45.5 -36t30.5 11.5t21.5 40t20.5 51t24.5 46t35.5 24.5q6 27 -8 49.5t-39.5 38.5t-60.5 26.5t-70 10.5q-47 -33 -50 -69z" />
<glyph unicode="'" horiz-adv-x="534" d="M63 1391q35 80 100.5 102.5t133.5 6t123 -66t67 -114.5q-41 -31 -59 -87t-29.5 -120.5t-19.5 -128t-26.5 -111t-52.5 -69t-95 1.5q-37 82 -61.5 171t-24.5 185q-41 37 -55.5 100.5t-0.5 129.5z" />
<glyph unicode="(" horiz-adv-x="509" d="M39.5 667.5q-21.5 223.5 20.5 441.5t169 402l88 211q18 8 29.5 -2t22 -26.5t21.5 -34t30 -23.5q-12 -94 -60.5 -181t-113.5 -152q12 -59 2 -128t-26.5 -138.5t-33 -138.5t-16.5 -128q35 -94 68.5 -202.5t72.5 -219t83 -215t98 -190.5q-35 -14 -49.5 -45t-28 -56.5 t-34 -33t-65.5 25.5q-106 178 -181 394t-96.5 439.5z" />
<glyph unicode=")" horiz-adv-x="520" d="M52 1596.5q-7 52.5 24 103.5q61 12 89 -11.5t43 -64.5t26.5 -89t39.5 -83l31 53q0 -59 13.5 -124.5t37 -123t56 -100.5t71.5 -55q-45 -45 -58 -97.5t-11 -110.5t12 -119.5t15 -122t-2 -117t-42 -105.5q-41 -68 -57 -146.5t-33.5 -160.5t-46.5 -158t-94 -137l-90 20 q55 164 103 336t71.5 352.5t11.5 370t-78 387.5q-14 47 -44.5 97.5t-55.5 101.5t-32 103.5z" />
<glyph unicode="," horiz-adv-x="632" d="M34 -272q9 43 44 72.5t80 57t71 72.5q-18 47 -57 86t-70.5 80t-41 90t29.5 117q45 53 99.5 70.5t110.5 9.5t107.5 -40t90.5 -79t58 -105.5t11 -119.5q12 -66 -16.5 -120t-77.5 -104.5t-110.5 -99.5t-114.5 -104h-176q-47 74 -38 117z" />
<glyph unicode="-" horiz-adv-x="1189" d="M57 611.5q2 31.5 27 66.5q45 12 100.5 31.5t113.5 30t117.5 3t114.5 -46.5q33 33 63 40t60.5 7t64.5 2.5t75 22.5q59 -6 104 -25.5t85 -44t79 -54.5t84 -56q-43 -84 -112.5 -123t-152.5 -49t-176.5 -1t-185.5 23.5t-176 24.5t-152 2q-41 14 -71.5 36.5t-47 50.5 t-14.5 59.5z" />
<glyph unicode="." horiz-adv-x="610" d="M56.5 258q19.5 35 59.5 63.5t85.5 53t70.5 53.5q55 6 104.5 -8t87.5 -45t63.5 -73t31.5 -87q0 -68 -48 -126t-114 -85q-53 -29 -103 -23.5t-95 31t-80 69.5t-53 95q-29 47 -9.5 82z" />
<glyph unicode="/" horiz-adv-x="956" d="M-102 -84q20 113 60 196t83 161.5t82 163.5t57 206h56q117 279 227 587t231 613q23 8 58.5 26.5t75.5 35t78 23.5t66.5 -4t41 -46t0.5 -106q-115 -100 -200 -244t-159.5 -299.5t-148.5 -306t-166 -263.5q-12 -68 -44 -114.5t-63.5 -92.5t-54 -99.5t-16.5 -133.5 q-33 -39 -49.5 -87t-33 -97t-41 -93t-71.5 -77q-10 27 -25.5 39t-43.5 12z" />
<glyph unicode="0" horiz-adv-x="1171" d="M52 457.5q-9 101.5 9 208.5q-6 92 16.5 191t71 189.5t121 166t164.5 120.5q59 -12 118.5 -17t116 -13.5t109 -24.5t99.5 -49q59 -106 116.5 -208.5t90 -202t30.5 -196t-63 -188.5q20 -41 9 -88t-36 -96t-53.5 -97.5t-42.5 -89.5q-59 -66 -133 -100.5t-154 -42.5t-160 7.5 t-153 47.5q-80 53 -138.5 128t-93.5 164t-44 190.5zM253 520q5 -88 58 -174q53 4 87 -12.5t58.5 -43t42 -59t37 -59.5t45 -43t64.5 -12q72 86 126 182t81 200.5t21.5 216t-50.5 230.5q-12 53 -45 73.5t-69.5 32t-69.5 28t-45 63.5q-53 -14 -69.5 -27.5t-27 -27t-28.5 -25.5 t-72 -25q-33 -82 -69.5 -168t-58 -174t-16.5 -176z" />
<glyph unicode="1" horiz-adv-x="1173" d="M74 115q12 57 54 84.5t94 42t106.5 27t93.5 40t53 80.5t-12 152q-20 39 -28.5 84t-14.5 92t-11.5 92t-19.5 84q20 33 25.5 75t2.5 86t-11.5 89t-16.5 86q-45 -6 -83 -3t-73.5 12t-74.5 24.5t-84 33.5q33 61 88 78t119.5 14.5t131 -9.5t122.5 5q45 -119 46 -229.5 t-8.5 -221t-14.5 -225t30 -239.5q-14 -47 5 -85t57 -59.5t87 -22.5t97 26q20 -45 42.5 -47t47 7t51 13t53.5 -27l88 -124q-119 -53 -247 -59.5t-261 2.5t-268 21.5t-266 0.5z" />
<glyph unicode="2" horiz-adv-x="1130" d="M58 265q-1 54 4.5 108.5t13.5 95.5q16 80 62 135t108.5 95t135.5 71t142.5 59.5t129 61.5t96 78t44 107.5t-29.5 152.5q-59 68 -115.5 81t-115 5t-120 -24.5t-128.5 -10.5q20 -12 41.5 -45t32 -75t5 -85t-37.5 -78q-16 -27 -38 -37t-45.5 -10t-45 9.5t-35.5 21.5 q-47 27 -55.5 64.5t1 80.5t23.5 87t14 83q92 74 195.5 113t206 41t201 -36t178.5 -118q6 -78 30.5 -155.5t37 -152.5t-5 -144.5t-97.5 -126.5q-14 0 -37 20.5t-48.5 37t-50 16.5t-44.5 -39l69 -54h-139h18v-53h-18q-18 39 -34.5 52.5t-34 10.5t-36 -16.5t-41 -27t-48 -21.5 t-56.5 2l37 -70q-39 18 -69.5 9t-55 -34.5t-46 -58t-40.5 -59.5l51 -74q-10 0 -30.5 2t-20.5 19l-35 -21q53 -12 126 -29.5t146.5 -33.5t142.5 -27.5t114 -11.5q61 0 90.5 13.5t46 38t27 61.5t30.5 84q-20 6 -16 15t17.5 20.5t28.5 24.5t21 28q55 -20 79 -59.5t32 -88.5 t8 -107.5t6 -117.5q-27 -59 -63.5 -76.5t-78.5 -23t-83 -12.5t-76 -46q-66 18 -132 60.5t-134 73t-137.5 35.5t-140.5 -48q-20 -18 -35 -34.5t-29 -25t-28.5 -7t-32.5 15.5q-27 33 -39.5 82t-13.5 103z" />
<glyph unicode="3" horiz-adv-x="1216" d="M56 1119.5q-1 66.5 18.5 128t72.5 108.5q113 0 239 1t250 -8.5t239.5 -32t207.5 -71.5q-18 -53 -46.5 -96t-63.5 -83t-74 -78t-78 -77q16 -39 50 -65.5t71 -47t71 -39t53 -41t18 -52t-35 -72.5l88 -160l18 19q39 -12 38 -38t-15.5 -52.5t-31 -50t-9.5 -36.5q-6 6 -8.5 28 t-5.5 46.5t-11 48t-29 35.5h-16q-14 -27 -11 -59.5t11 -67.5t15.5 -69.5t4 -65.5t-24 -54.5t-69.5 -37.5q-31 23 -46 21.5t-24.5 -15.5t-15.5 -34.5t-15 -38t-24.5 -25.5t-46.5 4q-86 -39 -170 -48.5t-163.5 1t-155.5 34t-148 50.5q-55 47 -86.5 102t-39 110.5t14 110 t74.5 101.5q33 33 52.5 28.5t36 -21t36 -32.5t52.5 -10q-6 -66 10 -129.5t52 -111.5t91 -75.5t129 -21.5q53 20 107.5 45t101.5 59.5t85 82.5t56 114q-18 33 -29.5 93.5t-36 116.5t-72.5 95t-142 33q-39 -14 -73 -22.5t-65.5 -16.5t-62.5 -19.5t-63 -29.5q-23 47 -8.5 93 t48 90t74.5 87t75 86t48.5 86t-8.5 88q-102 35 -158.5 31t-88.5 -31.5t-50 -72t-43 -89.5t-66.5 -83.5t-121.5 -55.5q-20 59 -38 126t-19 133.5z" />
<glyph unicode="4" horiz-adv-x="1146" d="M47 434q80 113 154.5 231.5t148.5 236.5t152 232.5t164 221.5q27 6 47 -2t34.5 -23.5t24.5 -34t16 -30.5q0 -172 11.5 -355.5t77.5 -371.5q27 27 51 14.5t46.5 -37t46 -47.5t50.5 -16q6 -27 -1 -42.5t-22.5 -25.5t-33 -18.5t-29.5 -20.5l-125 -18q-27 -66 -18.5 -102 t35 -55t64.5 -28.5t73 -23t57.5 -37t18.5 -72.5q-80 0 -158 -10t-157 -18.5t-163 -8.5t-176 19q-23 57 -5 84.5t53.5 42t81.5 23t80 26.5t48.5 54t-12.5 106q-57 18 -114.5 22t-114 3t-109.5 -3t-105.5 3t-100.5 23.5t-91 57.5zM401 612q37 -41 80 -57t97 -16 q57 23 80.5 57.5t26.5 76.5t-7 87t-21.5 91t-16.5 89t7 78q-47 -33 -88 -81t-74.5 -102.5t-55 -111.5t-28.5 -111z" />
<glyph unicode="5" horiz-adv-x="1079" d="M61 135q-14 92 5.5 161t97.5 122q53 -14 84 -45t52.5 -71t40.5 -84t52 -83v88q35 6 40 -7t0 -32.5t-10 -40t9 -26.5q45 6 104.5 18t118 33.5t108.5 54.5t77 84q18 74 17 154t-25.5 150.5t-75.5 122.5t-131 73q-53 27 -103.5 15.5t-97.5 -38t-92 -59.5t-88 -49.5t-85 -6 t-81 67.5q6 72 1 148t-7 151.5t8 150t49 146.5q94 -6 197.5 -1t208 5t205 -10t186.5 -45q-39 -61 -106.5 -79.5t-145.5 -19.5t-158 5t-143.5 -7.5t-101.5 -56.5t-33 -141q86 -20 177 -17t178 0t168 -27t146 -97q53 -59 82 -147.5t35 -186.5t-6 -195.5t-39 -177.5 q-59 -53 -125 -101t-137.5 -79t-148 -41t-156.5 12q-59 -8 -109.5 11.5t-93.5 52.5t-79 72.5t-69 72.5z" />
<glyph unicode="6" horiz-adv-x="1036" d="M68.5 373q-15.5 127 1 253t55.5 249.5t82 244.5q27 45 74 85t105 67.5t120.5 41t119 4.5t100.5 -42.5t67 -101.5l-72 -197q-47 0 -84 23.5t-65.5 57.5t-49 69.5t-33.5 62.5q-12 -6 -47.5 -14.5t-72.5 -24.5t-66 -44t-29 -75q14 -20 14.5 -42.5t-9 -41t-29 -30 t-43.5 -11.5q31 -45 71.5 -63.5t85 -19.5t88.5 8.5t81.5 17.5t64.5 11t37 -11l-21 -35q14 -27 33 -33t40.5 -2t44 11.5t42.5 7.5q20 -41 68.5 -101.5t89.5 -125t55 -128t-31 -110.5q-12 -106 -67 -200.5t-150 -174.5q-68 -20 -147.5 -25.5t-160.5 12t-154.5 58.5t-126.5 113 q-66 129 -81.5 256zM221 326q0 -43 18.5 -77t71.5 -40q47 -29 97.5 -51.5t100.5 -34.5t100 -10t98 22q59 55 87.5 104.5t36 101.5t1 111.5t-18.5 133.5q-53 12 -93 34.5t-78 44t-78 36t-93 8.5q-41 0 -82 -23.5t-73.5 -57.5t-54 -71t-21.5 -63q0 -33 -9.5 -79t-9.5 -89z" />
<glyph unicode="7" horiz-adv-x="1050" d="M55 1150q0 67 19 132q94 41 195.5 42t206 -8t210 -12.5t205.5 29.5q25 -39 46 -62.5t32.5 -46t10.5 -53t-22 -81.5q41 -41 47.5 -70t-6 -53.5t-39 -46t-51 -45t-43 -53t-14.5 -68.5q-72 -86 -115 -197t-83 -224.5t-90 -221t-136 -185.5q-53 25 -70.5 69t-17.5 96t9 108.5 t9 107.5q39 100 102.5 200.5t123 199t102.5 194.5t43 189q-45 33 -91 43t-90 12t-83 2t-72 14q-57 -37 -82.5 -82t-35 -92t-14.5 -92t-20.5 -80t-53 -56.5t-113.5 -21.5q8 72 2 141.5t-13.5 137t-7.5 134.5z" />
<glyph unicode="8" horiz-adv-x="1212" d="M49 349.5q8 68.5 27.5 136t32.5 126.5q43 35 55 75t7 82t-20.5 87t-25.5 93t-9 96.5t29 97.5q39 72 90.5 98.5t111 35.5t125 16t130.5 40q59 -6 108.5 -15t93.5 -26.5t89 -41t98 -56.5q27 -80 37 -156.5t13 -150.5t5.5 -147.5t12.5 -145.5t34.5 -143.5t73.5 -143.5 q-12 -72 -30.5 -128t-54 -98t-91 -73t-141.5 -49q-98 -20 -199.5 -25.5t-198 10t-183.5 52.5t-160 102q-47 53 -57.5 118t-2.5 133.5zM225 433q-12 -50 9.5 -103.5t66.5 -104.5t92 -90q78 -6 154 -16t148.5 -9t142 21.5t135.5 73.5q27 45 27.5 86t-11.5 80t-28.5 75.5 t-22.5 77.5q-147 66 -317.5 66t-317.5 -66q-66 -41 -78 -91zM248 877q47 -53 108.5 -79t131 -35t143.5 -9h145q41 6 74 29.5t56.5 55t35.5 65.5t12 61q-18 68 -58 106.5t-90 62t-103.5 36t-100.5 24.5q-6 -27 -26.5 -33t-47 -4t-54.5 6t-48 -2q-35 -41 -66.5 -63.5t-56 -47 t-40 -62.5t-15.5 -111z" />
<glyph unicode="9" d="M68.5 955q5.5 89 40.5 169q66 66 144.5 125.5t172.5 83.5q133 20 227.5 -30t159 -137t102.5 -195.5t56 -200.5q-6 -59 -8 -142t-12.5 -169t-33 -164t-67.5 -123q-41 -82 -127 -153.5t-195 -112.5q-35 12 -72.5 17t-73.5 10.5t-68.5 14.5t-56.5 29.5t-36 58.5t-8 99 q6 33 10 64.5t14.5 57.5t29 44t52.5 27q39 -18 82 -58.5t89.5 -70t95.5 -35.5t102 41q47 27 52 58.5t4 65t7.5 65.5t61.5 59q-86 6 -158.5 -7.5t-141.5 -21.5t-141.5 2t-158.5 63q-45 53 -80 129t-52.5 162t-12 175zM213 754q39 -33 71.5 -66t65.5 -59.5t72 -46t92 -25.5 q27 18 67 39.5t82 47.5t80.5 56.5t63 68.5t29 82t-22.5 95h-51q6 39 -19.5 80t-67.5 74t-91 50t-88 11q-66 -14 -128.5 -40.5t-103.5 -67.5q-18 -41 -29.5 -75t-15.5 -69t-5 -72.5t-1 -82.5z" />
<glyph unicode=":" horiz-adv-x="540" d="M54 770q-3 51 18.5 94t61.5 82t87 80q57 25 101.5 10.5t78 -48.5t58 -74t45.5 -66q-23 -31 -49.5 -71t-57 -77.5t-65.5 -68.5t-72 -42t-79 2t-85 62q-39 66 -42 117zM57 68q14 47 26.5 98t34 94t57.5 73t97 36q39 -6 70 -30t52.5 -57.5t35.5 -71.5t21 -71 q12 -47 0.5 -80.5t-37 -58.5t-60.5 -43t-67 -33q-39 -6 -81 -1t-77 21.5t-56.5 46t-15.5 77.5z" />
<glyph unicode=";" horiz-adv-x="653" d="M72 862q27 47 51 87t56 70t73 49.5t100 25.5q27 -39 74 -69t89 -61.5t64.5 -70.5t2.5 -98q-20 -27 -44 -56.5t-51.5 -56.5t-61.5 -49.5t-73 -34.5q-47 20 -92 43t-82 52.5t-65.5 69.5t-40.5 99zM82 209.5q12 46.5 45 80.5t79 53.5t93 25.5q39 -27 84 -48.5t85 -46 t70.5 -57.5t43.5 -78q0 -66 -9.5 -147.5t-37 -161.5t-78.5 -148.5t-138 -107.5l-213 20q-6 72 12.5 133.5t32 121t5 122t-65.5 135.5q-20 57 -8 103.5z" />
<glyph unicode="&#x3c;" horiz-adv-x="2670" d="M55 1010l8 -17q0 11 -8 17zM55 1049l8 6q14 6 26.5 4t21.5 8q0 16 1 35.5t15 25.5q10 8 26.5 10.5t30.5 8.5q18 -4 23.5 -17.5t9.5 -26.5t11.5 -19.5t27.5 6.5q-4 6 -3 14t3 15t0 12.5t-12 5.5q-4 2 -8.5 3t-4.5 7q0 8 7 10q0 -2 2 -2h4v2q0 2 4 2h2v-2q4 0 6 3t8 -3 q0 18 -5 37.5t5 36.5q2 10 -2 19.5t4 15.5h6q0 -27 17.5 -45.5t21.5 -46.5q0 -6 5.5 -3t13.5 -2q0 4 1 7.5t5 -2.5q4 -4 20 -5q0 4 4.5 8.5t8.5 4.5v-4q0 -4 4 -4v8q4 0 8 -4q2 -2 2 -4q4 10 0 20l-117 172q-2 0 0 1t6 1q10 0 15.5 -11t15.5 -16q0 -10 8 -13t8 -17v8 q0 -6 1.5 -8t1.5 -6q6 -2 12 -9.5t6 -19.5q33 -23 49.5 -54.5t38.5 -64.5q-4 0 -6 -2q-4 -4 0 -8h6q16 0 33.5 1t40.5 7l10 -8q-6 6 2 7t-2 3q6 6 9 4t3 4q0 4 0 2t-4 -2h-4q-4 0 -4 4q-8 10 -14 18.5t-15 16.5q14 4 26.5 6t18.5 11q0 6 -8 6q-14 -4 -23.5 -3t-19.5 -3 q-27 27 -45 63q-14 -6 -11 -16.5t-11 -7.5q-4 -2 -5.5 -6.5t-1.5 -8.5h7q-4 -4 -5.5 -3t-1.5 -3q-4 14 -12 12t-8 9q0 23 16 32q8 -6 9.5 -3t5.5 5q0 8 -4 12.5t-9.5 5.5t-10.5 4t-7 13l-10 21q-6 12 -10.5 26.5t-22.5 9.5q-4 -4 -8 -2t-10 -2q-2 4 -1 5.5t1 5.5q8 2 8 20 h43q0 -8 8 -9t12 -1q8 8 4 17.5t-4 11.5q4 18 0 36.5t6 32.5q10 -14 30 -7t30 7h8q6 -6 12 -4t12.5 5t11.5 3t9 -8l1257 141q10 2 15.5 -3t7.5 -12t4 -15.5t6 -14.5q12 -20 31.5 -26t40.5 0q8 0 3 8t-5 12t-4 5t-4 5q8 6 20 7q6 -12 6 -33t19 -21q0 12 8 19.5t18 17.5 q29 -23 61 -39t60 -47q-8 -4 -13 -2t-5 -2q2 -8 6 -7t10 3t12.5 2t10.5 -12h2q2 2 2 4q29 -16 56.5 -33.5t53.5 -40.5v-37q14 -8 22.5 1t22.5 5q-6 -4 -15 -9t-19 -5q6 -14 17 -16t17 -4q0 2 4.5 1t0.5 1q10 12 15 2.5t17 -2.5q-12 6 -8 19t-8 17q0 -4 -2 -6t-8 2h-4 q-2 0 -2 4h6q0 6 -8.5 11.5t-10.5 5.5q6 8 17.5 9t17.5 1q0 12 -5 14.5t-11 4.5q6 4 13 2t17 -2q39 -23 45.5 -65t6.5 -83q8 -6 5 6.5t5 14.5v-21q4 0 8 4t10 4q6 8 -1 4t-11 -2q4 12 17.5 12.5t21.5 4.5q0 2 2 2q2 -2 4 -2q-4 -12 -7 -30.5t-18 -14.5q0 -4 -4 -3t-4 -3 l-8 6q0 -4 -3 -2t-7 2q-8 0 -7 5t-3 5q-4 -2 -4.5 -6t4.5 -4l-17 -17q16 0 32.5 4t33.5 4q0 -6 3 -10t3 -8q-12 -6 -26.5 -8t-18.5 -10q4 4 8 2t10 -2q20 -4 44 -2t34 -19q2 -16 8 -31.5t10.5 -30t2.5 -27.5t-15 -28q-8 -8 -20.5 -9t-24.5 -1q4 -18 10.5 -37.5t6.5 -36.5 q-2 -18 -13.5 -28t-15.5 -23q-12 -14 0 -22q-4 -74 -32 -137.5t-40 -133.5q-4 -31 -9 -63.5t-5 -66t7 -66.5t28 -60l133 -264q43 -117 137 -211q20 -27 10 -59.5t-18 -59.5q6 -10 1 -14t-5 -14q-23 -14 -50.5 -22.5t-56 -14.5t-57.5 -14.5t-53 -20.5q-53 -16 -109.5 -30.5 t-116.5 -36.5q10 -6 23.5 -13.5t23.5 -11.5q27 4 47.5 11t43.5 14q10 0 19 5t17 5q0 4 11 4q25 4 41 11t39 11q10 0 18 4q14 -4 19.5 6.5t15.5 0.5h2h8q0 -4 -4 -7.5t-6 -3.5h2q-2 0 -6 -6t-8 0q-4 -6 -13.5 -9t-21.5 -7q-4 0 -14.5 -2t-14.5 -2q0 -10 -9 -10t-14 -5 q-14 0 -26 -6t-23 -6q-29 -6 -58.5 -17.5t-64.5 -15.5q-41 -16 -80.5 -29.5t-84.5 -27.5q-76 -27 -153 -46.5t-153 -43.5q-117 -41 -237.5 -72t-237.5 -59q-4 0 -12 -4t-14 -4q-25 -8 -47.5 -14.5t-45.5 -20.5h-23t-20 -2q-12 2 -17 -2t-19 4q-6 -8 -13.5 -4t-11.5 2 q-10 2 -17.5 2h-15.5q-33 14 -56.5 33.5t-35.5 48.5q0 14 -18 26q0 8 -8.5 15.5t-8.5 13.5q-8 23 -18 35t-23 29q-4 4 -2 8t-2 4q-14 12 -23.5 28.5t-21.5 28.5q-6 12 -12 18.5t-6 16.5h-8l8 4q-12 0 -13.5 10.5t-11.5 14.5q0 4 -4 8t0 8q-4 0 -8 8t-8 13q-6 10 -12.5 17 t-6.5 19q0 4 -3 11.5t-7 11.5q-4 18 -14.5 23.5t-12.5 19.5q-6 0 -8 1t-6 -1v2q-4 0 -10 4t-2 12q-4 0 -7 -2t-3 2h6q-4 6 -8.5 16.5t-8.5 10.5l-6 4l-8 4l-10 12q-4 4 -13.5 8.5t-13.5 16.5q-8 0 -8 -4q-2 -2 0 -2q0 8 -5 9t-9 1q4 4 -4.5 5t-12.5 3q-6 0 -11 7.5t-7 7.5 h-8q-4 10 -12.5 8t-8.5 12q-4 0 -9 3t-5 -3v8q-2 0 -1 -4t-1 -2q0 6 -6 6h-7q-4 4 -8 3t-8 8l-6 -7q0 6 -4 7h-4h-4q0 6 -4 6h-3q-4 -4 -6 -2t-4 6t-4 6t-6 -4q-8 10 -11 6t-7 0q-6 0 -7.5 4t-5.5 6q-4 -2 -5 1t-7 -1q-4 14 -12.5 8t-16.5 -2v4q-4 6 -4 4.5t0 4.5 q-4 -6 -8 -1t-4 1v6q-8 0 -14.5 7t-16.5 11v-6l-8 6h8h-8q10 0 10 2q-2 6 -6 3t-4 5l-6 -10v10h-6v11q-4 0 -8.5 3t-8.5 -3q4 6 -1 8t1 2q8 -2 10.5 4t6.5 12q-2 -2 -2 0v2q0 4 2 7h8q10 0 -2 4l-6 -4q0 4 -3 6t-3 -2q10 -4 13 4t13 2l2 8l-2 4q0 4 -1 3t-7 3l8 6v-6 q0 6 8 6l-6 4q4 0 8.5 -2t10.5 2v7q4 -8 5 -4t5 4v4q0 2 -2 3t-4 -3q-4 6 -10.5 2t-2.5 6v6q-2 2 0 2h3q2 0 3 -1t3 -1q0 4 5 4t5 -4v4h8v8h-14q2 0 2 2t-2 2v-4q0 -4 -1 -4t-1 2q-2 2 -2 6q0 10 9 4t9 0h-8q6 6 1 9.5t-1 9.5v-8q0 6 6 8t2 8v2q0 4 -3 6t3 9l4 -15 q0 14 4 17h-4q0 6 0 2t4 -2v8h8v10v12l-8 -4v2q-2 2 -4 2q0 4 -4 2t-14 2q14 6 28.5 4t18.5 5q4 -8 8 -5q2 0 4 5h4l-4 4q4 8 -4 8t-8 2l-6 -2q0 -6 -1 -3t-7 5h8l6 8v-8q4 0 2 4t2 4l8 -8h-8h16q12 12 13 0q4 0 4 4v4h-2q-4 0 -6 6v-6q0 4 -6.5 5t-2.5 5h9v6q6 -8 13 -1.5 t15 1.5l-6 7h2q4 0 4 -7l6 7q-4 0 -6 2t-6 2q10 6 16.5 5t10.5 13l-4 8q10 2 17 -2t17 4q-4 4 -10 6.5t-2 10.5q4 -2 6 -1t6 1q-4 10 -2 21.5t6.5 22.5t5.5 22.5t-5 23.5q0 18 18 37l-29 348q0 47 -16 92q-10 6 -20.5 7t-18.5 3q0 6 -6 6h-4q-16 -4 -36 -5t-34 5 q-10 8 -13 19.5t-3 23t-2 21.5t-9 16h-4q-6 10 -9 22.5t-19 18.5q0 -23 2 -51.5t-19 -40.5q-23 0 -41 -5t-32 13q-10 20 -15.5 40t-11.5 36l-18 8q-6 0 -4.5 -4t-4.5 -4q-4 6 -2 8t2 6q6 -4 9.5 -2t7.5 2q-4 8 -10.5 5t-6.5 6q0 8 -3 10t-3 12q4 0 12.5 1t4.5 11 q-2 4 -12.5 0t-14.5 5q-2 4 -10 3t-11 3q2 -16 6.5 -36t12.5 -36q-8 12 -13.5 30.5t-13.5 35.5zM82 952l18 13v18q0 -8 -6 -8q-2 -2 -4 0v-4h-6q0 -4 -1 -9.5t-1 -9.5zM127 1083h4l-4 7v-7zM147 940l7 -4v4h-7zM199 12q2 -4 8 -1t12 1q0 2 -9 1t-11 -1zM211 14l8 9v-9l12 9 q-4 4 -9 2t-11 -2v-9zM231 14h7q-2 -2 -5 0q-2 0 -2 9h7q-4 0 -5.5 -5.5t-1.5 -3.5zM238 33q0 2 2 2q2 -2 4 -2l-6 8v-8zM244 41h12q-2 0 -2 2l2 2zM250 51h6l-6 6v-6zM250 1151q0 -2 6 4q0 2 -5 1t-1 -1v-4zM256 -20v-3h8h-2q-2 0 -2 1.5t-4 1.5zM256 23q2 -2 4 -3 q4 -4 4 -6v9h-8zM256 1038q8 0 10 6q-2 2 -6 3q-2 -1 -4 -3v-6zM256 1137l10 -9v9q10 0 19 2q-21 0 -29 -2zM264 1010h8q-8 10 -8 0zM266 72q0 4 2 6q2 0 4 2q0 4 -3 5t-3 5v-4h6q-6 -6 -6 -14zM272 33v8v-8zM272 1004h2q2 -2 2 -5l9 -14q8 0 16 -4t18 2v-8q23 0 42.5 5 t41.5 3l7 2q0 25 -7.5 38t-19.5 26h-10l-4 6v-11l4 5v-5l10 5q0 -4 2 -8.5t-2 -12.5q0 4 -5 5t-5 5q0 -6 10 -10h-10v4h-4v-12q-25 -2 -49.5 -7t-47.5 -9zM276 -51q6 0 7.5 -3t5.5 -3q-5 6 -13 6zM295 993q8 -8 27 -8q6 0 10 5t8 9q-8 8 -21.5 5t-23.5 -11zM295 1063 q0 -6 5 -4t11 -4q6 6 9.5 10t9.5 8q-9 4 -19 4q-4 -4 -14 -2t-2 -12zM303 125h4q2 4 2 8q0 2 -2 2q0 -2 -2 -3t-2 -7zM307 1157q4 -8 17.5 -8t23.5 6q-10 2 -15 1t-14 -1q-6 0 -7 4t-1 -4zM311 1366q-4 0 2 -5t6 -11q8 0 9.5 2t1.5 6t2 7t8 3q-4 6 -12.5 3t-16.5 -5z M340 1358q2 -2 4 0q4 0 4 8h-8v-8zM348 227h4h-4zM348 1090l4 -7zM348 1094q12 -12 24.5 -16.5t20.5 -14.5q0 -6 5 -13.5t5 -11.5q-8 4 -15 14.5t-15 10.5q29 -20 37 -43q0 6 -4.5 10t4.5 8q6 -4 8 -10l4 -12t6 -12.5t16 -10.5q72 12 148 21.5t149 23.5l17 -6 q-10 10 -15.5 23.5t-19.5 17.5q-35 0 -64.5 -6t-62.5 -12q-16 -8 -28.5 -4t-20.5 13t-14.5 21.5t-12.5 22.5q-6 2 -7 6t-2 9t-4 9.5t-13 4.5q-16 -6 -33 -8.5t-33 -8.5q0 -6 6 -7t10 -1q4 -4 -4 -5t-8 -5q12 0 25.5 1t25.5 5v-6q-8 -6 -18 -10.5t-21 -8.5l23 -39 q-18 -20 -39 -12q-6 6 -6 12q-10 8 -11 19.5t-12 19.5q-12 8 -23 18.5t-28 6.5q8 0 8 -14h-8zM352 195q0 -4 2 -5q0 -2 1 -1t1 6v2q-2 0 -4 -2zM352 1128v9v-9zM365 195l8 -9l-4 9h-4zM369 1038h4h-4zM369 1108h14q-14 6 -14 0zM373 1147q14 0 14 8q-4 0 -8 -4q-4 -2 -6 -4z M373 1303l10 -9v9h-10zM387 1108q10 0 9 -7t7 -11v4q0 8 11 8q-7 12 -27 6zM387 1319h6h-6zM387 1350q10 -2 14.5 -8.5t8.5 -12.5q0 -4 -5.5 -2t-1.5 -2q0 -6 3 -6h4q8 4 3 11t9 7q0 -10 -2 -16t12 -16q0 -2 1 -6.5t5 -4.5q4 8 -1 14.5t-9 16.5q0 4 2 8t-2 8 q-4 6 -12.5 14.5t-16.5 2.5l4 -8q-4 -2 -8 2t-8 -2zM399 909q4 -6 10.5 -7t12.5 -1q12 12 14 35.5t2 46.5l-6 -53q0 -14 -11 -17.5t-22 -3.5zM403 254q0 6 3.5 4t3.5 4zM408 1465.5q2 -11.5 6 -17.5q27 0 52.5 4t53.5 8l6 6t-2 13l-4 8q-12 10 -15 5t-11 5q0 -8 -3.5 -5 t-7.5 -5q-4 8 -8 2t-8 -2h-8q-10 0 -21.5 -2t-27.5 -2q-4 -6 -2 -17.5zM410 1231q0 -10 18 -10q8 4 -1 8t5 10q-18 0 -22 -8zM410 1266q2 4 2 6l-2 2v-8zM412 1424.5q-2 -5.5 2 -11.5l8 8q4 -27 11 -54.5t11 -55.5q4 -12 6.5 -23.5t16.5 -13.5q12 -10 12 1t10 17l39 -8 q0 -6 1 -13t8 -11q16 -8 38.5 -2t45.5 2q43 4 89 11t87 13l401 53l33 4l405 62q61 8 124 18.5t124 16.5l4 4q16 -8 31.5 -2t32.5 2q8 4 12 8t8 -2q16 6 29.5 8t23.5 10q-23 -4 -46 -3t-44 -3q-14 0 -25.5 -4t-21.5 10q4 -4 2 -11t-6 -7q-8 6 -14 1t-8 -1 q-135 -14 -264.5 -31.5t-262.5 -34.5l-239 -34l-285 -43q-61 -8 -121.5 -12.5t-120.5 -18.5l-4 10l-37 154q-4 8 -15 4t-19 -4q-12 0 -31 -1t-35 -5h-4q-2 0 -2 6h-4q-4 0 -4 -6q0 -2 -2 -7.5zM414 983v16v5v-21zM438 1227h6v4zM477 1442h6h-6zM502 834h2q-2 4 -1 8t-1 8 v-16zM528 850q57 4 113.5 17.5t116.5 17.5h10l80 10q6 -8 7 -16.5t5 -12.5q0 4 -1 14.5t-11 14.5h8q8 10 9 2t5 -12q0 -4 -4 -5t0 -8q0 -6 11 -6q8 6 7 9.5t-5.5 6.5t-8.5 6t-4 7q12 12 14.5 3t6.5 -9q0 4 -2 8t2 4q10 6 12 -3t6 -9q0 12 -4 12q10 12 13.5 3t7.5 -9 q0 4 -2 6t-2 8q12 6 13 -7t11 -17q0 8 -4 13t-4 11q10 6 13 -1t11 -7l-8 10q10 10 11.5 3t5.5 -13v10q10 10 13 4t7 -6v2q0 2 -2 2t-4 5q10 4 13 -0.5t5 -10.5t4.5 -11t10.5 -1q10 -4 9 -14.5t-1 -14.5q4 -16 17.5 -14t19.5 -2l172 35l549 98l-164 -31l-557 -96v8q0 8 10 8 l311 54l713 123q0 4 -2 6t2 8q-4 4 -8 3t-4 7h8v4q-8 0 -8 2q-2 2 0 4q-4 4 -6 8.5t2 10.5q4 4 5 -4t7 -8v12q4 8 8 -2t6 -10q0 2 -1 4t-1 4v4q6 8 8 0t9 -12v12q2 6 4 5t3 -5t3 -8t6 -4l-8 18q10 4 13 -2t7 -12q0 14 -6 14q6 10 8 2t9 -8q4 4 -1.5 5t1.5 5q8 6 7 0t3 -10 q4 4 2 5t-2 5q10 8 12 2t6 -6q0 4 -5 5t5 7q4 0 5 -4t5 -8q-8 -10 3.5 -16.5t11.5 -18.5q-10 -4 -17.5 -1t-11.5 -5q-14 0 -25.5 -2t-21.5 -2q-6 0 -9 5t-3 9q-10 10 -15.5 2t-13.5 -12q12 0 10 -7t0 -16q8 -16 31 -6l6 17q39 6 74 12t72 10q-4 12 -10.5 25.5t-18.5 25.5 h-10l-340 -51h-23q-16 -8 -32.5 -9t-32.5 -1q-63 -14 -128 -20.5t-128 -18.5v-10h-10.5t-6.5 2l-393 -64l-578 -92q-12 -6 -24 -5t-23 -9zM537 1214h10v7q0 4 -5 0.5t-5 -7.5zM547 895h22q12 12 30.5 10t31.5 6l119 15l784 129v8h-10l-846 -145q-35 -4 -69 -8.5t-62 -14.5z M551 627q6 -8 12 -10.5t6 -10.5q6 0 6 4q-12 4 -11 17.5t-13 17.5v-18zM551 1214q0 -10 7 -16t11 -16l13 4q8 0 20 2t25 12q-4 4 -2 5t2 9l-6 13q-18 -4 -35 -6t-35 -7zM559 1274q0 -6 3 -9t3 1v8q0 2 -3 2t-3 -2zM565 1249q0 -4 6.5 -2t10.5 -2q-4 4 -8.5 7t-8.5 -3z M569 1165q0 -10 6 -10q0 2 -1 6t-5 4zM582 580q0 8 4 8h-4q0 -20 10 -51q0 -6 -2 -8.5t2 -2.5v-8q0 -10 4 -18v8q-4 4 3 8t-3 10q6 -6 8 -7t6 -5q0 -2 2 -2q6 0 9 2l6 -6q4 -6 11 -3t11 3q0 8 5 15t3 14q-10 0 -19 -2.5t-17 8.5q-12 2 -20.5 16t-18.5 21zM582 1112 q0 -14 4 -25.5t18 -19.5v-4h6q0 8 11 14q4 -8 15 -8t21 4h-8q0 4 4 4h4q-6 12 -2 28.5t-16 16.5q-14 -2 -30.5 -3t-26.5 -7zM592 1157l39 8q10 4 15 2t11 -2q0 9 -8 17l-6 -13q-12 10 -24.5 5t-26.5 -9v-8zM604 1257q0 -8 10 -8v8h-10zM610 965h4h-4zM621 780q4 -4 5 -2t5 2 h-10zM639 709q8 -6 8 -14.5t10 -4.5q0 8 -7 14.5t-7 12.5zM639 727v8v-8zM649 780q8 6 23.5 7t29.5 1v5v6q-14 -4 -27 -8.5t-26 -10.5zM654 1330q3 -7 3 -11q6 0 11.5 -4t9.5 -4q8 6 7 10t-1 8q-13 22 -27 12q-6 -4 -3 -11zM666 1137l8 -9q0 -4 5 -6t5 0h4q4 0 6 6.5 t11 -0.5l-3 11h-18t-18 -2zM674 850l31 -12q-2 14 -12.5 11t-18.5 1zM684 821h10q6 0 8 2t3 4q-2 4 -13.5 5t-7.5 -11zM684 1049q0 -4 10 -5q6 4 15.5 5.5t9.5 5.5q-21 12 -35 0q2 0 6 -4q2 -2 4 -2l-10 6v-6zM688 856h6h-6zM705 748q12 -18 28 -5v11q-4 2 -7 6t-7 4 q-4 -6 -9 -9t-5 -7zM705 793l303 51h6l-10 6q-74 -16 -150 -27.5t-149 -29.5zM719 985h4h-4zM723 1497h6h-6zM729 985q16 -8 33.5 -3t34.5 11q-16 0 -34 -5t-34 -3zM741 1139h9q0 -2 8 -1t8 -1h10q14 0 27 10q0 8 9 8h13v-8l6 8q4 2 8.5 -2t8.5 2q0 2 4 3t8 7q-4 4 -2 4 t-2 -4q-6 0 -3 -1t3 -7q-12 12 -25 8h7l-7 -8q-4 10 -8 5t-10 -5q-2 6 -7 2t-9 -2q-4 -8 -11.5 -1t-17.5 -1v2h-2q0 -8 -10.5 -4t-14.5 2l4 -8h-4v-8zM750 743q6 -12 13 -8t17 -8q-4 -8 -10 -2t-12 2v-10q31 14 63 14q4 4 10.5 2t6.5 2q-10 0 -11.5 2t1.5 5t5.5 6.5 t-2.5 5.5q0 2 -3 6t-7 4l-63 -10zM758 -307q0 -10 4 -18.5t6 -16.5q2 0 6 -4q0 -2 2 -2q16 -27 21.5 -57.5t23.5 -57.5q4 -31 30 -53.5t46 -42.5l-10 -6q8 -10 6 -21.5t8 -17.5q12 -10 28.5 -16.5t28.5 -14.5q6 -18 19.5 -41.5t44.5 -28.5v-4q16 -12 35.5 -7t38.5 18 q59 20 117.5 30.5t113.5 26.5q23 10 46.5 15t41.5 22q0 6 -1 15t-11 18q-35 -6 -67.5 -17.5t-67.5 -15.5q-29 -12 -63 -22.5t-67.5 -13.5t-65.5 5t-58 35q-47 72 -81 148.5t-77 148.5q-27 -4 -51 -7t-47 3zM766 881q8 -12 10 -28.5t10 -25.5q55 8 115 17.5t113 21.5v6 q-8 0 -13.5 -3t-13.5 -3q-18 4 -29.5 -2t-23.5 0q-23 -6 -43.5 -13t-42.5 -7q0 10 4 12t8 8l-4 2q0 10 -10.5 9.5t-14.5 9.5l7 -13q-4 0 -6.5 -3t-6.5 -3q0 -2 1 -7t5 -9q10 0 11 14q4 0 2 -5t-2 -9q-4 0 -2 -3t-2 -3l-52 -10v22q0 8 -6 13t-14 12zM780 735q4 -4 14.5 -1 t18.5 9q-8 0 -15.5 -4t-17.5 -4zM786 881q4 -6 9.5 -3t15.5 3q-6 4 -13.5 2t-11.5 -2zM811 864q0 -14 10 -14q4 4 -2 6t-8 8zM813 993h12h-12zM821 129q6 -6 10 -14q-4 8 1.5 13t5.5 7q0 10 -8.5 11t-8.5 -5q-6 -6 0 -12zM825 999l41 5h-10zM838 780q4 -6 6 -17t12 -15 q0 -10 -6 -13.5t-2 -7.5q6 0 14 1t8 7q23 6 44.5 10.5t43.5 8.5q6 2 5.5 11t-0.5 15l-5 8q-23 0 -44 -4t-48 -8l-6 4q-4 10 -11 5t-11 -5zM847 513q-3 -7 1 -13h14t4 14q0 4 -3 5t-7 7q-6 -6 -9 -13zM848 680h8l31 37q-4 0 -5 -3t-5 -3q-8 -2 -20.5 -8.5t-8.5 -22.5z M866 1167q0 -2 4 -2l2 4h-2q-4 0 -4 -2zM870 1004q10 0 14.5 1t12.5 5q-8 0 -12.5 -3t-14.5 -3zM887 559q8 -12 5 -22.5t5 -18.5q53 8 112.5 18.5t112.5 22.5q10 4 9 10t-1 11l-12 14q-31 4 -57.5 -2t-52.5 -17q-8 -4 -19.5 -0.5t-21.5 -3.5q-18 0 -38 -4t-42 -8zM897 426 l4 -2q4 0 8 -3t4 3q-6 0 -0.5 2t5.5 8q-4 0 -10.5 -4t-10.5 -4zM901 1010l252 39h-10zM905 -123q12 -49 29.5 -96t32.5 -88h8q-12 45 -29.5 91t-40.5 93zM905 451q10 -4 14.5 0t10.5 0v4q-4 0 -6 2q-9 4 -11 4q0 -4 -4 -5t-4 -5zM918 233q4 4 11 3.5t13 3.5q0 4 -7 7t-13 -3 q-4 0 -4 -11zM926 442q0 -2 4 -4v-7t4 3l2 2q0 2 1 3t-3 5h-6q-2 0 -2 -2zM942 207h6q0 8 2 10t8 6q16 4 35 7t33 -13q4 -6 2 -7l-6 -3q-6 0 -8 -5t-6 5h6v2h-10q0 -4 -11 -14h-12t-14 4q-2 -8 -11 -4q-4 2 -6 4q10 -4 15.5 -8.5t15.5 -4.5q4 -4 15.5 1.5t11.5 -5.5l14 13 q4 4 2 -2.5t2 -6.5v9q-4 4 1 10t5 12l-6 6q-16 12 -39.5 12.5t-38.5 -12.5q-4 -4 -5 -9t-1 -7zM942 1174h6h-6zM942 1403q6 -8 16 -8q0 4 -4 12q-2 4 -4 6q-2 0 -3 -1t-5 -9zM948 195l2 -13q8 -4 8 4l-4 4q-2 0 -2 1.5t-2 1.5t-2 2zM950 1174l8 -5h5l-5 13v-8h-8zM950 1382 v4v7v-11zM955.5 1366q-3.5 -2 2.5 -8q4 -6 11.5 -7t17.5 -1q-6 8 -20 8q-6 6 -3 8t-1 2t-7.5 -2zM958 209q6 -10 15.5 1t19.5 7q-4 4 -9 -1t-9 1q0 -6 -6 -4t-6 -4h-2h-3zM958 821q12 0 21.5 1t17.5 5v7q-8 -4 -17 -5.5t-22 -1.5v-6zM963 801q0 -6 5 -10.5t-1 -10.5 q6 -12 7 -27.5t1 -35.5q4 8 9 5t9 5q-4 12 1 22.5t14 22.5q4 6 16 5t8 11q-8 16 -29.5 18.5t-39.5 -5.5zM975 -215q4 -35 18.5 -71t28.5 -76q10 -16 18.5 -39t20.5 -43.5t30.5 -34t49.5 -8.5q43 10 83 20t83 21q27 10 49 20t47 10q12 -6 19.5 -18t21.5 -12q0 4 -4 9t-8 9 t3 8t1 8q16 16 45 17q10 -4 12 -10.5t6 -10.5q6 -6 9 -3t3 7q0 23 -12 41l-80 -24q-57 -25 -115.5 -46.5t-123.5 -33.5q-14 12 -24.5 30.5t-2.5 38.5q0 14 12.5 13.5t20.5 5.5q14 0 24.5 7t19.5 15.5t20.5 15.5t25.5 7q-20 35 -47 67.5t-39 67.5l-4 -53q-4 2 -11.5 8 t-13.5 10q-23 0 -32 19.5t-15 36.5q-11 -2 -27 -2q-2 2 -10 -1.5t-18 1.5q-6 -6 -8 0v-7q2 -12 6 -26.5t14 -26.5q-2 -8 -6 -15t4 -11v14q14 14 42 20.5t50 -2.5q6 -8 14.5 -14t4.5 -18q-8 -16 -26.5 -22.5t-35.5 -10.5q-16 0 -26.5 5t-20.5 7q18 -10 38.5 -11t43.5 -1 q6 4 17.5 10t15.5 18q4 0 0 -5t0 -11q-4 -6 -15.5 -14t-17.5 -13q-14 0 -13 -9t-5 -11q-4 -16 1 -29.5t-6 -23.5q-12 18 -24 37.5t-21 35.5q-6 10 -18 16.5t-8 18.5q-6 23 -14.5 42.5t-18.5 41.5q-14 -6 -27.5 -7t-23.5 -5zM975 -446q0 -16 11 -34t7 -36q10 14 1 34t-19 36z M979 1183q2 -3 2 -9l6 12v-4v4q-10 0 -8 -3zM987 1358q0 -8 2 -8q2 -2 4 0q4 6 7.5 8t3.5 8q-4 8 -8.5 3t-8.5 -11zM987 1413h6l-6 8v-8zM993 178h11q-4 2 -7 2q-4 0 -4 -2zM993 391l4 -2h-2v-2q0 -4 2 -4h7q0 2 -3 4q-4 4 -8 4zM993 416h4v-8l-4 8l4 -8v8v2h-2q-2 0 -2 -2z M993 1182q2 -4 4 -6t2 -3.5t-2 1.5l7 8q-1 4 -11 4v-4zM993 1274l4 2h-4v-2zM993 1395q0 -6 1 -12.5t10 -6.5v6q-4 4 -3.5 8.5t-7.5 4.5zM997 424q4 -12 9.5 -7t15.5 -1v18q0 -8 -8 -8l-10 12v-4zM997 -516q2 -4 4 -6q4 -4 -4 -4h7v-6q-1 12 -7 16zM997 727q4 0 11.5 2 t13.5 2l-8 33q6 0 10 5t8 -5q0 -12 8.5 -22.5t1.5 -24.5q6 0 7.5 -3t3.5 -3q0 12 -5.5 16t-5.5 8q6 6 9.5 4t7.5 4q0 4 -8.5 5.5t-8.5 5.5v-4q0 -2 -4 -2v8q0 12 -6 14t-10 2q-25 -23 -25 -45zM997 918q4 0 5.5 -4.5t5.5 -4.5v2l6 7q0 6 -6.5 3t-10.5 -3zM1007 1182 q3 -2 7 -8q6 0 4 4t4 8q-6 0 -8 4t-6 4q-4 -10 -1 -12zM1008 1276l110 18q-31 -2 -57.5 -7t-52.5 -11zM1008 1393h6q-4 -12 4 -19.5t4 -15.5h4v10q4 10 -4 19.5t10 15.5q4 0 8 -1t11 -7v8q-23 19 -43 -8v-2zM1014 918l12 -9q10 0 5 5.5t-5 11.5zM1022 389q4 0 8 1t8 -1 q-4 0 -5 1t-5 1h-6v-2zM1022 434l10 -8q0 -2 -3 -1t-3 -1q0 2 3 -2t3 2q0 8 5 4t1 -2q-2 -2 -4 0q-2 0 -2 8h6q-4 4 -6 2t-6 2v-4h-4zM1026 287h6h-6zM1026 1194q0 -6 1 -13t5 -7v8q0 4 -6 12zM1032 926q4 -6 3 -11.5t7 -5.5q0 -2 2 -4q0 -2 1.5 -5t-3.5 -5l9 -6v6q6 4 3 -1 t-3 -9q6 -4 15 -2t19 2v4q2 6 11 6v-6h-9v-4q8 4 19.5 4h23.5v6q4 -4 10.5 -2t18.5 2q16 4 30.5 6t33.5 10q-12 4 -5 6.5t7 8.5l-2 -8v8q0 4 0 2t2 -2v4q0 -4 4 0t8 0v-19q16 4 37.5 6.5t38.5 8.5q10 4 19 2t11 2q10 0 21.5 3t15.5 3q0 4 2 8t-2 8h11q0 -4 -2.5 -8t2.5 -8 q6 4 18 4q8 -4 10 4t6 8h-16q0 4 10 4q4 -4 6 6.5t11 2.5v6q6 -4 10 -2t8 2q8 -4 8 -9.5v-9.5q6 -4 8.5 0t8.5 0l2 19l-11 4l-4 4q-4 4 -2 6l-2 8q-10 0 -4 -4t4 -6h-8q-6 0 -6 -8q-16 0 -16 18q-6 0 -7 -4v-4q2 0 2 -2q0 -4 -2 -8q-4 0 -5 5t-5 5h-6q4 -2 5 -9t5 -11 q-8 0 -10 9t-6 11q-6 0 -12 -2q4 0 5 -4t1 -8q-6 0 -8 6q-2 2 -3 6q-12 2 -7 -3t1 -9q-4 0 -10 12h-10l10 -18q-6 0 -10 4q-2 2 -2 6q-4 0 -6 3t-9 -3q0 -8 8.5 -10t6.5 -13q-4 -2 -8 -2q-6 0 -7 2v-12h-2q-4 10 -7 22.5t-19 8.5q0 -10 10 -13.5t10 -9.5h-10q-10 0 -10 8 q-2 0 -3 7.5t-5 7.5q-10 0 -3 -4t3 -11q-10 0 -10.5 7.5t-6.5 7.5h-4q-4 0 -4 -6q6 0 7 -4.5t1 -8.5h-8v4q0 8 -10 9q0 -6 2 -7.5t-2 -5.5h-4q0 4 -2 10.5t-13 2.5q0 -10 3.5 -14.5t3.5 -10.5q-4 0 -6.5 4t-3.5 9t-4 7.5t-9 -4.5q6 -4 6 -8q-10 0 -9 2t-3 6h-8q2 -4 4 -7 t-2 -9q-2 0 -3 6t-8 10h-4q-4 0 -4 -4t7.5 -9t0.5 -13l-8 -4l17 -8q-8 0 -13 4q-4 2 -4 4v-15q-2 0 -2 2q-4 4 -6 5q-16 6 -10 15t-2 19q-10 0 -10 -4q4 -6 7 -13t3 -17q-8 10 -11.5 22t-13.5 8v-12q6 0 12.5 -1t2.5 -9v-4q0 -4 -7 -4v8q-8 4 -10 8t-6 14q-14 4 -8 -5 t-2 -13q-2 0 -3 5t-5 5q-2 0 -2 2q-2 0 -3 -2q0 -4 2.5 -7t-2.5 -7q-6 0 -4 5t-4 9q-8 0 -8 -4q0 -2 2 -4q0 -2 1 -3t1 -3q-10 0 -12 3t-2 7q-4 0 -5 2t-3 -2q2 -4 5 -12.5t3 -12.5q-6 0 -8 10.5t-9 14.5q-12 0 -6 -6t4 -12q-10 0 -7 8t-9 4q0 -4 1 -8t-1 -4q-8 0 -6 6 t-10 6q-10 0 -3 -7.5t3 -11.5h-2q-8 4 -9 11q-2 2 0 4q-4 0 -5 2t-5 -2zM1036 1190q2 -4 6 -8h-4h4q6 0 4 2t5 2h-9q6 6 3 7t-7 1t-2 -4zM1038 776q4 4 8.5 4h6.5q12 -4 7 -10t9 -6q0 -12 8 -20.5t10 -12.5h9q0 4 -1 11.5t-10 11.5l2 2q0 -8 9 -8q16 0 17 9t5 19 q27 12 57.5 13.5t55.5 11.5l350 65l129 23l363 63q-6 10 1 9.5t3 9.5q0 10 -3.5 11t-9.5 1q-158 -33 -315.5 -57.5t-323.5 -53.5l-321 -55q-6 12 -18.5 6t-26.5 -6q8 -4 4 -10t-4 -8q-4 0 -5 1t-3 1q-10 -2 -11.5 -8.5t-1.5 -16.5zM1038 1386q4 -4 6.5 -18t14.5 -2 q-4 8 -6.5 17.5t-10.5 9.5zM1053 -4q12 -23 30.5 -25t38.5 -2q10 6 19.5 13.5t1.5 15.5q-6 23 -30 24.5t-42 -8.5q-18 0 -18 -18zM1053 1182l16 4q0 -2 2 -2t6 2q14 -4 30.5 1t33.5 -1q2 10 8 6t12 2l8 6v-6l5 4q4 4 6 2q4 4 8 2t10 2l8 -4q8 4 31 4q4 0 10 3t2 7q0 12 3 2 t8 -6q6 8 9 4t7 0q0 4 -2 3.5t-2 3.5v6q-4 -10 -6 -13.5t-13 0.5h7v13q-6 0 -11 -6q-4 4 -9 5t-9 5h6q-4 -4 -8 -2t-6 2q2 -12 -4.5 -6t-12.5 2q6 0 3 -1t-3 -5q-6 4 -11 0t-9 0h-6v-7q-14 4 -11.5 -2t-7.5 -2q-2 0 -4 3.5t2 7.5l-6 -11q-8 8 -13 2t-10 2q0 -4 -4 -2t-8 -2 q-10 4 -17 -3t-16 -7q-2 -2 -2 -4q-2 -2 -6 -2q0 4 -3 3t-3 3q-2 4 -8 0t-10 0q-4 -10 0 -18zM1057 838h2l45 6l311 51h-6l-311 -51q-8 10 -18.5 5t-20.5 -5l-2 -4v-2zM1059 -12q8 -8 18 -10.5t19 -8.5l-11 11q0 6 -3 12t3 6q8 6 14.5 3t14.5 -3q6 -2 5 -10t3 -11 q10 2 14.5 10.5t4.5 10.5q-4 10 -12.5 16t-14.5 0q-14 -2 -30.5 -5t-24.5 -21zM1059 1395q-4 -10 6 -13.5t20 -13.5q14 -2 29 8q4 8 -3 15.5t-7 21.5q-6 0 -4 9.5t-4 9.5q-8 0 -5 -6.5t-4 -12.5h-2q-6 0 -12 -1t-14 -9v-8zM1069 135q12 -16 30.5 -17t30.5 -3q4 2 16.5 12 t6.5 23q-10 16 -32 17t-36 -3q-6 -4 -15 -11.5t-1 -17.5zM1069 1393q2 -4 5 -5.5t3 -5.5h8q2 -4 7.5 -4t5.5 8q-2 4 -3.5 7.5t-7.5 9.5q-8 8 -10 0t-8 -10zM1075 135q0 -2 2 -2q14 -6 22.5 -9t18.5 9q-4 2 -12 -6t-8 6q6 2 16 2q4 0 10 -2t6 -8q8 0 15.5 7t7.5 18 q-16 10 -39 7.5t-37 -16.5q-2 -2 -2 -6zM1077 438l8 6q0 -2 -4 -2q-2 0 -4 2v-6zM1085 434h2l9 4q-11 0 -11 -4zM1087 -12q2 0 7 -4q0 -2 2 -4q2 6 6 4t12 4q0 6 -6 8t-12 2q-2 0 -4 -2q-4 -4 -5 -8zM1087 -270l9 -9h2h10t6 5h4h4q-4 -10 -7 -7.5t-11 2.5q0 -6 5 -11t5 -7 q4 2 10 1t11 1l-5 10v6l13 -16v13.5t-2 7.5v-5q-4 4 -8.5 2t-10.5 3q4 0 6 2l2 2q4 10 1 11t-9 1q-4 -2 -11 -2t-7 -10q0 8 -5 4t-12 -4zM1087 408l9 -2zM1087 1200l9 -6v6h-9zM1096 150q0 -8 2 -9q0 9 -2 9zM1103 145.5q3 -4.5 11 -4.5v9h-10q-4 0 -1 -4.5zM1104 406l10 2 h4h-14v-2zM1118 1395q10 -2 12.5 -10.5t12.5 -8.5q8 4 13 3t5 7q-2 0 -8 -4q-8 4 -13 5.5t-10 7.5q4 6 9.5 4t13.5 4q-8 8 -13 2t-10 8q4 6 8.5 4t8.5 -6t7 -8t7 0v10q-6 6 -13.5 10t-17.5 -2l-9 -9t-3 -17zM1122 1294h8h-8zM1130 408h11l-11 8v-8zM1130 1294h13h-8h-5z M1135 -111q-6 -14 8 -30q14 -6 36.5 -9.5t34.5 9.5q12 14 9 30q-17 13 -25 13q-14 4 -35.5 3t-27.5 -16zM1135 -258q4 -2 5 -7t3 -5v12q-2 2 -4 2t-4 -2zM1141 -123q2 -14 10 -16t10 -4q6 10 4 17t4 11q8 -4 16.5 -8t20.5 -18q0 8 9.5 14t7.5 12q-12 12 -32 13.5t-32 -2.5 q-25 -10 -18 -19zM1141 -170q0 -14 7 -24.5t13 -16.5v23l-2 22q-4 -4 -10 -4h-8zM1141 909l2 2zM1150 658.5q-5 -3.5 3 -7.5q4 4 10 5t6 6q-8 4 -10 4q-4 -4 -9 -7.5zM1153 -508q63 8 128 23.5t128 33.5q4 6 2 6.5t-6 -2t-9.5 -3t-9.5 3.5q-47 -16 -95 -26.5t-101 -25.5 q-8 -4 -19.5 -5t-17.5 -5zM1153 1294q0 6 3 4t3 5q-2 -2 -4 -3q-2 -2 -2 -6zM1159 1049q29 4 61.5 9t61.5 5q10 0 3 -4t-3 -4q6 0 14.5 1t1.5 11q27 10 54 10q-47 -8 -99.5 -13t-93.5 -15zM1161 635q0 -8 15 -8h-7l7 8q0 4 -7.5 4t-7.5 -4zM1174 912q-2 -3 2 -3q0 2 4 2 q-4 4 -6 1zM1175.5 -136q-4.5 3 0.5 -5q8 -4 22 0q-6 8 -10 9t-8 1q0 -8 -4.5 -5zM1176 -121v-10q0 6 2 4t2 4h-2q-2 0 -2 2zM1176 1083q8 -4 13 -7t17 1v13q0 4 5.5 8t11.5 4q2 -6 5 -10.5t3 -8.5q0 -2 8 -2q2 0 4 2q18 8 11 25.5t-11 30.5q-18 27 -20 47q-8 0 -13 4 q-4 2 -4 4q-6 -29 -18 -55.5t-12 -55.5zM1176 1413q4 -2 4 -10q-8 -6 0 -9t0 -8q6 -4 18 -4q-6 8 -7 15.5t-5 15.5q0 12 7 6t13 -6v17q-16 3 -30 -9q-4 -6 0 -8zM1180 23q8 -20 27.5 -22.5t35.5 -2.5q8 6 18.5 12t6.5 17q0 -10 -7.5 -12.5t-11.5 -2.5q-14 -4 -14 6.5 t-10 14.5q0 -4 3 -8.5t3 -10.5q-4 6 -7 9.5t-10 3.5v-13q-6 0 -8 6.5t-8 2.5q6 -6 8 -9.5t8 -7.5v-8q-12 6 -21 11t-13 14q27 33 73 22q-12 10 -27.5 10t-27.5 -4q-18 -10 -18 -28zM1180 1303h6h-6zM1186 -432q18 0 39 8q-14 0 -21.5 -2t-17.5 -6zM1186 606v4q0 -8 3 -2t9 2 q-6 0 -7 5t-5 1q-4 0 0 -3t0 -7zM1190 170q0 -18 16 -18q12 -8 27.5 -6.5t15.5 -12.5h4v2q4 10 15.5 14.5t7.5 14.5l-16 -12q-8 -2 -14.5 7t-20.5 1v-8q2 -2 8 4l4 4q6 0 6 -8h-6l6 -2h-20.5t-16.5 2q-10 8 -6 18q2 4 6 8q14 6 32.5 7t33.5 -3q-27 16 -66 4l-8 -4 q-8 -4 -8 -12zM1190 918h8h-8zM1190 952l8 -12h8q0 20 -16 12zM1203 591q-3 -5 3 -11h8q0 10 6.5 10t10.5 4q-4 0 -11.5 5t-13.5 1q0 -4 -3 -9zM1203 1141q-3 -8 3 -21q6 2 13.5 1t11.5 1q0 12 -5.5 22.5t-19.5 12.5q0 -8 -3 -16zM1206 -166q0 -8 4 -15t4 -14 q6 -12 15.5 -23t19.5 -30q14 -8 30.5 -9t33.5 -1q2 4 9 9t13 16v-9v-10q-29 -14 -33 -36.5t-4 -51.5q23 10 46.5 16.5t46.5 16.5q-16 25 -38 54.5t-38 57.5l-2 -12q-14 4 -27.5 7t-25.5 -3q-4 10 -11.5 19.5t-11.5 17.5l-6 -4v4h-25zM1214 1430q8 -12 10.5 -25.5t18.5 -18.5 v9q4 14 6 6t11 -8h4q4 0 4 2v43h-8q0 -4 2 -7.5t-9 -9.5q-8 0 -5 5.5t-5 5.5q-2 2 -4 2t-2 -2l-2 -2h2q-2 -10 -4 -11.5t-5 1.5t-6 7.5t-8 4.5v-2zM1223 9q0 -3 2 -3h6l-6 8q-2 -2 -2 -5zM1223 563q0 8 2 8h6l-6 4q-2 0 -2 -12zM1225 164q12 0 12 6q0 4 -2 4t-4 2q-4 0 -6 2 q-4 -14 0 -14zM1237 -12v-8l6 8h-6zM1237 559l12 -4l4 4q-4 4 -8 2t-8 -2zM1243 -233q8 -10 19.5 -14.5t19.5 -4.5q-4 4 2 11.5t6 9.5h-18q4 6 11 10t11 -2q0 -8 -2 -14.5t-2 -10.5q4 0 11.5 2t11.5 -2q10 0 12 8.5t2 16.5q-2 10 -12.5 11t-20.5 5q-14 -4 -30.5 -5 t-20.5 -21zM1243 926l6 4h-6v-4zM1253 563h7h-7zM1260 -76q-6 -12 8 -35q10 -8 29.5 -8t29.5 4t16.5 11.5t-0.5 17.5q0 8 -9 12t-19 8q-12 0 -27.5 2.5t-27.5 -12.5zM1260 -141q12 -23 30 -45q-6 16 -4 28.5t-4 26.5q-4 0 -7 -4t-7 4q0 -4 -4 -8q-2 -2 -4 -2zM1260 543 q6 2 9 1t7 -1q0 2 -2 7t-6 5v-10h-8v-2zM1268 -98q4 -10 13 -13.5t13 -3.5l-4 4v2q0 4 4 5q4 -4 11.5 -4.5t7.5 4.5h-19q-4 0 -8 4t-4 8t4 5t8 1q4 6 11.5 5t9.5 -11q-6 -4 -11.5 0t-9.5 0q4 -4 9.5 -3t9.5 -3q10 0 11 -4t1 -9h2q10 4 13 12.5t3 12.5q-12 16 -30.5 15 t-30.5 -5q-14 -2 -14 -22zM1268 -270l4 -4zM1272 559q0 -4 10 -4q-6 4 -10 4zM1272 1430q4 -6 3 -12.5t7 -14.5q12 -12 25 -8q0 14 -6.5 12t-10.5 6q-6 0 -6 8.5t6 10.5q4 4 4 2t4 -2q6 -2 9.5 -11.5t-0.5 -17.5l4 -4l4 -4q10 6 6 13t6 13l14 -8q0 -8 6.5 -9t12.5 -1 q10 0 13 6t7 12q8 -14 25.5 -11t30.5 3l-11 43q-4 4 -8 13t-14 -3q10 -8 -1 -7t-11 -3q-12 0 -12.5 -10t-4.5 -14q-4 0 -4 10q-8 4 -12 8t-15 -2q-2 0 -2 -6h2q16 -4 17 -21q0 -8 -8 -8q-18 0 -14.5 12.5t-2.5 12.5t-7 -3t-3 -5q-16 12 -31 12q-14 4 -16 -3t-6 -9zM1276 526 q4 2 11 2h11q0 6 -2 10.5t2 4.5q-4 2 -4 7t-4 5l4 -12q-4 -4 -5 -1t-7 1q6 -4 -2 -6t-4 -11zM1282 1214h8q2 2 2 5q0 4 -2 8h-8q6 -4 3 -6t-3 -7zM1296 932q0 -4 2 -6q8 4 9 14l-9 -4q-2 -2 -2 -4zM1296 1221q0 6 2 6v4v-17q-2 2 -2 7zM1298 57q12 10 32 12.5t40 -1.5v4 q-14 6 -26.5 7t-28.5 1q-2 -6 -11.5 -10t-5.5 -13zM1298 -383v-4l289 72l398 112q-51 -10 -102.5 -22.5t-98.5 -26.5l-477 -127zM1298 508v6h9q4 0 3 3t3 9q-1 6 -15 -8l9 -4h-9q-4 -4 1.5 -5t-1.5 -1zM1307 195q4 -10 7 -13.5t13 -3.5q6 -6 16.5 -5t14.5 -13q2 0 7 -3t9 3 q-2 6 2 10t9.5 8t7.5 8t-2 13q4 -4 1 -10.5t-12 -6.5q-8 -14 -15 -5t-13 5q0 -18 -25 -4q-2 0 -8 3t-6 14q2 4 9 8t13 4v-8q4 -4 6 -10.5t11 -2.5q0 6 -5.5 10.5t-5.5 10.5q8 2 21.5 2h17.5q-8 6 -24.5 7t-28.5 1l-15 -9t-5 -13zM1307 537l6 -9q0 9 -6 9zM1313 33 q10 -4 25.5 -7t21.5 1q10 4 18 10t8 14q-8 -8 -26 -18q-2 10 -10.5 4t-14.5 4q4 4 6 2t2 2q-2 4 -6 1t-10 5q6 4 10 3t6 3q-2 4 -9 1t-9 -7l10 -18q-8 -4 -14 -2t-8 2zM1313 1221h2l-2 6v-6zM1313 1227v4v-4zM1315 508q10 -6 12 0t8 10q2 2 -2 6q-2 0 -6 2q0 -6 -6 -10 t-6 -8zM1315 1120l10 -8v8h-10zM1325 -141q-8 -14 5 -31.5t22 -30.5l6 8q0 -6 1 -9t1 -7q16 -10 29.5 -11t29.5 -1q20 0 29 16q4 -6 -1 -12t-11 -14l28 -41q0 -10 5.5 -12.5t12.5 -0.5t15 5t14 3q-16 29 -41.5 57.5t-37.5 61.5q-4 0 -3 -5t-4 -5q-29 6 -55 0l-29 39 q-4 8 -6 -2t-10 -8zM1325 1227l2 -6v10zM1335 324q12 14 27.5 16t28.5 2q-8 10 -20.5 7t-18.5 -3q-6 -4 -11.5 -8t-5.5 -14zM1335 975l6 -23v9q0 2 2 4q-2 4 -3 10t-5 0zM1341 508q0 -8 11 -8v8h-11zM1341 1227v4v-4zM1343 526l9 -8v8h-9zM1352 14q4 0 3 1t3 8q-6 0 -6 -5 v-4zM1358 -203q2 -6 13 -9t20 -3q10 6 4 10l-15 10q4 0 8.5 -4t8.5 -4l6 15h2q4 0 4 -7q-10 -12 1 -12t15 -4q18 0 19 16q-10 18 -29 17.5t-35 -8.5q-18 0 -22 -17zM1358 748q29 0 55.5 10t50.5 22q-29 -6 -55 -16t-51 -16zM1360 301q8 0 17 -1t14 -11h6q0 6 1 4t5 4h-6 q4 4 13 8t9 12q-25 -25 -59 -16zM1360 492h10v8h-10v-8zM1360 508h10v6h-10v-6zM1360 1122h10h-10zM1370 -51q0 -18 4 -25q16 -8 33.5 -11t36.5 1q8 6 12 13t-2 22q-8 14 -24.5 17t-32.5 1q-8 -4 -15.5 -6t-11.5 -12zM1370 1227q4 0 4 2v2h-4v8v-8v-4zM1374 -70 q10 -6 14.5 -7t14.5 -1q0 2 -6 6t-6 15q14 4 22 3t19 -12q0 -4 2 -7t-2 -5h4q6 2 12 6t6 15q-30 30 -63 10q-4 -4 -10.5 -11.5t-6.5 -11.5zM1374 -111q0 -10 9.5 -22t19.5 -25l-6 47q0 10 -9.5 5t-13.5 -5zM1374 315h6q4 2 1 1t-7 1v-2zM1374 496q0 -4 2 -7q2 -6 10 -6v9 q0 8 -12 8v-4zM1374 508q0 -8 12 -8v8q0 6 -12 6v-6zM1380 -242l6 -10v4q0 6 -4 6h-2zM1386 1083l29 7h-18zM1395 505q-2 -5 2 -5h6v6q0 8 -6 8q0 -4 -2 -9zM1396 1440q-3 -4 1 -8q0 -2 4 -9.5t8 -1.5q6 0 6 9q0 2 -1 10t-11 8q-4 -4 -7 -8zM1397 492q0 -10 7 -9.5t11 -3.5 v4q-6 9 -18 9zM1397 952q0 -4 3 0t3 0q4 10 -3 7t-3 -7zM1401 -213q0 -2 2 -2h16q-4 0 -8 2t-8 2zM1403 -66l12 -10q10 0 10 6q-4 4 -11 7t-11 -3zM1415 -303q8 0 18.5 1t14.5 5l-29 45q0 -14 -2 -26.5t-2 -24.5zM1415 496h10v4q-4 0 -5 4t-5 4v-12zM1419 86h6q27 18 70 12 q-12 6 -28.5 7t-30.5 -3q-4 0 -10.5 -3t-6.5 -13zM1419 479q2 -2 4 -2q6 0 9 2q0 4 -7 4h-6v-4zM1419 901h13q-4 0 -6.5 -2t-6.5 2zM1421 1239q0 -6 4 0v6q-4 0 -4 -6zM1425 217q8 -16 24.5 -17t29.5 -5v-13h10q-4 6 0 10.5t9 7.5t8 8t1 15v-6q-10 -10 -26 -10h-4q-2 0 2 2 q-14 0 -17 -2v-8q-6 -4 -10 -2t-8 2q-6 6 -12.5 10t-6.5 14q35 25 82 4q-14 12 -32.5 14.5t-38.5 -1.5l-9.5 -9.5t-1.5 -13.5zM1425 -565q4 -16 22.5 -23.5t31.5 -7.5q92 23 176 47.5t170 50.5q51 14 96 27.5t92 24.5q33 10 58.5 20t54.5 14q10 0 16 7.5t4 17.5q0 6 -8 15 t-20 5l-648 -182zM1425 1120q-4 -6 2 -10q4 -2 9 -2l-4 4q4 8 8 5t4 3h-19zM1432 61q12 -4 24 -5t23 -5v-6h2l-2 6q8 8 18 11.5t10 17.5q-6 -10 -11 -12t-15 -7q0 8 -7.5 7.5t-3.5 3.5q-8 18 -26 8q0 -8 10 -19q-8 -4 -15 0.5t-7 -0.5zM1432 500q0 -6 9 -4t13 -4q4 0 6 2 l2 2q-10 0 -15 5t-15 -1zM1432 901q12 0 22 4t16 4q-12 0 -20 -4t-18 -4zM1432 948q4 -8 4 -4v4q6 -6 10 -1t8 1q6 4 3 7.5t-3 9.5q0 -8 -6 -13l-2 4h-2q-8 -4 -12 -8zM1432 1090q12 0 27.5 2t29.5 2h-27.5t-29.5 -4zM1436 -104q0 -20 14 -38t20 -28l9 4q2 -16 19.5 -20 t29.5 -9q23 0 41 19q4 -14 -7.5 -21.5t-19.5 -13.5q0 -16 -4 -31.5t-4 -31.5l92 22q-8 23 -24.5 40t-32.5 42q0 10 -6 12q-12 12 -32 14.5t-36 0.5q-12 16 -20.5 29.5t-20.5 27.5zM1436 483q8 -4 18 -4q-6 4 -18 4zM1436 993l8 -10l4 2q0 8 -12 8zM1436 1239h8q0 4 -4 5 t-4 5v-10zM1444 1108q14 -14 19 -7t16 7q16 10 28.5 1t26.5 -15q6 -4 11 -11.5t-3 -15.5q8 -10 13.5 -22.5t17.5 -12.5q10 4 6 14.5t2 16.5q49 8 100.5 15t98.5 16l-193 -21q-10 4 -15 14.5t-16 20.5h7q-8 0 -17 12q8 0 13.5 1t9.5 -1q4 2 11 3t7 5q-4 6 -9 7.5t-9 1.5v-9 q-10 6 -9 0t-4 -6q-4 -2 -7 2t-7 4q0 8 10 9h-18q-14 23 -22.5 39t-22.5 38q-6 0 -13.5 -2t-11.5 -2q-8 -18 -9 -40.5t-1 -47.5l10 -2q4 -10 -6 -9t-14 -3zM1448 72h6q2 -2 4 0q2 0 6 8q-2 0 -7 -1t-9 -7zM1448 223q-4 -4 2 -6t12 -8q0 10 2 9t6 -1q0 8 -4 7t-4 3 q-6 0 -8 -2t-6 -2zM1448 1245v4v-4zM1454 1245h8h-8zM1462 61h8l-8 7v-7zM1462 362q12 6 25.5 8.5t23.5 8.5q-12 0 -29.5 1.5t-19.5 -18.5zM1462 479q0 -6 8 -6q0 6 -4 6h-4zM1464 1157q10 0 18.5 1t16.5 7q0 6 -6 15.5t-12 19.5q-2 4 -7.5 -2t-9.5 -12q4 -10 1 -16.5 t-1 -12.5zM1464 1245v4q0 2 2 2q2 -2 4 -2v8h-6q4 0 1 -4t-1 -8zM1470 -469v-6q10 0 19 6q8 -4 19.5 -1t25.5 7l338 96q0 4 6 1t6 4h17q12 10 24 11t21 9q27 0 47 8t37 12l8 7h-13q-18 -12 -40.5 -15.5t-45.5 -11.5q-8 0 -14 -5t-16 -1q-8 -4 -25 -4v-10q-8 0 -9 4t-3 -4 h-10t-15 -5q-92 -25 -185 -48t-192 -54zM1470 496h9l-9 12v-12zM1470 999q6 -4 4.5 -10t4.5 -4q2 6 -0.5 12t-8.5 2zM1470 1245v4v-4zM1479 1137q8 -6 13 -3t15 3q-6 2 -10 3t-8 7zM1479 1257h2h-2q2 2 1 -3t1 -9l8 4v-4l-8 4q2 -2 4 0q4 0 4 8l6 -12q4 0 8 5t4 -1h4 q12 -4 9.5 2t7.5 9q4 -2 8 -3.5t-2 -7.5q10 0 6 4t2 7q0 -8 5 -4t5 1q4 2 8.5 1t8.5 -1q-6 3 -6 17l-7 -8h7q-4 0 -5.5 -4.5t-5.5 -1.5v6h-6l-2 2l-2 -2q-10 0 -12 -3t-6 -3t-5 -1.5t1 -1.5h4l-8 -8v8h-5q0 2 -4 3q-6 -2 -10 1t-8 -4h-8q0 -6 0 -3t-2 3zM1481 -166 q6 -16 18 -19t25 -3q-10 0 -16.5 7t-0.5 15v2q0 4 4 4t13.5 -1t9.5 -5q-4 -4 -8 0t-10 0l-5 -4q4 -4 8.5 -10t8.5 -6t6 6t8 10v-4q0 -2 4 -2q0 -4 -1 -6t-1 -4l-2 -2h4v2q8 0 15.5 9t7.5 17q-4 2 -8.5 3t-8.5 7q-41 10 -71 -16zM1481 360q6 -4 10 -11t4 -11h-6l6 -6 q-4 -10 6 -10t15 -5q6 4 7 12.5t5 12.5q-4 0 -11.5 -2t-17.5 2h8q-10 4 -13 12t-13 6zM1481 473q4 0 6 2q0 2 2 4h-8v-6zM1481 952h14q-6 2 -6 9v4zM1481 983q6 0 4 -8t4 -4zM1481 999l14 -14h4q-4 6 -6 12t-12 2zM1489 -76h2q4 0 4 6l-6 -6q4 -16 12 -26.5t15 -20.5 q6 6 3 10t-3 9v28q-6 0 -13.5 4t-7.5 -4h-6zM1489 508q4 -6 3 -11t7 -1q0 4 -3 5t-7 7zM1495 -33q4 -10 13.5 -14t19.5 -4q-4 4 -8 9t-9 11q10 0 15.5 3t15.5 -3q0 -2 -7 -1t-11 -1q4 -4 8 -3t10 -3l-8 -8q0 -14 10 -7t19 7q4 0 10 7t0 9q-4 14 -12.5 16.5t-18.5 2.5 q-14 -6 -28.5 -8.5t-18.5 -12.5zM1495 -39q12 -14 31.5 -19t36.5 1q8 4 15 13t3 21q-14 14 -34 17.5t-36 1.5q-10 -6 -15 -14.5t-1 -20.5zM1499 -207l8 -8v4q4 4 -2 4h-6zM1499 999l8 -14h4l5 -10l8 10q4 -2 2 -9t-2 -11h4q-4 6 6 18q10 -6 9 2t3 8q-4 4 -5 10.5t-7 6.5 q-4 -4 1 -8.5t-1 -8.5q-8 0 -8 7.5t-10 3.5q0 -4 3 -8.5t-3 -10.5q-4 6 -4.5 10t-4.5 9h-4q-4 0 -4 -5zM1507 1257l4 3h-4v-3zM1524 479h4h-4zM1528 500q2 -2 4 0q2 0 10 8h-8q-2 -2 -4 -2q-4 -4 -2 -6zM1531 108.5q5 -6.5 11 -6.5q0 4 3 8.5t7 4.5q0 2 -3 -2t-7 4 q8 6 12.5 4t14.5 4q10 0 24.5 -1t14.5 -9q-1 2 -17 18q-14 0 -30.5 -1t-26.5 -15q-8 -2 -3 -8.5zM1534 98q10 -10 24.5 -12t28.5 -6q-4 -6 -3 -7t-3 -5h10v4h-4q4 10 16.5 14t12.5 16q-6 -4 -12.5 -8t-12.5 -4q-8 -8 -13 0t-9 12l4 4q-16 0 -21 -4q8 4 12.5 -4t8.5 -8 q-8 -8 -18.5 -5t-20.5 13zM1534 244q10 -16 27.5 -19.5l37.5 -7.5q6 8 15.5 14.5t3.5 20.5q0 -10 -10 -19q-6 -12 -13.5 -1.5t-21.5 8.5q-6 0 -6 -7q0 -4 2 -6q-10 -4 -14.5 -1t-8.5 7q-6 8 0 19q12 8 30.5 11t31.5 -9q-6 12 -23 15t-33 1q-4 -6 -13 -12t-5 -14zM1534 -424 h8l604 166q-10 8 -12 19.5t-8 23.5l-4 12q-25 -4 -47.5 -9t-44.5 -11l-347 -99l-141 -40q0 -16 -6 -30t-2 -32zM1534 965h8q0 10 -8 10v-10zM1542 492q0 -8 2 -9q0 -2 2 0q8 6 13.5 1t13.5 -1q0 6 -3 7.5t-7 5.5q0 -10 -6.5 -5t-14.5 1zM1546 426h10q45 10 86 20t76 33 q-43 -6 -87 -22.5t-85 -30.5zM1546 500q6 0 6 8q-2 -2 -4 -2q-4 -4 -2 -6zM1546 983q16 0 23 2q10 0 21.5 3t17.5 -3q0 -2 -4.5 -1t-4.5 -1v-8q12 -2 14.5 0t-0.5 5t-6 8t1 11l-9 19q-14 2 -8 -4t0 -10q-4 0 -5 4t-5 10l-8 -8l4 -4q4 -4 4 -7q-10 0 -11 6.5t-1 12.5 q-12 -6 -4 -14.5t4 -18.5q-10 6 -11.5 13.5t-5.5 11.5l-6 -6q8 -4 4 -8.5t-4 -12.5zM1552 -76q0 -27 16.5 -44t30.5 -38q0 6 -3 11.5t3 5.5l9 -9q8 -8 24.5 -10t28.5 -6q8 4 15 7t12 9q4 6 2 16.5t-7 12.5q-16 8 -38.5 10t-36.5 -10q-12 12 -18.5 25.5t-16.5 29.5 q-8 0 -10.5 -5t-10.5 -5zM1552 244q20 0 21 8q-4 0 -10.5 -1t-10.5 -7zM1556 975l7 -4v4h-7zM1563 379q8 -14 20 -19.5t25 -5.5q2 -2 4 -2q2 -2 4 -2t2 -4q6 10 17.5 15.5t9.5 21.5l-9 8q-14 6 -27.5 9t-27.5 -1q-6 0 -14 -6t-4 -14zM1569 379q4 -12 12 -15.5t18 -3.5 q-12 2 -12 19q4 0 8 -1t4 -7q0 8 9 12q6 -4 11 -9t-1 -12h-19v-2q14 0 24.5 3.5t21.5 15.5q6 0 -9 10q-4 2 -12 2h-16q-12 -2 -25.5 -2t-13.5 -10zM1569 -508q4 -6 9 -4t13 -4q18 6 13 18.5t-5 22.5q-6 0 -3 -6.5t3 -10.5t-4 -8l-8 -8q-10 4 -8 10t2 11h-8q0 -4 -2 -10.5 t-2 -10.5zM1569 508l4 6h-4v-6zM1573 971q10 0 12 3l6 9h-18v-12zM1581 227h6q0 4 -6 2t0 -2zM1581 514q0 -2 8 -2q2 0 2 2q-2 8 -6 4zM1587 98h12h-12zM1587 492h4v4h-4v-4zM1591 1112h8q0 6 -1 3t-7 -3zM1599 -33q0 -25 10.5 -37t22.5 -28q6 35 -6 59q-6 0 -9 3t-9 -3v6 q-6 2 -7.5 -1t-1.5 1zM1599 -141q12 -12 21.5 -15.5t24.5 -3.5l-27 19q10 8 15 -0.5t12 -8.5l2 19q10 0 6 -10.5t0 -16.5q0 -2 4 -1t8 1t13.5 8.5t4.5 18.5q-4 8 -15 11t-23 -1q-14 0 -26.5 -3t-19.5 -17zM1599 496h9h-9zM1599 518h9q0 8 -4.5 7t-4.5 -7zM1608 -4 q8 -20 26.5 -24.5t36.5 -4.5q10 2 17.5 9.5t17.5 19.5q0 -20 10 -35.5t21 -30.5h8q0 16 -2 34t-19 32h-4h-10q-8 -12 -10 -3t-8 19q-10 8 -30 10t-36 -8q-18 0 -18 -18zM1608 -166l18 -22q4 14 -4 16t-14 6zM1608 496h8v4h-8v-4zM1608 1018l8 -14l2 6q-2 0 -3 4t-7 6v-2z M1614 -484.5q4 -9.5 2 -19.5q8 0 6 6t4 11q4 0 6 -7.5t13 -3.5v29l-13 -10q-4 0 -6 2t-8 2q-8 0 -4 -9.5zM1616 -4q2 -14 12 -16.5t19 -2.5l-11 11q-4 0 -4 5t4 5q18 10 25.5 -1t17.5 -20l9 11q10 6 7 13t-7 11q-6 0 -15.5 1t-19.5 1q-6 -2 -20.5 -4t-16.5 -14zM1616 993h2 q0 6 -2 6v-6zM1618 528h8q0 6 -1 4.5t-7 4.5v-9zM1618 1020l8 -10v10h-8zM1624 508q-4 -2 2 -8q10 0 10 8q0 4 0 3t-4 3q-4 -4 -8 -6zM1632 1020l13 -2v-4q0 -2 1 -1t1 5q-2 2 -3.5 7t-11.5 -5zM1636 545q-4 -2 2.5 -5t8.5 -3v6h-7q-2 0 -4 2zM1645 -4v-12q0 -4 2 -4 q10 -4 18 0q-4 6 -11 4t-7 4l14 8q-12 4 -16 0zM1645 125q14 -18 43 -19q0 -4 7 -4t-3 -4h14q-4 6 5 12.5t18 14.5q-1 10 -5 16l5 -8q-4 -12 -12.5 -15t-16.5 -3q-10 2 -11 10t-1 10q-4 4 -2 1t-3 -3q-10 -6 -14 -2t-8 2q8 -6 15 -5t12 -13q-12 -6 -21.5 -2t-21.5 12z M1645 141.5q0 -8.5 2 -8.5l14 17q14 0 28.5 1t28.5 -1q-14 8 -35.5 9t-35.5 -9q-2 0 -2 -8.5zM1645 514h2h6q8 0 0 4h-4q-4 0 -4 -4zM1645 817q0 -4 2 -10t6 -6v10q0 6 -8 6zM1647 287q0 -12 6 -19.5t15 -11.5t18.5 -7t13.5 -9q0 -2 8 -2q2 0 2 2q6 10 15.5 14t9.5 18 q-4 10 -11.5 13.5t-13.5 3.5q-16 6 -32.5 7t-30.5 -9zM1647 1028q-2 -8 10 -14t4 -15q0 -4 2 -9t2 -7q4 0 9 4t9 -2q12 -2 7.5 6t1.5 8l8 -14q4 0 2 7t-2 12q-6 0 -9 -4.5t-3 4.5q4 0 9 2t13 -2v6q6 0 10 3t9 -3q0 -4 -6.5 -5t-12.5 -1q0 -10 8 -11q10 0 17 6q0 8 8 8.5 t2 10.5q14 0 8 -7t0 -12h10q-6 8 -3 15.5t3 13.5q0 4 -1 10t-9 6v-6v-6q-8 0 -8 12q-10 0 -10 -6l4 -4q4 -4 -2 -6q-6 0 -5 9.5t-8 0.5q0 -4 2.5 -7t-2.5 -3q-4 0 -6 3t-8 7q-8 0 -1 -9t1 -11q-4 0 -5 5t-5 9q0 2 -4 2q-2 0 -4 -2q0 -4 3 -5t-3 -7q-4 0 -4 4t-5 8h-4 q0 -6 2 -8q0 -2 2 -4q-10 -2 -9 5t-9 3v-10q-10 0 -9 9t-9 1zM1653 -242q23 6 43 13.5t41 13.5q-6 10 -18.5 26.5t-26.5 28.5h-4q-4 -8 -13.5 -13t-13.5 -13q0 -12 -6 -26.5t-2 -29.5zM1653 270q6 -12 17 -14t18 -4q4 2 4 10h-9q-10 0 -12 7.5t-6 17.5q-4 -6 -8 -8.5 t-4 -8.5zM1653 -463v-29h8q14 0 18 10.5t0 22.5q-6 -4 -8 -2t-6 2q0 -4 6 -8t0 -8q0 -4 -3 -7t-7 3v16h-8zM1653 1475q0 -6 1 -12.5t11 -6.5q4 -6 11 -6t12 6q4 4 -5 19q-4 4 -14 4t-16 -4zM1671 -47q-14 -23 5.5 -40t29.5 -34q-2 2 -2 4q0 6 2 6q10 -16 27.5 -18t35.5 -2 q8 0 15.5 5t13.5 11q4 12 -14 29q-10 8 -32.5 8t-41.5 -8q-8 8 -14 20.5t-13 26.5q-4 0 -5 -6t-7 -2zM1679 287q6 -14 21 -17q4 -6 3 -12t7 -4q6 6 14.5 8t4.5 10q-8 12 -24 13.5t-26 1.5zM1679 408q10 6 25.5 4t24.5 4q-14 8 -29 6t-21 -14zM1679 555h4q0 4 -2 4t-2 -4z M1683 528h5v4q-1 5 -5 5v-9zM1688 -479q10 -6 9 1t9 -1q0 4 5 2t-1 2q0 4 -3 2t-7 -2v6q6 6 6 10q-2 -2 -4 -2t-2 2t4 6q2 0 6 2q0 5 -4 5q-16 0 -17 -12.5t-1 -20.5zM1692 383q10 -4 20 -12.5t23 -8.5q0 6 9 14.5t9 12.5l-8 -6q-6 0 -11 -2t-10 2q0 6 3.5 4t7.5 2v2 q-7 8 -17 8q-6 0 -13 -5t-13 -3q-4 -2 2 -3t6 -5h-8zM1692 543q0 -6 8 -6zM1692 571l8 -8v8q0 2 -4 2q-2 0 -4 -2zM1700 125h6h-6zM1703 544q-1 -1 3 -1q0 -2 2 -2t2 2q6 0 6 1t-6 1h-4q-2 0 -3 -1zM1706 580l12 -5q0 4 -6 7.5t-6 -2.5zM1718 -111q4 -8 12.5 -10t14.5 -2 q0 2 -7 6t-3 13h20q6 0 8 -5.5t11 -5.5v-8h6q4 2 10 6t0 13q-8 14 -23.5 15t-31.5 -3q-4 0 -13.5 -4t-3.5 -15zM1718 -141l17 -19q2 12 -3.5 14.5t-13.5 4.5zM1723.5 36q-3.5 -9 0.5 -13q8 -18 25.5 -22.5t34.5 -2.5q10 6 15 10t9 6q8 -14 21.5 -30.5t25.5 -22.5 q8 25 -12 53q-4 14 -15 8t-20 1q-8 23 -29 27.5t-44 -5.5q-8 0 -11.5 -9zM1724 14q8 -6 15.5 -7t15.5 -1q-2 4 -9 7t-1 14q6 0 7 -3.5t3 -9.5l4 4q4 4 10 5q-6 0 -6 10q8 -4 14.5 -12.5t6.5 -14.5q4 4 13 7t5 14q-10 14 -26.5 16t-30.5 -2q-8 -6 -14.5 -11t-6.5 -16z M1724 -446v-29h5v6q0 4 3 5t5 5v-10q16 0 16 6q-2 0 -4 2q-4 4 -4 10h-10h-2v2l2 3q0 4 -3.5 2t-7.5 -2zM1724 545q4 0 5.5 7t5.5 7q-4 4 -9.5 -1t-1.5 -13zM1724 1122q4 0 11 6h-6q-10 0 -5 -6zM1735 -442q6 -10 18 -4q0 10 -8 7t-10 -3zM1735 1018q0 -8 10 -8zM1737 -111 l8 -4q10 0 10 4q-2 4 -7 2t-11 -2zM1745 571h8h-8zM1745 600v6v-6zM1753 -121v-2q2 0 7 1t9 1q-12 12 -16 0zM1755 152q10 -14 27.5 -14.5t25.5 -12.5q0 6 4.5 6t4.5 -6v4q0 4 2 4q4 6 15 13.5t5 17.5q-10 16 -28.5 19t-36.5 -1q-14 -4 -17.5 -12t-1.5 -18zM1755 -442 q6 -4 8 -10.5t6 -6.5q10 0 11 17q-8 0 -11.5 4t-13.5 -4zM1761 581q4 -1 8 -6v5q0 2 -4 6q-2 0 -2 2q-6 -6 -2 -7zM1763 8q0 -2 6 -2q4 -6 5.5 -3t5.5 3q-9 8 -17 6v-4zM1763 152q4 -2 11.5 -6.5t15.5 -4.5q-4 6 -10 7.5t-11 3.5h11q0 10 3 9t7 -5t7 -8.5t5 2.5q0 2 -5 6 t1 8q4 0 11.5 -7t7.5 -16h8q4 6 9 9.5t5 13.5q-10 14 -27.5 13t-31.5 -7q-16 0 -17 -18zM1763 -211q20 4 41 11t43 12q-14 14 -24.5 28.5t-24.5 28.5q-10 -10 -21.5 -16.5t-7.5 -22.5q0 -14 -3 -24.5t-3 -16.5zM1763 307q-4 -14 2.5 -19t15.5 -8.5t19 -8.5t17 -17 q6 12 18 21.5t8 25.5q-14 12 -39 15t-41 -9zM1763 616l4 -4q2 -2 7 -2v6q-4 4 -5.5 2t-5.5 -2zM1763 1044q4 -10 8.5 -9t8.5 -7q-4 4 -6.5 14t-10.5 2zM1769 289q4 -10 29 -10q-4 2 -4 4q-2 2 4 6q16 0 27 -10q4 0 9 6t9 12q-10 14 -28.5 12t-34.5 -2q-4 0 -9.5 -4t-1.5 -14 zM1769 1004q4 -4 10.5 -2t10.5 2q0 4 -3 6t-3 8h6q-4 2 3 3t-3 7v-8h-10l2 -2h-2l-11 2q0 -2 5 -2q0 -8 -5 -14zM1779 -24.5q1 -12.5 1 -22.5q14 -23 29.5 -43.5t33.5 -40.5q4 16 -8 19t-16 14q-2 4 -2 12t2 10q8 -16 24.5 -22t28.5 -6q23 0 35 12q2 20 -6 26 q-20 10 -41 15.5t-35 -15.5q-23 25 -35 54q-12 0 -11 -12.5zM1780 594h4q-2 2 -2 4v2h-2v-6zM1780 1049l4 -17q6 0 6 2v4q-4 0 -3 5.5t-7 5.5zM1784 301q0 -4 6 -4h8q-8 4 -14 4zM1784 438l45 6q-4 7 -27 7q-4 0 -11 -4.5t-7 -8.5zM1784 -451q4 -6 5 -0.5t1 9.5q12 14 12 18 h-4q0 -14 -12 -17t-2 -10zM1790 424q6 -14 18.5 -17.5t16.5 -15.5h4q2 0 4 -1t6 1q0 6 5 11.5t11 13.5q-10 -8 -22 -8h-25q8 6 16.5 7t18.5 1v8v2q-14 0 -26.5 -1t-26.5 -1zM1798 610h4v6h-4v-6zM1798 1044q14 -10 10 -18t0 -16h9q-4 2 -5 4q-4 4 5 4q2 8 5 4t7 -12 q14 0 18 8v2l-4 4q-4 4 0 8h4h17v-4h-2q-2 0 -2 -4q0 -2 2 -4q0 -2 2 -2q0 2 -1 3t1 7l8 -8h12h4q4 0 2 4t2 4l9 -8q0 12 6 12v-4h10v16q-8 4 -9 11.5t-7 11.5h-9q0 -4 3 -5t-3 -7q-4 0 -4 4t-4 8q-10 0 -3 -6t3 -6q-8 0 -9 4t-3 4q-8 4 -5 -3t-3 -11q-2 0 -2 14 q-10 0 -4 -10.5t4 -14.5q-10 4 -12.5 11.5t-6.5 13.5q-10 0 -5 -7t5 -12q-8 0 -12 5q-2 2 -2 6h-10q0 -4 5 -5t1 -6q-4 0 -8 11h-9q0 -4 3.5 -8.5t-3.5 -8.5q-6 2 -6 9v2h-4v-5zM1802 279l6 8q0 2 -3 0t-3 -8zM1808 -424v-4q8 0 10.5 6t6.5 6v-8q4 -6 -1 -12t-5 -10 q10 0 20 4q-8 10 -4 15t-6 15q-8 0 -21 -12zM1808 -446h9h-9zM1817 635h2q0 4 0 2t-2 -2zM1825 -78q-4 -4 4 -14q8 0 14 -3t12 -3q-6 4 -9 12t-3 10q16 0 29 -10q-10 10 -8 16q6 -4 13 -11t7 -11q-10 -4 -16 1t-13 5l7 -6q2 -10 9 -8t17 2q18 8 19 22q-14 14 -35 15t-33 -9 q-10 -4 -14 -8zM1829 51q10 -23 30.5 -25.5t41.5 1.5q6 0 13 9t3 21q-8 10 -29 15.5t-41 -0.5q-6 -4 -12 -8.5t-6 -12.5zM1839 45q6 -10 15.5 -11t17.5 -1l-8 8q6 0 9 -6t11 -2q0 10 -6 15t-4 9q8 0 9 -6t5 -10q4 0 5 -6t8 -2q4 0 10 7t6 11q-12 12 -30 15t-32 -5 q-16 0 -16 -16zM1839 700v9v-9zM1839 985h4h-4zM1843 -424q4 -6 9.5 -11t9.5 3q8 4 9 13t1 13q-12 0 -22.5 -2t-6.5 -16zM1847 1020h8v8h-8v-8zM1853.5 -418q-4.5 -6 1.5 -10q6 0 7.5 6t-0.5 10q-4 0 -8.5 -6zM1860 838.5q-2 -17.5 2 -37.5q2 0 3 5t7 5l2 55q-2 4 -6 5t-6 1 q0 -16 -2 -33.5zM1862 731l2 -4v4h-2zM1864 199q0 -4 1 -8.5t7 -8.5v4q10 16 30.5 17.5t36.5 -4.5q-14 14 -35.5 16t-39.5 -16zM1864 1032q6 -10 13 -3t11 3v6q-4 0 -10 -3t-14 -3zM1872 -186l90 26q-8 14 -22.5 32t-30.5 30l-8 -13q-23 -8 -25 -30.5t-4 -44.5zM1873 328 q-1 -6 1 -11q8 18 28.5 19.5t36.5 1.5q12 -12 13 -21q0 -8 -6.5 -10t-10.5 -6q-10 10 -21 14t-22 17q0 -6 4.5 -8t4.5 -7q6 0 4 -2t2 -8q0 -6 -4 -6h-2q4 -4 13 -5t15 -9q4 8 15.5 14t7.5 23q-10 16 -34 21t-44 -7q0 -4 -1 -10zM1874 170q10 -4 21.5 -6t13.5 -12q6 0 10 -1 t10 1q0 14 12.5 17t4.5 13q0 -4 -3.5 -5t-7.5 -7q-20 -8 -24 4t-10 12q-6 -4 1 -7t7 -9q-6 -4 -16.5 -2t-18.5 2zM1874 754h10q0 2 -10 2v-2zM1880 -406.5q4 -11.5 4 -17.5q4 -4 7 -2t10 2q8 10 6 25q-2 0 -4 2q-4 0 -7.5 1t-7.5 1q-12 0 -8 -11.5zM1884 307l8 -6zM1888 -20 q16 -23 35 -42.5t39 -41.5q2 10 -1 15t-8 7t-10.5 5t-7.5 11q-4 6 -2 10.5t2 8.5l17 -19q29 -18 67 -4q0 10 3 14.5t3 8.5q-10 18 -24 22.5t-33 4.5q-10 0 -17 -5.5t-16 -7.5q-10 8 -19 20.5t-15 24.5h-9q0 -10 -2 -15t-2 -17zM1888 -416h4q8 4 9 10l-9 7q-4 -6 -4 -17z M1888 748q4 -4 8.5 -5.5t4.5 -7.5q4 10 -2.5 9.5t-10.5 3.5zM1892 772q2 0 6 -4q0 -2 3 -4zM1892 817q0 -4 5.5 -10t9.5 -6q8 12 6 23.5t4 19.5q-6 4 -9 8t-7 4q-6 -10 -7.5 -18.5t-1.5 -20.5zM1906 774q-3 2 1 -2h2l8 -8q0 8 -8 12q0 -4 -3 -2zM1907 1073q0 -14 10 -14 t4 -15h8q-6 4 -9 16.5t-13 12.5zM1909 307h8q0 2 -4 2q-2 -2 -4 -2zM1917 799q0 -4 3 -3t9 -3q0 6 -6 7t-6 -1zM1921 1028q0 4 3 7t-3 3v-10zM1921 1073q0 -4 4 -8t4 -10l6 8q0 4 -2 9t-12 1zM1929 51l27 -37q-9 21 -17 37q-2 2 -6 2q-2 0 -4 -2zM1935 1028q12 0 7 6t4 10 l-11 5v-21zM1935 1073q4 -8 10.5 -11t6.5 -13q0 -4 2 0t2 -5h-4v-12q12 4 23.5 6t21.5 6l-4 5l-8 -5q-4 0 -2 2.5t-3 2.5q10 10 21.5 12t23.5 2q0 4 3.5 6t9.5 -2q4 -4 11 -2t11 -2q0 4 6.5 2t6.5 2q-10 4 -13.5 15.5t-13.5 11.5q-2 -6 2 -9.5t8 -4.5t6 -4t-2 -9 q-4 8 -11 10t-7 13q-4 4 -5 2t-7 -2l8 -7v-6q-6 0 -7 4t-6 9q-12 0 -7 -6.5t1 -6.5q-6 0 -6 13q-4 -4 -5 -3.5t-7 -3.5q6 0 9 -3t-1 -7q-6 0 -7 5t-5 5l-2 2q-2 0 -2 -2q4 -4 6 -10t-2 -10q-4 4 -5 10t-7 10q-12 0 -6 -6t1 -10q-8 0 -8 4q-2 2 0 6q-4 0 -5 2t-5 -2 q12 0 6 -10q-4 0 -6 3t-6 7h-4v-10q-4 -4 -5 1t-1 9q-4 0 -5.5 -2t-5.5 -2zM1939 -51q10 -4 14.5 -9.5t14.5 -9.5l-16 23q8 0 15 -5t13 -5q0 4 -3 8t3 10h5q16 -16 16 -27q-4 0 -4 5.5t-4 9.5v-19q6 4 14 6.5t12 12.5q4 4 1 9t-7 9q-12 8 -24.5 5t-26.5 -3q-14 -2 -23 -20z M1946 80q4 -16 18 -20.5t33 -8.5q16 0 33 17q6 -4 0.5 -11.5t-0.5 -11.5q10 -10 19 -20.5t15 -12.5q6 16 -1 29.5t-17 26.5q-4 4 -7 2t-9 2q-8 23 -30 28.5t-38 1.5q-8 0 -12 -7t-4 -15zM1950 1512.5q-2 -7.5 2 -11.5q16 0 10 4q0 10 -1 16.5t-9 0.5q0 -2 -2 -9.5zM1952 80 q0 -10 8 -14.5t12 -4.5q0 4 -5 8.5t-5 10.5q4 4 8 -2t10 -6q0 6 1 12t12 2q-4 -6 -2 -10t6 -5t8 -3t4 -7q16 0 16 19q-10 14 -22.5 16t-30.5 2q-8 0 -14 -7t-6 -11zM1956 -379l6 -4zM1956 -395v-11q10 4 17 3.5t12 7.5q-10 6 -14.5 -1t-14.5 1zM1962 1055l10 -11l8 11h-18z M1962 1413q0 -2 2 -6q4 -8 4 -12q10 -20 27.5 -11t34.5 9q-4 8 -5.5 15t-5.5 13q-16 0 -29.5 -4t-27.5 -4zM1972 -66l4 -4q6 -6 9 0zM1972 207l13 -8l-5 8h-8zM1972 219q0 -2 8 -2q10 12 27.5 11t34.5 -1h-4q-2 0 -8 6q-12 4 -26.5 3.5t-31.5 -13.5q-2 -2 0 -4zM1972 360 q-2 -10 4 -15t13.5 -9t13.5 -8t6 -13h4q0 8 12 -8q4 0 13 8q0 12 11 15.5t7 11.5q-8 -4 -11 -7t-7 -3q-6 8 -15.5 6t-9.5 8q-4 0 -5 4t-7 4q14 -14 8 -22q-10 0 -17 1t-12 9q10 23 31 20.5t31 -2.5q-12 8 -33 11t-37 -11zM1980 -367v-4q4 4 4.5 2t0.5 2h-5zM1980 -383 q4 -10 5.5 -5t7.5 1v4h-13zM1980 1567l5 8h-5v-8zM1982 63q0 -2 3 -2q6 -4 9 -2t7 2q-4 0 -7 3.5t-9 3.5q-2 0 -3 -5zM1985 199q10 -10 20 -9.5t14 -11.5q4 0 8.5 -5t10.5 5q-4 6 0 9t9 6.5t8 6.5t1 9v-2q-16 -12 -26 -12v12q-4 8 -11.5 9t-17.5 1q-6 -6 -5 -12t5 -10 q-4 -6 -7 -1t-9 5zM1985 1366q0 -6 4 -7t8 -1v8l-4 2zM1992 -121.5q-5 -13.5 1 -28.5q12 0 27.5 5.5t35.5 13.5q-10 12 -21.5 21.5t-21.5 23.5q-10 6 -11 -2t-5 -4q0 -16 -5 -29.5zM1993 1319q6 -6 6 -16.5t10 -8.5q12 8 30.5 11.5t16.5 23.5l-10 8q-12 -10 -24.5 -11 t-28.5 -1v-6zM1995 -369q0 -2 2 -2h4q6 -6 3 -10t-3 -14h8q4 6 2 12t2 12q0 4 2 4h4v5q-4 0 -11 -2.5t-11 -2.5zM1997 6q25 -41 67 -82q6 18 -8 23.5t-18 19.5v6q0 2 4 7q0 -8 8 -13.5t14 -5.5q18 -6 30.5 -5t27.5 11q4 0 4 5v8q-6 20 -21.5 23t-27.5 3q-25 0 -39 -18 q-14 8 -20.5 22.5t-16.5 22.5zM1997 1368q0 -4 2 -6q0 -2 2 -4v8q0 2 -4 2zM2001 207q2 0 6 -4q0 -2 2 -4q4 0 7 -2t3 2q0 6 -6 11t-12 -3zM2001 1204q10 0 15 3t14 3q14 0 8 11h-19q2 8 9.5 9t13.5 1t11 1t3 13q0 10 -5 7t-9 -3q-12 -4 -23.5 -5t-17.5 -17q6 -10 1 -14.5 t-1 -8.5zM2001 1442q12 0 12 6h-6q-6 0 -6 -6zM2009 772q0 -14 3 -22.5t7 -18.5q8 0 10.5 2t12.5 2q-10 6 -13.5 21.5t-19.5 15.5zM2009 1044h10h-10zM2013 1366v2v-2zM2019 332h6v2q0 4 -6 4v-6zM2019 -383q8 -4 14.5 3t12.5 -3q-4 10 -3 20.5t-5 10.5zM2025 1055l5 -6 q4 0 6 2q0 2 2 4h-13zM2038 1395q6 -2 12 -6.5t6 -12.5t2 -8q0 -2 2 0q0 6 2 8t-2 6q4 4 10.5 2t10.5 2q-4 12 -16.5 20.5t-26.5 14.5v-26zM2046 -23q16 -16 43 -16v6q4 8 8 -1t6 1q23 0 19 13q-10 14 -25 16t-33 0q-4 0 -11 -5t-7 -14zM2056 98q12 -14 30.5 -16t35.5 -2 q4 4 10 9t2 17q-12 20 -31.5 23.5t-42.5 -4.5q-4 0 -4 -6v-13q4 0 5 5.5t12 5.5q12 6 30.5 1t30.5 -16q0 -4 -4 -8t-8 -4t-8.5 -4t-4.5 4q-12 -8 -21 0t-15 12q0 -4 4 -8t4 -8q-6 0 -13.5 6t-11.5 6zM2056 -379q12 -4 8 6.5t0 10.5q6 -4 9.5 -6.5t7.5 -2.5q6 6 0 15.5 t0 13.5h-4v-20q-4 0 -8.5 4t-8.5 -4zM2056 1227l4 -6q10 -4 20.5 -10.5t20.5 3.5q29 -4 51.5 10.5t49.5 14.5q20 -14 35.5 -4t35.5 10h-32q-8 4 -7.5 12.5t-5.5 8.5q2 8 5 9t3 9q-14 -6 -25.5 -4t-19.5 -6q-14 0 -23 -7t-20 -7q-23 -10 -48 -16.5t-44 -16.5zM2060 1049 q4 0 4 6q-4 0 -4 -4v-2zM2060 1094q4 -4 5 -8.5t8 -8.5v13q0 2 -2 4q-5 4 -11 0zM2064 -12q6 -6 10.5 -9.5t14.5 -9.5q-10 6 -11.5 16.5t-13.5 2.5zM2064 -307q10 4 24.5 5t20.5 5q-12 0 -23.5 -3t-21.5 -7zM2064 1227l9 -6q4 0 2 1t2 5q0 -6 2 -6h2v6h12q-4 4 -13.5 4 t-15.5 -4zM2073 1073l4 -6v6h-4zM2077 371q10 -18 24.5 -23.5t32.5 -5.5q10 4 19.5 7t9.5 22q-10 14 -28 17t-34 3q-6 -2 -15 -4t-9 -16zM2077 1358q0 -8 2 -8q0 -2 2 0v8h-4zM2079 242q2 -4 2 -9q31 -25 65 -24q2 6 9.5 11t7.5 13t-9.5 13.5t-13.5 7.5q-14 6 -31.5 6 t-27.5 -8q-4 -6 -2 -10zM2081 233q6 -4 13 -7t9 1l-2 6q-4 0 -4 3q-4 4 4 4q2 4 11.5 4t13.5 -4q10 -4 5 -8.5t-5 -8.5q10 0 20.5 2t10.5 15q0 4 -5.5 8t-11.5 4q-14 0 -31.5 -1t-27.5 -18zM2081 362q16 -12 31.5 -10t33.5 2q2 4 6.5 6t4.5 11q-8 10 -20.5 11t-18.5 1 q-10 -4 -20.5 -4t-16.5 -17zM2089 -121q23 4 42 8t36 15q-8 16 -19.5 26.5t-25.5 24.5q-4 -4 -9.5 -11.5t-11.5 -7.5q0 -16 -6 -29.5t-6 -25.5zM2089 936q0 -2 2 -2q8 0 10 2q-6 4 -4 10t-8 10v-20zM2089 985q0 -8 7 -12t13 -8q0 -6 -4 -9.5t-2 -7.5v4q4 10 11.5 5t11.5 -5 q0 -4 5 -8t9 -4q0 -4 3 -5t3 -5q0 -2 11 6q-6 10 -9.5 12t-7.5 8h6q12 0 19.5 -10t7.5 -20q23 4 36 16t27 29q4 10 17.5 11t27.5 3v8q-6 4 -18 -1t-22 1q10 8 22 9.5t23 1.5v6q-2 8 -7.5 9t-11.5 0t-13 -3t-13 2q-23 -10 -52.5 -15.5t-54.5 -9.5v-8l-12 -2q4 0 4 -4t-4 -4 q-8 -8 -19 0q4 8 -3 8t-11 2zM2093 -345q6 -11 0 -22h10q14 0 14.5 12.5t0.5 14.5h-15q-16 6 -10 -5zM2100 -347q3 -7 3 -15q4 8 5 12t1 8q-12 2 -9 -5zM2101 23l66 -70q10 18 -4.5 23.5t-16.5 19.5v6t2 4q0 -10 15 -10q14 -12 26.5 -15.5t28.5 -0.5q8 6 15.5 13t2.5 19 q-4 8 -12 12.5t-14 8.5q-10 6 -20.5 2t-16.5 10h-10q0 -4 2 -5t2 -7q-16 0 -21 -21q-16 10 -21.5 23.5t-15.5 25.5q-8 -23 -8 -38zM2109 233h9q0 -4 0 -2t4 2h-13zM2109 1010q6 -8 12.5 -7t12.5 -4v21q0 10 -4 9t-8 -1q-10 0 -8 -6t-5 -12zM2118 360v2v-2zM2118 827 q0 -12 9 -11t19 1v4q-2 0 -4 2q-4 4 -8 4q-6 0 -9 2t-7 -2zM2122 -362q10 0 12 7t6 7l6 -4q2 2 2 4q0 4 -1 8t-1 14q-16 0 -18 -13t-6 -23zM2122 965q4 -8 18 -9q4 0 2 5.5t-2 9.5t-4 2t-10 2v-2q0 -4 -4 -8zM2140 911q8 0 17 7h-17v-7zM2140 1466h6v-2q2 0 2 2q-2 0 -5 3 t-3 -3zM2146 885q-4 -10 2 -15.5t0 -13.5h9q-6 8 2 11t4 14q-4 6 -9.5 5t-7.5 -1zM2157 12q8 -25 34 -24q2 6 4.5 6t4.5 -2t6 -5t8 1q4 6 10 9t6 9q-16 21 -45 21q-10 0 -19 -3.5t-9 -11.5zM2157 141q0 -4 1 -11t5 -13q8 -2 16 -3t12 -12h4q4 4 9.5 2t9.5 -2t5 2t9 2 q6 0 11.5 10.5t1.5 18.5q-4 10 -14.5 12.5t-16.5 4.5q-31 14 -53 -11zM2157 -331q4 -9 0 -11q8 -4 9 -2t1 4q4 0 6 -1t8 -1q0 8 4 12t0 8q-4 -4 -9 -2t-9 2q-14 0 -10 -9zM2163 133q8 -12 17 -15t22 -3l-7 2q10 6 13.5 2t9.5 -4v2l10 -2q2 2 7.5 7t0.5 11q-6 12 -18.5 14.5 t-26.5 2.5q-8 -6 -18 -8.5t-10 -8.5zM2167 -203l24 8q14 -6 20.5 -18t16.5 -20q14 0 26.5 6t26.5 12q12 2 17.5 7t8.5 11.5t7 13.5t15 13q37 10 71.5 21.5t75.5 25.5q-6 6 0 17.5t0 27.5q-14 16 -30.5 32.5t-35.5 33.5q-6 -14 -5 -26.5t-15 -12.5l-57 49q-4 10 -5 1t-10 -3 q4 -20 -6 -30.5t-10 -31.5q16 6 23.5 10.5t19.5 4.5q23 -10 47.5 -7t42.5 7l33 -27q0 -27 -2 -33q-33 -10 -62.5 -21t-58.5 -18q-47 0 -89 -10t-83 -26zM2167 -326v-4q0 -2 6 -2q0 2 2 4q0 4 -2 6zM2173 12h12q-4 2 -5 1t-7 -1zM2184 265q-1 -5 7 -11v8q4 18 21.5 17.5 t28.5 -0.5q10 0 14 -5.5t8 -11.5q0 -6 -3 -9t-5 -9q-25 0 -27 8v-8q-18 -6 -37 8l4 -8q16 0 28.5 -9.5t31.5 -1.5q0 4 3 8.5t15 10.5q4 0 6 1t7 -1q0 -14 14 -21.5t22 -7.5t10.5 -8t12.5 -6v-2q-4 -10 -6 -21.5t-6 -21.5q-8 4 -16.5 9t-22.5 5q-10 0 -17.5 -2t-19.5 -12 q-2 -10 1 -13.5t15 -9.5q10 -6 32 -13t34 7q4 4 5 11.5t1 13.5q10 -8 20.5 -18.5t18.5 -16.5q-4 18 -12.5 37.5t-14.5 36.5q-6 6 1 9t9 9q4 4 5.5 13.5t1.5 13.5q23 -37 38 -79t37 -79h-8q-14 12 -35.5 13t-40.5 -9q-12 0 -16 -9t0 -13q18 -20 44 -29.5t48 -5.5q6 10 7 5 t6 -5q4 8 4 28q-4 31 -16.5 56.5t-22.5 52.5q-27 55 -52.5 110.5t-54.5 108.5q4 -14 10.5 -25.5t10.5 -21.5q10 -27 23.5 -49.5t17.5 -48.5q-14 18 -35 18q-20 6 -24.5 24.5t-14.5 30.5h-6l-8 -63q-4 0 -6.5 3t-2.5 -3q-27 33 -59 33q-6 0 -15.5 -2t-17.5 -13q0 -2 -1 -7z M2185 135q0 -2 3 -5t3 3q0 8 -6 2zM2185 399q4 0 8.5 4.5t8.5 2.5q-12 -6 -11.5 -11.5t7 -9.5t13.5 -9t7 -14q14 6 25.5 -2t13.5 11q0 10 2 15t-2 13v-8q0 -8 -10 -8q-6 6 0 8q-6 8 -17 8q-2 4 -7 0t-5 7q8 2 14 1t15 1q-8 0 -20.5 7t-24.5 1q-4 -6 -12.5 -5t-4.5 -12z M2191 -322q4 -4 1 -12t10 -6q12 -2 14 10.5t2 22.5q-6 0 -5 -10.5t-3 -14.5h-4q-4 0 -4 6v4h-11zM2191 496q0 -4 11 -4q-8 6 -1 12t1 14h-4q-3 0 -7 -4v-8q0 -6 4 -6zM2195 -92q25 4 42.5 10t39.5 12l-47 47q-10 0 -12 -5t-8 -5q0 -18 -9.5 -32.5t-5.5 -26.5zM2195 1120 q4 -10 9.5 -12t9.5 -6q-4 -10 5 -12.5t9 -6.5l-10 -6q14 0 28.5 4t30.5 9q-23 20 -20 32q-8 0 -13.5 2t-13.5 -2q4 -2 14.5 -3t10.5 -11q-6 4 -16.5 2t-20.5 2l10 10q-10 -2 -19 -1t-14 -1zM2202 389q8 -6 12 -6t11 -1t11 7q0 2 -8 2q-10 0 -13 7.5t-13 7.5q6 0 8 -7.5 t-8 -9.5zM2210 254q6 0 8 4t10 4q-8 -6 -11 1t-7 7v-16zM2210 690q4 -4 7 -2t11 2q-8 8 -1 8t3 11q0 6 -6 5t-10 3q-4 -8 -4 -27zM2212 499q-2 -3 2 -7l2 2q0 2 1 3t1 3v4q0 4 -4 4q0 -6 -2 -9zM2214 98q0 -6 2 -6t2 6h-4zM2214 680q4 0 9 -3t5 3q6 0 9.5 6t-1.5 10 q-4 0 -8 -6t-14 -6v-4zM2214 1456q12 -6 11 -19.5t16 -6.5q0 8 -11 8q0 8 6.5 14t10.5 14q-2 2 -2 7q0 6 10 6q0 6 -5 12t-9 10q-4 -4 -4.5 -10t-0.5 -12q-4 -4 -11 -9.5t-11 -13.5zM2218 45q10 -16 26.5 -33.5t32.5 -31.5q6 20 -8 25t-14 18q-6 8 -14.5 17t-22.5 5z M2218 1108l10 -14q6 -4 13.5 -4h13.5q0 14 -13.5 14t-23.5 4zM2241 799q4 -4 11 -15.5t21 -11.5q-8 6 -15 16.5t-17 10.5zM2257 33q31 -31 72 -21q8 2 12 9.5t4 11.5q10 -4 17.5 -13.5t15.5 -13.5q0 16 -4 21q-23 10 -32.5 29.5t-29.5 29.5q-8 -10 -1 -15t11 -14 q-8 0 -23 4.5t-22 -0.5v11q-4 0 -5 6t-9 2q-6 -6 -2 -12.5t12 -6.5q-12 -8 -14 -13t-2 -15zM2263 33q10 -8 18.5 -13.5t18.5 -5.5l2 13q8 0 13 -6.5t14 -6.5l7 10.5t3 8.5q-8 18 -29 18h-37q-8 -4 -9 -8t-1 -10zM2263 152q16 -16 37 -17q0 18 7 9t15 -9q4 4 10.5 6t6.5 11 q-8 14 -26.5 16t-35.5 2q-4 -4 -9 -6t-5 -12zM2263 455q10 -8 15.5 -18.5t15.5 -12.5l-8 14q-4 10 -8.5 22.5t-14.5 -5.5zM2273 827q6 0 7 6.5t1 10.5q-6 0 -7 -6.5t-1 -10.5zM2281 164q-4 -14 5 -14q6 0 15 1t-1 9q0 8 -7.5 6t-11.5 -2zM2286 41q0 -8 4 -8q2 -2 4 0 q0 6 -4 9t-4 -1zM2286 1032q6 -10 8 -17t6 -11q2 4 8 2t10 -2v16q-9 22 -32 12zM2286 1382h8v4h-8v-4zM2294 217l6 -10q2 -6 6 -3t-4 5q0 8 -8 8zM2294 244q4 -4 3 -4t3 0q2 10 11 8t18 4q8 0 16 -7t20 -18q0 4 1 6.5t1 6.5l-2 12q-20 2 -38.5 1t-32.5 -9zM2294 -248l8 -4 q16 6 16 10q0 6 -4 3t-12 -3q-2 0 -3 -3t-5 -3zM2300 983h12q6 0 6 10h-18l2 -8zM2322 956q4 0 7.5 8.5t3.5 18.5q-10 2 -10.5 -9.5t-0.5 -17.5zM2329 1137q-10 -23 4 -29q6 -6 24 -6q6 0 10.5 4t-0.5 14q-2 2 -7 9.5t-11 7.5q-4 -6 -2 -12.5t-2 -12.5v25h-10h-6zM2345 -188 q0 -14 10 -6t12 6v2q-18 0 -22 -2zM2345 1028q4 -6 13 -8t16 -2q-4 8 -11.5 12t-17.5 8v-10zM2357 68q8 0 10 4q12 6 23.5 7t28.5 1q4 -6 8 -12.5t8 -6.5q14 -4 7 -8t-11 -8h10q16 12 13 23q-4 4 -9.5 8t-9.5 4q-12 8 -30.5 7t-30.5 -1q-4 -4 -10.5 -9t-6.5 -9zM2476 -307 q8 0 10 -3t8 3q6 4 2 8t-10 2q-2 0 -6 -3t-4 -7z" />
<glyph unicode="?" horiz-adv-x="1069" d="M47 1096q-14 68 10.5 124t70.5 102t104.5 82.5t111.5 65.5q162 12 302 -15.5t247 -108.5q23 -18 32 -43t13 -52.5t6 -52t10.5 -42t25.5 -26t52 2.5q-33 -20 -51 -54.5t-30.5 -74t-25 -80.5t-32.5 -74q-27 -12 -61.5 -23.5t-72.5 -27t-77 -37t-72 -53.5l-51 -211 q-53 6 -76.5 25.5t-33 49t-9.5 68.5t-6 86q0 57 49 102t112.5 85t125 77t87.5 77t-2 86t-142 103l-17 -69q6 33 -8 60.5t-36.5 46t-50.5 23.5t-48 -7q-66 12 -124 -14.5t-87 -92.5q53 -53 53 -108.5t-53 -120.5q-35 0 -72 -1t-71.5 9t-62.5 34.5t-40 78.5zM344 231 q20 53 67.5 100.5t100.5 66t101.5 -4t68.5 -108.5q0 -47 -15.5 -73t-40 -43t-57 -29.5t-65.5 -30.5q-12 0 -43 4t-60.5 17t-49 36.5t-7.5 64.5z" />
<glyph unicode="@" horiz-adv-x="1482" d="M4 598l88 109q-14 25 -26.5 28.5t-24.5 3.5q-14 68 18.5 128.5t79.5 124t96.5 132t67.5 148.5q39 47 83 62.5t88 13.5t87 -10.5t83 -7.5t76 21.5t62 78.5l52 -107l71 72q51 -27 111.5 -47.5t119 -48t109.5 -71.5t84 -118q31 -31 36 -77t5 -91t6 -82t37 -51 q-39 -66 -69.5 -129.5t-60.5 -127t-61.5 -130t-70.5 -139.5l-35 53q-27 -20 -50.5 -41t-48 -35t-52 -15t-60.5 17q-23 45 -45 56.5t-45.5 4t-47.5 -24.5t-50.5 -29.5t-54 -13.5t-58.5 28h-143q16 0 28.5 19.5t24.5 33.5l-53 51q-53 -12 -68.5 -48t-7.5 -76t34.5 -75.5 t61.5 -48.5q53 -12 108.5 -28.5t112 -24.5t111.5 -3t107 38q-12 -20 -7 -33.5t18 -23t31.5 -16.5t32.5 -13q6 33 35 48t62.5 23.5t66.5 14.5t47 18l103 -86q-25 0 -55.5 3t-47.5 -21v-35q-106 4 -200.5 -7t-180.5 -23.5t-166.5 -17.5t-159.5 10t-159 60.5t-164 133.5 l-14 -17q4 35 -11.5 74t-36 78l-41 78t-26.5 75.5t6.5 70.5t57.5 65zM253 793.5q-1 -21.5 32 -33.5q-25 -96 -25 -189.5t25 -201.5h37q-20 59 -21.5 124.5t12 128t39 121t58.5 105.5q14 -16 22 -29.5t-4 -23.5q0 45 20.5 88t50 82t63.5 71.5t61 57.5q43 45 82.5 59t77.5 9 t75 -24.5t76 -41t79 -42t85 -28.5q4 35 -10.5 56.5t-39 37t-52 27.5t-49 28.5t-31 38t3.5 58.5q-39 -35 -73 -44t-68 -4t-68.5 19.5t-73.5 28.5l37 -70h-176q-53 0 -83 -37t-48.5 -85t-30.5 -95t-33 -67q6 -14 -8 -36t-27.5 -44.5t-14.5 -44zM532 633l91 -193q53 0 98 32 t75.5 80t46 104.5t9.5 103.5q-41 0 -51 19.5t-5 44t18 47t20 28.5q-14 29 -38 35t-53 18q-53 -94 -105 -166.5t-106 -152.5zM963.5 541.5q3.5 -29.5 18.5 -54t28.5 -39t1.5 -8.5q66 27 98.5 74t49 105.5t24.5 121t22 121.5h-55l-16 144q-27 -47 -38.5 -107.5t-20.5 -114 t-25.5 -87t-55.5 -27.5v-72q-35 -27 -31.5 -56.5z" />
<glyph unicode="A" horiz-adv-x="1482" d="M82 45q29 53 60.5 88t99.5 35q80 131 126 288.5t83.5 316.5t80.5 309.5t115 269.5q28 8 52 8q10 0 19 -1q32 -5 56.5 -21.5t46 -41t41.5 -49.5q0 -53 16.5 -113.5t69.5 -99.5q-39 -20 -39 -40.5t15.5 -42t32 -45t10.5 -50.5q6 -53 16 -109.5t30.5 -111.5t52.5 -103.5 t79 -82.5q-20 -20 -20.5 -48t7 -59t17.5 -62.5t10 -56.5q68 -29 123 -73t109 -70q-27 -53 -64 -74.5t-79 -25.5q-11 -1 -23 0q-32 0 -66 6q-47 10 -95 16q-32 4 -64 4q-16 0 -31 -1q-47 -3 -90 -30q-27 20 -33 45t-4 51.5t5 51t-3 45.5q12 14 23.5 16t20.5 4t19.5 8.5 t22.5 26.5q-51 92 -131 123t-187 31q-24 6 -41 6q-23 1 -35 -9q-22 -18 -35.5 -47.5t-28.5 -60t-54 -43.5l215 -178q-68 -18 -137.5 -33.5t-139.5 -19.5q-19 -1 -37 -1q-51 0 -102 8q-70 11 -135 46zM559 559q45 -26 78 -26q2 1 4 1q35 2 66.5 11.5t63.5 17.5q13 3 27 3 q21 0 46 -7q-14 18 -13.5 34.5t4 33t3.5 34t-15 37.5q-20 53 -34.5 113.5t-31 117t-37.5 103.5t-54 74l51 -37q-39 -47 -63 -103q-22 -57 -32 -115q-7 -44 -8 -86q0 -13 1 -27q3 -54 18 -93z" />
<glyph unicode="B" horiz-adv-x="1306" d="M62 92q-3 9 -3 19q1 11 5 21q8 20 24 41.5t29 49.5q33 -33 61 -33h4q30 2 55 24t44.5 54.5t31.5 59.5q5 89 5 181q0 31 -1 61q-2 124 -12 247t-25.5 241t-35.5 224q-20 0 -45 -4t-48.5 -4t-42 8t-26.5 33q-4 21 -4 37q0 28 14 38q22 14 59 12.5t78 -4.5h8q35 0 60 23 h201.5t221 -14t217 -50t191.5 -110q35 -81 38 -149q1 -15 0 -29q0 -53 -8 -103q-11 -64 -25.5 -123t-14.5 -118t24.5 -121.5t90.5 -134.5q-27 -365 -371 -440l-760 16q-33 27 -40 47zM432 480.5q0 -56.5 6 -114.5q3 -29 3 -55.5t-3 -52.5q39 -48 85 -60q40 -11 80 -10h13 q48 2 97 8q13 1 26 1q35 0 70 -11q106 14 174 91q57 65 57 169q0 20 -2 41q-18 66 -54 101t-83 50t-101 17q-36 1 -72 1h-36h-23q-40 0 -78 2q-48 4 -83 22q-47 -41 -61.5 -92t-14.5 -107.5zM453 976v-7q0 -31 15 -57q17 -30 77 -56q24 3 45 3t40 -3q38 -6 72 -10 q19 -2 38 -3q15 0 30 2q35 3 76 29q20 33 56 56.5t64 50.5t34 63q1 5 0 10q0 33 -33 85q-45 45 -116 73.5t-145 30.5h-10q-70 -1 -134 -27q-68 -28 -107 -94q8 -27 8 -52q0 -12 -2 -24q-6 -36 -8 -70z" />
<glyph unicode="C" horiz-adv-x="1130" d="M59 362q0 186 7.5 399.5t48.5 414.5q20 66 58 107.5t88 70t111.5 48.5t129.5 40q25 9 49 9q15 0 29 -3q38 -8 76 -24.5t75 -35t75 -26.5q20 -4 41 -4q18 0 36 3q39 7 78 42q-3 -30 -3 -60q0 -34 4 -66q7 -60 16 -119.5t16 -121.5q4 -33 4 -67q0 -30 -3 -60q-72 0 -120 40 t-87.5 95.5t-80.5 111.5t-101 91q-39 57 -86 61q-7 1 -14 0q-39 0 -76 -16q-43 -20 -77 -43.5t-46 -17.5q-59 -80 -85 -174q-24 -95 -32 -195q-4 -54 -5 -107q-1 -47 3 -93q6 -100 13 -193q27 -68 71 -118q46 -51 104 -77q54 -25 117 -24h9q68 2 141 41q27 59 62.5 116.5 t80.5 101.5t97.5 71.5t111.5 27.5q47 -32 53 -74q2 -14 3 -29q-1 -27 -9 -59q-12 -46 -29.5 -94.5t-17.5 -93.5q-41 -59 -94 -100t-114.5 -68t-126 -41t-123.5 -20q-35 -7 -66 -7q-58 0 -103 24q-69 38 -122 97.5t-96.5 123t-90.5 95.5z" />
<glyph unicode="D" horiz-adv-x="1329" d="M55 1298q-2 14 -2 25q-1 27 9 39q14 18 35.5 24.5t45 11.5t37.5 23q69 -10 146 -10h26q92 2 188 4h47q72 0 143 -4q95 -6 180 -34.5t156 -88.5t120 -166q-4 -21 -4 -45q0 -42 14 -91q22 -77 43 -160q21 -84 26 -166v-15q0 -74 -42 -141h-19q38 -39 38 -86q0 -8 -2 -18 q-9 -58 -50 -112.5t-101.5 -100.5t-113.5 -72q-27 -45 -72 -57.5t-95 -12.5t-96 1h-5q-43 0 -68 -17l-528 16q-26 47 -26 76q1 30 19 49q18 18 45 31.5t53.5 30t46 43t19.5 69.5q-7 68 -7 133q0 55 5 105q10 112 20 218q7 80 7 160q0 24 -1 50q-3 106 -42 221zM446 1122 q16 -72 16 -154q0 -12 1 -24q0 -71 -3 -147q-2 -53 -2 -106q0 -35 1 -71q2 -90 21.5 -169.5t64.5 -148.5t131 -116v54q20 -6 33.5 8t27 28.5t26.5 19.5t34 -22q80 45 127 121t69.5 163t28.5 179t6 172q-14 61 -50 122t-86 110t-110 79q-60 31 -120 34h-11q-55 0 -105 -26 q-56 -30 -100 -106z" />
<glyph unicode="E" horiz-adv-x="1394" d="M43 1309q8 61 35.5 80.5t67.5 22.5t87.5 3.5t94.5 20.5q126 -20 245 -20h5q122 0 244 0.5t244 -11.5t251 -57l33 -146l-127 -55q49 -23 66.5 -39t14 -31.5t-20.5 -32t-35 -36.5q-18 -22 -32 -48q-10 -20 -11 -47q0 -8 1 -16q-68 8 -100.5 34.5t-45.5 63.5q-11 32 -11 68 v11q2 42 4 82q1 16 1 31q0 22 -2 41q-4 32 -24 46q-14 10 -41 10q-11 0 -25 -2q-46 -6 -131 -43q-20 44 -42 44h-1q-24 -1 -47.5 -18.5t-46 -31.5t-43.5 6q0 -45 -21.5 -64.5t-49 -24.5t-55 -4t-39 -2t0 -17.5t60.5 -51.5h51q-4 -27 -18.5 -34t-33 -8t-36.5 1t-31.5 -5 t-16.5 -27q-1 -4 -1 -8q0 -20 12 -58l217 -109q-23 31 -20.5 54.5t16.5 43t33.5 36t31 33t7.5 36t-35 45.5l90 72l125 -174h-14q8 -27 8 -56q0 -15 -2 -30q-6 -45 -14 -89q-7 -39 -6 -74v-9q1 -39 28 -66h-35q-20 -33 -13 -60.5t15 -53t5 -50t-42 -51.5q-27 18 -44 51 t-32.5 70t-32 72t-43 57.5t-67.5 25.5h-8q-39 0 -94 -24q0 -35 -16.5 -54.5t-34 -38t-26.5 -42t3 -62.5q14 -20 38 -24t45.5 -10t34.5 -20.5t7 -57.5q-18 -12 -32.5 -3t-26 18t-22.5 10t-25 -25q0 -12 1 -27.5t6 -28t16 -21.5t32 -9h35l-109 -35l143 -127q32 46 63 46h1 q31 -1 61.5 -18.5t61.5 -32.5q13 -6 27 -6q18 0 38 11q63 -26 103 -26q7 1 14 1q43 6 65.5 33t32 70t15.5 88t14 86t29.5 65.5t62.5 24.5t113 -37q-29 -29 -53.5 -38t-40.5 -34l94 -106q-29 -14 -53.5 -18.5t-40.5 -16.5l108 -110q-141 -67 -293 -89q-139 -20 -278 -20h-26 q-154 2 -306 17.5t-293 21.5h-18q0 41 19.5 61.5t49 31.5t62.5 17.5t60.5 18.5t43.5 34q13 18 14 51q0 8 -1 17q-3 60 -3 122t3 125q5 94 5 187q0 31 -1 62q-2 123 -20.5 237.5t-72.5 217.5q-16 -4 -32 -4q-18 0 -34 4q-32 8 -62.5 23.5t-57.5 32.5t-47 30z" />
<glyph unicode="F" horiz-adv-x="1314" d="M53 61q4 41 21.5 60.5t41 28t51.5 11.5t56.5 11t53 27.5t42.5 58.5q-14 61 -14 128q0 19 1 38q5 88 17.5 179t22.5 181q7 60 7 117q0 29 -2 57q-5 84 -35.5 158t-100.5 131l-162 51l19 88q82 -6 163 -6q71 0 142 4q151 10 301 17q58 2 114 2q90 1 180 -5q144 -10 283 -63 q-6 -29 -15 -75t-15 -99q-7 -53 -9 -107q-1 -12 0 -22q0 -39 7 -69l-160 -35q-14 39 -15 84t-7.5 87t-28 76.5t-74.5 55.5q16 -14 14 -32.5t-13 -39t-25.5 -41t-17.5 -38t8 -30t52 -16.5q-31 -32 -40 -68q-7 -30 -7 -61v-14q2 -39 9.5 -80t7.5 -82t-12.5 -81t-47.5 -75 l54 -86q-12 -14 -34 -29.5t-46.5 -21.5t-50 -1t-46.5 34q6 30 6 67q-1 3 -1 6q0 40 -14 72q-12 32 -40 52q-21 15 -53 15q-10 0 -20 -1q-54 24 -83 24h-7q-29 -4 -38.5 -24.5t-6.5 -55.5q2 -34 4 -71q0 -6 1 -11q1 -30 -7 -58q-8 -32 -40 -50q-5 -25 -5 -47q1 -35 15 -61 q24 -40 66.5 -67.5t94 -45.5t95.5 -39.5t70 -50.5q19 -22 19 -56q0 -11 -2 -22q-100 -6 -193 -14q-94 -7 -185 -9q-14 0 -27 -1q-78 -1 -156 7q-92 8 -183 33zM496 1122q18 -23 20 -50.5t0 -57t-4 -56t6 -46.5q8 -22 30 -32q16 -8 48 -7q12 0 25 1l69 89l-53 36l125 140 q40 0 76 5q6 1 11 1q29 0 54 -23v70q-18 -5 -38 -5q-15 0 -31 3q-38 6 -76.5 16.5t-77.5 18.5q-24 5 -46 5q-14 0 -28 -2q-35 -5 -63.5 -28.5t-46.5 -77.5z" />
<glyph unicode="G" horiz-adv-x="1388" d="M50 774q18 152 76 296t138 265q61 53 121.5 75t120.5 25q14 1 27 1l95 -8q60 -11 122.5 -23t125.5 -19q31 -4 63 -4q34 0 69 4l67 -174q-25 -35 -40 -78.5t-15 -91t16.5 -91.5t57.5 -77q-26 -11 -52 -11l-30 3q-41 11 -78 36.5t-64.5 62t-42.5 69.5q12 26 12 49 q0 17 -6 31q-14 35 -45.5 59.5t-70.5 43t-66 30.5q-53 15 -96 15q-21 0 -40 -4q-56 -11 -96 -42.5t-68.5 -81t-54.5 -103.5t-50.5 -109.5t-55.5 -98.5q0 -68 7.5 -147.5t33 -157.5t75.5 -146.5t136 -113.5l174 -72l54 88q14 -12 25.5 -14t27.5 -2q27 20 27 38.5t-12.5 35 t-28 28t-21.5 17.5q6 -12 15.5 -14.5t20.5 0t24.5 4.5t27.5 -5q16 31 7 55.5t-29.5 46t-46 42t-40 44t-9 50.5t43.5 64q47 12 85 29.5t74 27.5q28 8 55 8q8 0 16 -1q35 -3 76 -30q12 6 16 19.5t4 28t-3 31t-3 28.5q10 -49 29.5 -71.5t46 -32t56.5 -10.5t60.5 -8t59.5 -26.5 t51 -62.5h-18q-63 0 -98 -24q-40 -29 -59.5 -76.5t-25.5 -108.5t-16 -123.5t-31.5 -120t-68.5 -96.5q-35 27 -66 37t-60.5 10t-60 -8t-63.5 -23v-32q-81 -21 -159 -21q-77 0 -151 20q-149 40 -258 158q-98 133 -128 285q-19 95 -19 189q0 57 7 114z" />
<glyph unicode="H" horiz-adv-x="1417" d="M45 1298q23 57 53.5 79t67.5 24h13q31 1 65 -7q41 -10 85 -16q20 -3 41 -3l47 4q44 7 89 42q41 -27 80 -46t80 -60q-20 -6 -43 -25.5t-47.5 -37t-52 -26.5t-54.5 5q14 -29 -1 -59q-14 -29 -32 -61q-21 -38 -21 -69q0 -30 36 -61l-33 -72q66 -39 135.5 -54t138 -15t138 11 t135.5 23q33 39 37 82q1 14 1 28q1 29 -5 59q-8 44 -20.5 86t-12.5 83q-20 6 -61.5 12.5t-79.5 23t-60 48.5q-14 19 -14 47q0 19 6 43l512 17l84 -88q-51 -31 -100.5 -84t-83.5 -117q-34 -63 -44 -131q-3 -18 -2 -36q0 -48 21 -91q19 -48 19 -104v-23q-4 -70 -14 -143 q-10 -74 -16 -146q-2 -20 -1 -39q1 -51 13 -97q18 -64 69 -113.5t157 -75.5q-4 -66 -26.5 -96.5t-54.5 -38.5q-15 -4 -32 -3q-19 1 -39 5q-40 8 -82 18t-81 15q-11 1 -22 1q-26 0 -48 -8q-20 20 -59 16t-77 -7q-9 -1 -18 -1q-27 0 -47 8q-28 10 -28 56q27 53 75 74.5 t93 41.5q46 19 72 53q16 20 15 56q0 25 -7 57q4 31 4 73q0 21 -1 45q-3 71 -27 131.5t-73 90.5q-23 14 -54 13q-35 0 -81 -17q-30 -35 -70 -40q-17 -2 -35 -2q-22 0 -45 4q-40 6 -78 16q-27 7 -48 7q-8 0 -16 -1q-26 -4 -40 -30q-8 -15 -8 -44q0 -21 4 -49q-4 -51 -4 -107 v-38q2 -78 26 -142q22 -65 72 -106q43 -36 115 -36q10 0 21 1q27 -32 27 -51q1 -4 -1 -8q-8 -20 -32.5 -31.5t-56.5 -25t-44 -40.5q-51 26 -118 26h-5q-70 -1 -137 -3h-24q-54 0 -102 7q-58 9 -89 56q59 39 100 94.5t69 119t46 131t31 135.5q-35 67 -42 141q-5 58 -5 115v33 q2 74 3 148v7q0 69 -18 129q-20 62 -71.5 110t-151.5 74z" />
<glyph unicode="I" horiz-adv-x="1062" d="M63 29q27 33 57 63.5t67.5 52t84.5 29.5q17 3 36 3q33 0 71 -9q19 92 27 198q7 94 7 192v26q-1 112 -10.5 223t-23.5 209q41 20 41 39.5t-14.5 41t-32 45t-11.5 50.5l-280 39v121q117 0 237.5 16t239.5 17h9q114 1 222 -25q112 -26 209 -113q-5 -27 -43 -34 q-34 -6 -76 -6h-12q-50 1 -102 2h-9q-45 0 -72 -9q-30 -10 -28 -40t60 -91q-53 27 -77 27t-31 -17.5t-4 -46t5 -59.5t-3 -58.5t-32 -40.5q31 -12 34 -29.5t-5 -34.5t-22.5 -35.5t-19.5 -34t7.5 -27t57.5 -15.5q-19 -47 -21 -94v-18q0 -38 8 -75q10 -46 27.5 -92t38.5 -91 q-53 0 -53 -54q23 -61 66.5 -87.5t93 -37t93.5 -13.5t66.5 -18.5t13 -51t-66.5 -111.5h-778z" />
<glyph unicode="J" horiz-adv-x="1220" d="M60 266q-4 22 -4 46q0 42 12 85q6 47 31.5 75t62.5 40t81 14h22q34 0 69 -4q39 -31 43 -70q1 -11 1 -21q0 -30 -8 -60q-12 -41 -27 -79q-13 -32 -13 -57q0 -5 1 -9q3 -29 33 -46q23 -13 80 -13q13 0 29 1q86 92 111 202q25 107 25 223v9q-1 121 -12 248q-5 61 -5 121 q0 67 6 133q0 14 -23.5 29.5t-58.5 30t-75 26.5t-72 20l-35 -51l-88 105q33 53 95 68.5t136 16.5t152.5 1t144.5 20q106 0 191.5 -21.5t179.5 -84.5q14 -10 14 -20q0 -5 -3 -10q-9 -15 -32.5 -29.5t-53.5 -27t-50 -18.5q-12 18 -30.5 23.5t-40 4.5t-43 -6t-40.5 -5 q-41 -12 -52 -32t-8 -42.5t12 -45t9 -42.5h-14q-26 -112 -26 -228q0 -14 1 -28q3 -131 6 -260q1 -27 1 -53q0 -102 -9 -201q-12 -125 -67 -236q-45 -47 -97.5 -63.5t-109.5 -16.5t-120.5 10.5t-131.5 18.5q-47 33 -90 80t-71.5 105.5t-38.5 123.5z" />
<glyph unicode="K" horiz-adv-x="1552" d="M63 109q27 -6 62 -5.5t66.5 12t56 35t31.5 62.5l34 987q-33 33 -69.5 42t-68.5 14.5t-52.5 16.5t-20.5 52q31 27 81 43q49 16 107 22q32 3 65 2q27 0 53 -2q60 -4 110.5 -18t86.5 -39.5t44 -62.5q-49 14 -86 14t-61 -14q-49 -29 -70.5 -85.5t-28 -126t-18.5 -122.5 l53 -178q39 8 66.5 32.5t49 57.5t39 70.5t38.5 70.5l18 -16l195 227q-27 14 -46.5 25.5t-31.5 29t-15 41.5q-1 8 -1 19q0 20 4 47q94 25 191 35q54 6 107 6q44 0 86 -4q96 -8 182.5 -35t160.5 -74q-41 -35 -92.5 -53t-108.5 -27.5t-114.5 -14.5t-110.5 -11l-318 -353 q27 -14 30 -30.5t-3 -34.5t-16.5 -37.5t-10.5 -40.5q53 -27 92 -73t73 -99t66.5 -108.5t73.5 -101.5t94.5 -76.5t129.5 -34.5q47 -33 61 -65t26.5 -55.5t36.5 -35.5q14 -7 44 -7q20 0 47 3q-91 -53 -187 -71q-72 -14 -143 -14q-23 0 -46 1q-93 6 -182 33.5t-169 68.5 q-12 33 -2 46.5t29.5 18.5t43 8t35.5 15q0 66 -26.5 134.5t-65.5 135t-86 129t-86 115.5q-66 -14 -102 -60q-34 -47 -48 -109q-10 -46 -10 -96q0 -18 1 -38q5 -72 18 -139q14 -6 38.5 -19.5t52 -30t55.5 -34.5t48 -37q-14 -43 -37.5 -69.5t-50.5 -38.5q-35 18 -79 19h-18 q-36 0 -74 -3l-96 -8q-16 -1 -32 -1q-31 0 -60 5q-44 8 -80 33.5t-59 79.5z" />
<glyph unicode="L" horiz-adv-x="1466" d="M41 1290q100 12 189 27.5t178.5 27t184.5 17.5q48 3 99.5 3t108.5 -3q-10 -53 -30.5 -100.5t-74.5 -61.5q-33 27 -60.5 30t-52 -5t-49 -21.5t-51.5 -19.5q8 -27 1 -51.5t-20 -48t-26.5 -44t-16.5 -40t10 -36t52 -28.5q-12 -27 -29.5 -52.5t-4.5 -52.5l34 -53l-69 -53 q27 -80 38 -163t25.5 -155.5t43 -129t87.5 -82.5q53 6 94 13t80 13t77 11.5t85 11.5q18 18 27.5 50t17.5 67.5t19.5 70.5t33 58.5t56.5 30.5q11 2 23 2q29 0 69 -11q27 -27 47 -54.5t41.5 -51t50.5 -38t74 -14.5q-6 -59 -17.5 -133t-39 -138.5t-81 -108.5t-145.5 -44 q-139 6 -264 17.5t-250 24t-253 20.5t-273 8q-10 33 -10 54q0 6 1 12q5 22 22.5 30t43 8t53 1t54 7.5t43.5 28.5q20 119 35.5 257.5t17.5 281.5v33q0 127 -14 249q-16 138 -54 257z" />
<glyph unicode="M" horiz-adv-x="1558" d="M31 96q4 28 45 47l18 -18q80 68 119 147.5t50 167.5q6 51 6 105q0 39 -3 79q-8 96 -18 195t-18 198q-2 33 -2 66q0 66 10 131l-144 93q12 53 36 74.5t52.5 24.5t61.5 -6q32 -8 66 -14q22 -4 43 -4q12 0 23 1q32 3 60 30l139 -360q-12 16 -16 6t-16 -23 q53 -66 70.5 -149.5t30.5 -170.5t39 -171t93 -152q-24 33 -24 56v7q4 26 21.5 47t43 39.5t41.5 39t17.5 44t-29.5 54.5q20 45 46 110.5t48.5 142.5t40.5 163t27 172q31 57 70.5 81.5t82.5 27.5q8 1 16 1q35 0 73 -11q46 -13 91 -27.5t87 -25.5q31 -8 59 -8q10 0 20 1 q-29 -27 -50 -50.5t-44.5 -42t-52.5 -32t-68 -19.5q18 -29 15.5 -41t-18 -24.5t-36 -28.5t-32.5 -49q12 -8 20 -17.5t14.5 -15.5t14.5 -8t22 4v-53q-14 14 -18 23.5t-19 -5.5l37 -162q-14 0 -18 8.5t-19 8.5q47 -52 47 -103q0 -8 -1 -14q-7 -58 -27.5 -112t-27.5 -108 q-1 -6 -1 -13q0 -48 47 -95q-35 -14 -39 -33.5t5.5 -41t21.5 -44t12 -42.5v-35h-18q-20 -14 -17 -26.5t16 -25t30.5 -21.5t23.5 -17l92 53q12 -20 18.5 -53t1.5 -62.5t-23 -49.5q-14 -15 -37 -14q-7 0 -15 1q-46 0 -108 -1h-13q-55 0 -109 8q-60 9 -110.5 30.5t-71.5 68.5 q82 20 115 60.5t45 91.5t14 113.5t23 130.5h37q-41 27 -46 63q-2 13 -2 26q0 24 6 50q8 41 24 83q15 39 15 78q0 45 -27 81q-26 36 -97 63l18 -160q-12 6 -25.5 22.5t-26.5 31t-27.5 17.5t-28.5 -18q0 -29 -4 -60.5t22 -45.5h72q-28 4 -49 4q-26 0 -40 -6q-26 -10 -32 -32.5 t1 -53.5q7 -32 10 -64q1 -9 1 -17q0 -23 -6 -46q-8 -31 -43 -53v-54h-20l-35 -374q-40 -10 -72 -10q-24 0 -42 6q-42 14 -63.5 51t-30.5 90t-15.5 110.5t-15.5 114.5t-32 103l-69 319h-53q20 35 27 59.5t6 43t-10 31.5t-23 28h18q20 20 17 29.5t-14 15.5t-24.5 15t-13.5 30 h-37q-10 -37 -10 -73q0 -15 2 -31q6 -52 14.5 -103t11.5 -101v-13q0 -44 -18 -91h37q-47 -35 -58 -88q-6 -31 -7 -63q0 -25 4 -49q8 -58 27.5 -115t33.5 -96q20 -20 49 -36t53 -34q22 -18 32 -44q3 -8 3 -18q0 -21 -14 -49q-41 -35 -79 -44q-26 -6 -53 -6q-11 0 -23 1 q-38 4 -76.5 15.5t-77.5 15.5q-12 1 -24 1l-54 -6q-39 -9 -78 -46q-6 14 -25.5 38.5t-30.5 53.5q-8 21 -8 42q0 7 1 15zM1077 999l37 -69v69h-37z" />
<glyph unicode="N" horiz-adv-x="1462" d="M54 78q0 16 6 32q6 18 18 31q33 6 68.5 20.5t65.5 36t52.5 51.5t28.5 68q-27 79 -29 173v47q0 71 4 144q6 97 10 193q1 19 0 38q0 76 -12 144q-14 85 -57 154.5t-131 114.5q-7 34 -7 52q0 15 4 19q9 12 30.5 8.5t48.5 -4.5t47 30q35 10 70 10q13 0 26 -1q49 -5 95 -21.5 t88 -41t77 -51.5l84 -106l-12 -19q39 -39 64.5 -93t49 -113.5t49 -121t66.5 -114.5l-39 -33l123 -70q-22 -25 -22 -54v-9q4 -34 45 -43q39 67 49 133q7 48 7 96q0 20 -1 40q-4 70 -13.5 144t-9.5 154q0 39 -22.5 60.5t-53 37t-64.5 27.5t-57.5 29.5t-29.5 47.5q-1 6 -1 14 q0 27 17 65q37 -7 81 -7q37 0 79 5q92 10 184 11h6q88 0 160 -24q74 -26 107 -112q-53 -12 -83 -29.5t-47.5 -42t-30.5 -58.5t-32 -79l52 -53q-39 -4 -52.5 -19.5t-13.5 -37t9 -46t12 -48t-5 -45t-38 -34.5q8 -8 22 -15t27.5 -16.5t20.5 -23.5t1 -35q-14 0 -26.5 11.5 t-24.5 25.5q-20 -14 -29.5 -30.5t-11.5 -35t-1 -38t1 -39.5l92 -19l-92 -104l127 -51q-27 0 -58.5 -13.5t-47.5 -40.5q39 -29 54 -50t12 -44.5t-21.5 -51.5t-44.5 -67l71 -32q-6 -20 -41 -52q-35 -33 -80 -51q-34 -14 -67 -13q-11 0 -22 1q-44 6 -70 59q-35 80 -60.5 141.5 t-52.5 117t-59.5 106.5t-77.5 110q0 55 -23.5 94.5t-48.5 74t-39 69.5q-6 15 -6 33q0 23 10 49q-18 14 -35.5 31.5t-36 33t-40 22.5t-47.5 1q31 -33 35.5 -63.5t-1.5 -61.5t-17 -61.5t-14 -62.5q-1 -6 -1 -11q0 -26 12 -52q14 -30 59 -61q-14 20 -27.5 17.5t-25.5 -16 t-22.5 -30t-16.5 -22.5q6 -12 11 -27.5t12.5 -31t18.5 -27.5t34 -18q-41 -27 -50.5 -47.5t-2 -37t27 -30.5t37 -28.5t25.5 -32t-4 -37.5q33 6 54 -12.5t39.5 -47.5t36 -58.5t46.5 -41.5l-619 -21q-20 8 -30 24q-12 18 -12 40z" />
<glyph unicode="O" horiz-adv-x="1112" d="M40 724v15q0 91 11 183q12 100 51 194q47 39 95.5 90t99.5 95.5t109 72.5q48 24 100 24q11 0 22 -1q53 -41 111.5 -55.5t115 -28t107.5 -36t90 -77.5q0 -66 15.5 -129t32.5 -125q16 -62 25 -126q4 -27 4 -56q0 -37 -7 -76q27 -41 34 -80q5 -30 5 -62v-19q-2 -42 -6 -85 q-2 -17 -2 -35q0 -26 4 -53q-12 6 -22.5 4t-20.5 -9t-20.5 -16t-22.5 -16q35 -23 43 -39t-1 -30.5t-26.5 -28.5t-34 -29.5t-23.5 -35t5 -45.5q-53 -41 -118.5 -76t-136.5 -54.5t-145 -20.5h-5q-71 0 -142 26q-66 18 -112 54t-80.5 82t-63.5 101t-61 115q-8 92 -18.5 190.5 t-11.5 197.5zM214 750v-7q0 -83 24 -169q26 -90 67 -176.5t82 -153.5q39 -31 94.5 -49.5t108.5 -20.5h11q46 0 84 14q42 16 56 56q-6 27 7.5 48t33 38.5t40 33t29.5 32t2 36t-42 45.5q12 12 26.5 31.5t28.5 19.5v320q-29 33 -50 84t-44.5 102t-51.5 93.5t-67 56.5 q-46 14 -83 14q-33 0 -60 -11q-57 -24 -99 -72t-76 -108.5t-73 -105.5q-47 -65 -48 -151z" />
<glyph unicode="P" horiz-adv-x="1271" d="M52 1312q14 14 41.5 16.5t59 8.5t44.5 39q42 -30 87 -30h9q49 4 99 12q44 7 88 7h10q48 -1 96 -40q32 -3 63 -3q41 0 83 5q72 8 142 9h9q65 0 125 -14q64 -15 125 -69q53 -33 68.5 -92t15.5 -127q-1 -69 -5 -142q-1 -17 -1 -33q0 -54 12 -101q-39 -53 -87.5 -90 t-101.5 -63.5t-109.5 -45t-109.5 -31.5q-27 12 -69 14q-30 2 -61 2h-25q-46 -1 -84.5 -2t-59.5 7q-6 -47 -15 -88t-15 -81q-4 -29 -4 -59q0 -11 1 -22q2 -41 15 -86q27 -6 53.5 -30.5t52.5 -42.5q28 -19 54 -20h1q26 0 52 40q0 -35 26.5 -62.5t45 -52.5t9 -49.5t-80.5 -48.5 q-54 -8 -112 -8q-33 0 -67 3q-94 7 -182 23.5t-164.5 37t-128.5 32.5q6 53 38 73.5t74 31t84 22.5t69 51q0 199 2 392.5t16 367.5q1 16 1 30q-1 53 -17 93q-22 51 -61.5 83.5t-92.5 50t-113 23.5q-12 26 -12 42q1 11 7 17zM481 989l51 -246q20 2 38 2q42 0 71 -10 q41 -13 78 -25q32 -10 66 -11q6 0 12 1q41 2 106 43q53 25 93 63t58 85q13 33 13 68q0 15 -2 31q-8 52 -53 106q-47 39 -91 48t-88.5 11t-92.5 8t-101 37q-6 -31 -24.5 -38t-38 -4t-37 8t-23.5 -1l-18 -176h-17z" />
<glyph unicode="Q" horiz-adv-x="1320" d="M51 303q6 68 8 152t7.5 168t16.5 159.5t38 130.5l-51 56q53 66 105 135.5t114.5 122.5t138.5 83q52 20 114 20q30 0 62 -5q74 -6 133.5 -37t109.5 -70.5t95 -84.5t92 -78q4 -32 4 -65q0 -22 -2 -46q-3 -38 -3 -73q0 -18 1 -35q2 -50 15.5 -86.5t54.5 -51.5 q0 -33 -15.5 -60.5t-25.5 -53t-5 -49t46 -50.5q-12 -29 -31.5 -72.5t-36 -94t-29 -101.5t-12.5 -90q-27 -47 -60.5 -78t-52.5 -59q-16 -21 -16 -47q0 -7 1 -13q5 -34 59 -90q49 8 70.5 29.5t28.5 48.5t8 55.5t8.5 53t29 43t70.5 24.5q14 -43 46 -75.5t58 -32.5l23 14 q-33 0 -46.5 -21.5t-17.5 -55.5q-3 -23 -3 -49q0 -13 1 -27q2 -42 5 -84q2 -25 2 -48q0 -15 -1 -29q-2 -36 -14 -59l-90 51q-12 -47 -34 -58q-20 -9 -42 -9h-8q-27 2 -55.5 7t-55.5 -7l-20 67q-33 -25 -54.5 -24.5t-40 11.5t-38 27.5t-45.5 22.5q3 18 3 34q0 27 -8 47 q-14 32 -40.5 51.5t-61.5 29.5t-67.5 17.5t-59 14.5t-35.5 21q-12 -20 -29.5 -4.5t-38 33.5t-44 22.5t-49.5 -34.5q2 9 2 18q0 31 -21 63q-26 42 -63 85t-71 90t-40 100h-37zM229 539q-2 -8 -2 -15q0 -18 11 -34q14 -21 27.5 -41.5t14.5 -41t-32 -47.5q27 -41 45 -41 t34.5 15.5t35 32t45.5 10.5q8 -6 17 -10.5t17.5 -9.5t13.5 -12t5 -21q0 61 21.5 78.5t56 10.5t80 -29t91.5 -36q40 -12 77 -12h11q42 2 74 41q27 -12 21 -28.5t-15.5 -32t-9.5 -28t41 -18.5q-5 24 -5 52q0 17 2 36q5 50 13.5 100t16.5 98t8 89h70q-53 18 -73.5 42t-25 50.5 t2 57t8.5 62.5v10q0 27 -8 55q-11 32 -46 63q-27 53 -70.5 84t-95 46t-106.5 16h-16q-46 0 -86 -5q-68 -47 -116 -116.5t-80 -149.5t-49 -164t-24 -157zM408 145q20 -6 45.5 -13t51 -11t47 -7t34.5 -3q-6 12 -7 33.5t-7.5 41t-19.5 33.5t-40 14z" />
<glyph unicode="R" horiz-adv-x="1343" d="M58 4q-3 8 -4 19q0 19 9 47l211 120l-34 971q-31 -27 -47.5 -26.5t-23.5 14.5t-12 34.5t-14.5 37t-27 22.5t-52.5 -12q27 86 90.5 115.5t144.5 31.5h22q71 0 147 -11q88 -13 162 -13q37 3 73 3q64 1 124 -9q92 -14 170.5 -54.5t141 -108t109.5 -167.5q0 -78 -40 -148.5 t-84 -137.5q-43 -68 -71 -136q-14 -36 -15 -73q0 -34 12 -68h-17q-17 -36 -17 -67q1 -11 3 -22q8 -40 32.5 -74t60.5 -65.5t71 -64.5t62.5 -69t35.5 -81q-32 -59 -68 -66q-13 -3 -27 -3q-23 0 -47 8q-38 13 -77 31q-27 13 -54 12l-24 -2q-45 45 -68.5 115.5t-41 147.5 t-38 148.5t-58.5 119.5q-39 49 -103 63q-17 4 -36 3q-56 0 -134 -30q-61 -4 -83 -19.5t-20 -37t16.5 -48t24 -55t3 -55.5t-47.5 -49l52 -74l-33 -31q39 -45 70.5 -56t59 -18t54.5 -25.5t59 -78.5q-37 -8 -73 -32q-35 -24 -69 -38q-23 -10 -45 -10q-10 0 -18 2q-30 6 -57 58 l-157 -15v-16q0 12 -16.5 13t-41 -2t-51.5 -5t-46 6.5t-27 30.5zM416 950q39 -30 47 -72q1 -7 1 -13q0 -33 -34 -56q26 -45 54 -59q22 -11 45 -11q5 0 9 1q26 3 54.5 15.5t57 21.5t58 7t60.5 -28q53 0 76.5 10t31 26.5t5.5 36t2 37t20.5 30.5t61.5 17q-8 33 -5 59t6 48 q2 14 2 27q0 10 -1 20q-2 25 -23 57q-47 33 -104.5 49.5t-115.5 20.5q-46 3 -92 3h-24q-58 -1 -104 -1q-6 -20 -33 -48t-43 -53.5t-9 -47t66 -29.5z" />
<glyph unicode="S" horiz-adv-x="1230" d="M51 214q2 62 12.5 127t18.5 131q3 24 3 46q0 40 -9 78q49 -8 72.5 -32.5t35 -56.5t15.5 -64.5t13 -58.5q10 -26 30 -41q16 -12 47 -12q8 0 18 1q20 -35 68.5 -62.5t100.5 -45t100 -19.5h10q41 0 59 16l-18 -14q27 -11 53 -11q18 0 35 5q43 12 82 43.5t71.5 74.5t59.5 84 q55 55 55 99q-1 9 -3 17q-14 50 -64 88t-115.5 65.5t-104.5 48.5l-69 -55q-14 53 -42 64t-59.5 8t-61.5 -6t-48 24v-35q-55 12 -104.5 46t-91.5 77t-74.5 89t-51.5 85q-22 39 -22 77v16q6 46 27.5 91t50 88t49.5 84q47 45 99 59.5t107.5 17.5t111 4t110.5 22 q57 -12 83.5 -34t46 -34t46 -8t86.5 43v-37q38 26 68 26q17 -1 32 -9q41 -24 69.5 -74t47 -106t33.5 -83q-14 -20 -13.5 -42.5t4 -45t3.5 -45t-15 -43.5l-51 53q-16 -41 -30.5 -75.5t-41.5 -49.5q-33 47 -56.5 83t-40.5 68t-31.5 62.5t-28.5 69.5q-47 53 -87 57q-15 1 -28 1 q-24 0 -45 -4q-33 -7 -58.5 -4t-46.5 57v-35q-29 14 -51 14q-10 0 -16 -2q-26 -8 -46 -23.5t-39.5 -26.5t-45.5 1q0 12 -6.5 16t-6.5 21q-14 -35 -55 -59.5t-73 -48.5q-37 -28 -37 -58q0 -28 55 -64l18 19l-18 -72q68 -41 148.5 -64.5t166.5 -39t174 -23.5t168 -14 q0 -35 11.5 -48.5t28 -15.5t34.5 0t31.5 -2t18.5 -20.5t-3 -55.5l141 -106l-53 -90q58 -18 66 -51q3 -11 3 -23q1 -22 -9 -44q-14 -34 -37 -60.5t-23 -32.5l-51 -53q27 -16 39 -40t12 -65q-8 -27 -22.5 -33t-31.5 -2t-32.5 12.5t-27 9.5t-14.5 -9.5t5 -44.5 q-119 -35 -225 -37h-20q-96 -1 -184 17q-98 20 -189.5 57.5t-177.5 82.5q0 -52 -35 -76q-25 -16 -58 -17q-14 0 -30 3q-25 49 -25 106v8z" />
<glyph unicode="T" horiz-adv-x="1292" d="M52 1026v16q0 67 8 139q8 81 14 173q137 26 265 28q30 0 59 1q98 0 193 -4q124 -5 250 -5h6q123 0 253 19q39 -14 68.5 -56.5t68.5 -68.5q-25 -41 -32 -78q-1 -6 -1 -11q0 -30 33 -55q-33 -18 -37 -58q-2 -23 -2 -49q0 -20 1 -41q3 -50 4 -104v-5q0 -50 -17 -95 q-18 -8 -38 -8q-15 0 -31 5q-36 11 -64.5 33.5t-43 53.5t-1.5 57q-7 23 -7 52q0 19 3 39q8 52 10 103v11q0 44 -14 78q-16 39 -78 51q-40 15 -73 15t-57 -14q-50 -28 -74 -85t-29 -127q-2 -32 -2 -59q0 -34 3 -64q27 -61 28 -148v-25q0 -75 -5 -154q-6 -92 -7 -182v-6 q0 -84 26 -150q26 -68 90 -105q47 -27 126 -27q28 0 60 3q31 -43 32.5 -67.5t-15.5 -36t-47 -15.5t-61.5 -6t-60.5 -9.5t-41 -23.5q-45 27 -101.5 27t-114.5 -10q-59 -9 -117 -18q-29 -4 -55 -4t-49 4q-46 9 -77 44t-35 115l266 102q14 119 16 237q1 65 2 131q0 53 -1 106 q-2 120 -3 244v28q0 111 7 229q-47 33 -88 40q-19 3 -38 3q-21 0 -41 -4q-38 -8 -76 -25.5t-77 -31.5q20 -20 21.5 -35t-8.5 -27t-28.5 -26.5t-39.5 -32.5q53 -41 63.5 -70t-2 -55.5t-33 -55t-28.5 -67.5l-53 -74q-41 74 -56.5 145.5t-16.5 145.5z" />
<glyph unicode="U" horiz-adv-x="1470" d="M59 1225q-2 15 -2 27q-1 36 13 50q18 18 47.5 20.5t66.5 6.5t70 37q52 0 110 1h13q51 0 101 -7q56 -8 107.5 -30.5t92.5 -67.5q-53 -27 -102.5 -62t-81.5 -81q-34 -45 -44 -107q-3 -17 -2 -36q0 -48 19 -106q21 -30 20 -66q1 -11 -1 -23q-8 -50 -19 -103q-7 -35 -7 -70 q0 -16 2 -34q5 -52 58 -91q-53 -33 -57 -67q-1 -6 0 -12q-1 -27 13 -56q18 -35 40.5 -71.5t22.5 -75.5q39 -41 82 -57q40 -15 82 -14h5q44 1 90 15.5t93 34.5q61 45 88 97.5t33 110.5q3 27 3 55q0 33 -4 67q-7 64 -13.5 129.5t-6.5 133t23 132.5l-51 39q52 30 52 58 q0 29 -32 62q-27 28 -51.5 54.5t-3.5 55.5q-20 -14 -48 -17.5t-50.5 4.5t-37 27.5t-8.5 52.5q12 29 27.5 62.5t42.5 62.5q52 -12 115 -12h18q30 1 60 1q45 0 91 -2q76 -3 149 -20.5t132 -70.5q-111 -41 -165 -106.5t-74 -148.5q-19 -76 -19 -162v-17q1 -96 7 -198 q3 -61 4 -123q0 -39 -2 -78q-4 -101 -35 -193q-39 -82 -88.5 -140.5t-100.5 -124.5q-22 21 -45 21q-7 0 -13 -2q-30 -8 -62 -26q-31 -20 -64 -36q-24 -12 -48 -12l-18 2q-66 6 -133 31.5t-124.5 66.5t-101.5 97.5t-65 122.5q-9 83 -9 166q0 42 2 82q7 122 8 240v14 q0 110 -15 216q-16 112 -76 220q-20 -20 -36.5 -20.5t-31 12t-27.5 29.5t-28 30z" />
<glyph unicode="V" horiz-adv-x="1347" d="M33 1262q6 39 36.5 63.5t73.5 39.5t89.5 23.5t80.5 14.5q59 -41 114.5 -41h101.5t81 -20.5t56 -100.5q-24 4 -45 4q-55 -1 -87 -27q-46 -36 -60 -96q-9 -36 -9 -74q0 -26 4 -54q10 -70 37 -124q-12 -27 6 -47t36.5 -37.5t20.5 -35t-45 -35.5l197 -162q-2 19 -2 37 q1 64 23 118q28 70 61 140t55 148q12 40 12 86q0 43 -10 92q-20 6 -47 14t-51 24q-23 16 -36 44q-8 17 -8 41q0 15 3 32q21 47 67 55q38 7 82 7h21q19 -1 39 -1q40 0 80 3q62 4 114 45l176 -144q-12 -35 -41.5 -52t-66.5 -26.5t-76 -18.5t-69.5 -26.5t-48.5 -50.5 q-14 -27 -14 -70q0 -10 1 -20q-20 -145 -40.5 -284.5t-53.5 -269.5t-86 -253t-139 -235q-84 92 -130.5 202.5t-77 228.5t-57 237.5t-68.5 230t-111.5 207t-188.5 168.5z" />
<glyph unicode="W" horiz-adv-x="1517" d="M41 1331q14 49 45 71t71 26q8 1 17 1q33 -1 69 -11q46 -14 89 -36t80 -49.5t59 -54.5q4 -27 -12.5 -49.5t-39 -44t-45 -44t-31.5 -48t1 -55t55 -64.5l-90 -33q33 -53 42 -112.5t12.5 -121t11.5 -121t43 -112.5q31 59 51 141t34.5 173.5t29 186.5t36 178t53 149.5 t80.5 103.5q9 1 16 1q34 0 50 -22q18 -26 27.5 -60t16.5 -61.5t34 -21.5h-35q-20 -12 -20 -22.5t10 -20.5t24.5 -21.5t20.5 -25.5h72q-20 -20 -43 -46t-33.5 -51.5t0 -51t55.5 -46.5q-25 12 -40 -4t-28 -30q0 -27 14.5 -53.5t36 -50t46 -43t43.5 -34.5q55 20 71.5 68.5 t21.5 98.5t11 91t41 48q-27 27 -29 60.5t-3 67t-10 61.5t-50 42q0 20 -2 39.5t0 36t10 30t31 21.5q45 0 103 3q17 1 34 1q40 0 80 -5q57 -7 107.5 -30.5t84.5 -77.5l-36 -34l18 -21q-47 -39 -76.5 -87t-50 -93t-32 -83t-17.5 -56q12 -35 2 -48.5t-29.5 -18.5t-43 -8 t-36.5 -16q12 -35 34 -84t30 -95q3 -16 3 -30q0 -28 -10 -52q-16 -36 -75 -42l33 -36q-54 -68 -74 -148q-7 -27 -6 -56q0 -56 26 -118q-27 0 -42 -4t-27 22q12 -35 13 -59.5t-7 -48t-25.5 -48t-37.5 -57.5q-80 53 -115 121t-48.5 141.5t-16.5 149.5t-17 145.5t-53 129 t-123 100.5l-35 -37l51 -74q-43 -14 -53 -32.5t-3 -39t22.5 -44t22.5 -44t-3 -40t-55 -31.5l53 -53q-27 14 -45.5 -7.5t-30.5 -62.5t-22.5 -92t-20.5 -96.5t-24.5 -77t-36 -31.5t-52 38t-73.5 132q-27 154 -47.5 302.5t-49 292.5t-71.5 284.5t-117 281.5zM903 688 q12 -18 37 -30q26 -11 48 -20q18 -7 17 -17q0 -3 -1 -5q3 18 3 31q-1 17 -5 25q-8 14 -21.5 21t-32 14t-30.5 34q-19 -24 -19 -40q0 -7 4 -13z" />
<glyph unicode="X" horiz-adv-x="1359" d="M43 1278q35 68 100.5 91.5t145.5 23.5t164 -15.5t157 -29.5q6 -27 -1 -46.5t-18 -35t-22.5 -25.5t-11.5 -16q23 -4 30 -23.5t8 -46.5t2 -54.5t11 -48t34 -28.5q9 -3 21 -3q21 0 52 9q35 27 37 65v15q0 32 -6 68q-8 45 -18 93q-4 21 -4 41q0 27 7 54q80 14 164 22 q42 4 83 4q40 0 80 -4q79 -8 146.5 -37.5t114.5 -88.5q-31 -37 -76 -48.5t-93 -14.5t-93 -4t-78 -17.5t-49 -54.5q-8 -19 -8 -48q0 -27 8 -63q-53 0 -81 -14.5t-39 -38t-14 -53t-9.5 -58.5t-21.5 -55.5t-50 -44.5q61 -53 101 -123t75 -144.5t71.5 -147.5t90.5 -132 q12 20 39.5 16t57.5 -19.5t56.5 -37t38.5 -33.5l21 -102q-45 12 -93 12q-25 0 -49 -3q-74 -10 -147 -20q-54 -8 -104 -7q-19 0 -37 1q-68 4 -121 51q18 53 39.5 98.5t33.5 89.5q9 35 9 72q0 10 -1 20q-3 48 -30 107l-104 160q-104 -133 -134 -273q-8 -39 -8 -78 q0 -100 55 -196q-59 -39 -117 -45q-50 -5 -96 -5h-15h-27q-40 0 -80 -2q-54 -3 -105 -36q-41 12 -56.5 38t-17.5 54.5t5.5 60.5t15.5 56q25 -6 49 -6q33 0 61 12q48 20 86.5 59.5t69.5 91.5t59.5 106.5t56.5 103.5t58 80q20 51 24 111q1 12 0 24q0 48 -12 91 q-14 54 -43.5 97t-74.5 62q0 39 -18.5 75.5t-50.5 66.5t-74 52.5t-87 34.5q-27 -18 -54 -18q-10 -1 -22 3q-38 10 -67 52z" />
<glyph unicode="Y" horiz-adv-x="1503" d="M39 1238q-1 5 -1 9q0 33 23 82q92 0 178.5 13.5t169.5 14.5h6q80 0 157 -25q81 -27 161 -107q12 78 48 114.5t87 46.5q23 4 50 4q28 0 60 -6q60 -10 122.5 -22t121.5 -20q22 -4 42 -4q36 0 67 10l127 -123q-18 -18 -45 -40t-59.5 -37t-69.5 -20q-10 -2 -20 -2 q-27 0 -56 11q-78 -72 -144.5 -164t-120.5 -188.5t-97 -188.5t-76 -166q-30 -66 -30 -115v-9q3 -52 28 -93t65.5 -71.5t87 -55.5t90.5 -48.5t74 -49.5q-86 -53 -175 -54h-6l-172 16q-89 15 -178 26q-23 3 -46 3q-65 0 -129 -24v121l70 -17q6 39 29.5 47.5t52 10.5t55 7 t39.5 38q49 80 54 154q1 14 1 28q0 60 -18 119q-23 72 -65 142.5t-90 142t-93 145.5t-72 154q-23 35 -58.5 54t-75.5 31.5t-78 22.5t-62.5 29.5t-28.5 53.5zM559 1096q-5 -7 -5 -17q0 -18 17 -49q33 -6 45.5 -34.5t22.5 -58.5t29 -51q14 -17 46 -17q9 0 19 1l88 195 q-18 12 -23 41t-11.5 53.5t-24.5 36.5q-8 5 -20 5q-18 0 -46 -11q-6 -35 -35.5 -46t-58.5 -20.5t-43 -27.5z" />
<glyph unicode="Z" horiz-adv-x="1298" d="M50 1205q0 36 16 71q16 37 65 72l989 -70q0 -59 -30.5 -111.5t-71.5 -103.5t-82 -105.5t-62 -119.5l-88 16q1 -10 1 -20q0 -41 -14 -73q-17 -40 -48 -74t-69 -63.5t-72.5 -62.5t-62 -72.5t-36.5 -93.5q-27 -27 -58.5 -51.5t-64 -49t-64.5 -52t-58 -62.5 q10 -41 43.5 -68.5t60.5 -52.5q74 20 130 30.5t108 11.5h16q46 0 94 -5q56 -6 127 -20q27 8 68 18t83 22.5t77.5 29t56 39t18.5 52t-37 68.5q27 -13 47 9q12 12 12 31q0 14 -7 32v53q8 -12 20 -18t24.5 -9.5t21.5 -8.5t9 -17l-36 -53q47 -26 57 -48q5 -11 5 -21.5t-5 -20.5 q-10 -20 -30.5 -38t-35 -38.5t-12.5 -44t39 -54.5q-14 -6 -29.5 -6h-31t-28.5 -5t-20 -23v-37l-723 -17v17q-16 10 -46.5 8t-63.5 -6t-64.5 -5t-53.5 9q-20 10 -28 38q-2 8 -3 19q0 25 12 62q-6 25 14.5 49t48 49t52 52.5t24.5 60.5q80 86 135 158.5t101.5 146t94.5 153.5 t113 179l88 122q-66 69 -132 85q-51 13 -100 12q-14 0 -30 -1q-64 -5 -128 -17q-42 -8 -83 -9q-20 0 -39 2q6 -38 5 -85q1 -4 1 -8q0 -52 -14 -98t-41.5 -78t-74.5 -32l-87 16q27 43 28 86v10q0 38 -7 75q-8 42 -20 82q-14 43 -14 82z" />
<glyph unicode="_" horiz-adv-x="1705" d="M61 -375q-10 74 11.5 113t61.5 55.5t93.5 18.5t108.5 2t108.5 7t92.5 34q74 -14 172 -16.5t202.5 1.5t206 9.5t180.5 5.5l17 51q59 -18 97 -49t72 -59.5t70.5 -49t96.5 -20.5h18q-12 -12 -47 -38t-79 -52.5t-95 -46t-96 -19.5q-145 12 -308 12h-330t-333 6.5t-320 34.5z " />
<glyph unicode="a" horiz-adv-x="1105" d="M32 302q9 79 59 149.5t136 117.5q74 20 142.5 21.5t133 4.5t124 22.5t112.5 78.5q-25 86 -75 130t-111 58q-43 10 -89 11q-19 0 -39 -2q-67 -6 -126 -21q-33 -41 -37 -85t-9.5 -84.5t-26.5 -76.5t-89 -57q-49 57 -71 131q-7 25 -7 52q0 50 27 102q57 76 138 117t167 50 q26 3 52 3q60 0 119 -14q85 -20 152.5 -67.5t109.5 -118t42 -162.5q6 -39 6 -82q0 -16 -1 -34q-3 -64 -6 -126q-2 -31 -1.5 -61.5t1.5 -59.5q3 -59 23.5 -107.5t64.5 -84t124 -48.5l17 -53q-48 -33 -94 -41q-23 -4 -46 -4t-46 4q-46 8 -92 28.5t-93 47.5q-59 -27 -127 -47.5 t-138 -28.5q-35 -4 -69 -4q-35 0 -69 4q-68 8 -127 41q-92 59 -131 138q-32 64 -32 128q0 15 2 30zM123 304q4 -24 19.5 -47.5t29.5 -46t21.5 -43t-0.5 -36.5q33 6 63.5 14.5t60 10.5t60.5 -7.5t65 -35.5q45 0 97.5 18.5t95.5 51t69 78.5q21 37 20 79q0 10 -1 20 q-23 72 -57 98q-33 26 -77 26h-3q-45 -1 -96.5 -19.5t-105.5 -37.5t-108 -31q-25 -6 -49 -6q-27 0 -53 7q-37 -23 -46 -46q-6 -16 -7 -32q1 -8 2 -15z" />
<glyph unicode="b" horiz-adv-x="1150" d="M35 1313q33 33 92 51q42 13 87 13q18 0 36 -2q64 -7 117 -41.5t71 -108.5q-33 -25 -40 -54.5t-5 -59.5t5 -59.5t-9 -56.5q59 21 119 23q18 1 34 0l84 -4q60 -6 119.5 -17.5t118.5 -17.5q80 -41 123 -93t64.5 -114.5t28.5 -135.5t14 -153q9 -45 9 -84q1 -49 -13 -89 q-24 -72 -72.5 -129.5t-110 -106.5t-112.5 -103q-39 -16 -78 -16q-27 0 -55 8q-66 19 -130 45q-64 24 -128 42q-25 7 -49 7q-37 0 -72 -16q-41 159 -55 351q-7 91 -7 184q0 102 8 206q23 81 23 167q0 15 -1 31q-5 102 -5 212q-20 27 -56 34t-70 14t-59.5 20.5t-25.5 52.5z M389 500q18 -59 40 -118.5t55.5 -109t81.5 -83t120 -39.5q72 39 117 89t67.5 113.5t27.5 139.5q2 35 2 73q0 46 -3 97q-27 20 -45 47.5t-39.5 55.5t-50.5 52.5t-76 36.5q-66 -33 -120 -67.5t-94 -75.5t-61.5 -92.5t-21.5 -118.5z" />
<glyph unicode="c" horiz-adv-x="956" d="M40 490q-2 37 -2 74q0 44 3 89q6 82 33.5 154t93.5 121q49 57 115.5 90t139.5 42q28 3 56 3q45 -1 91 -9q74 -14 138 -48.5t113 -91t72 -132.5q3 -20 3 -40t-3 -40q-6 -40 -26.5 -74t-54.5 -55.5t-79 -21.5q-61 4 -89 38t-38 79t-15 93t-21.5 85t-55.5 52q-16 6 -38 6 q-33 0 -81 -13q-59 -35 -108 -90.5t-81 -125t-39 -149.5q-1 -17 -1 -34q0 -64 20 -132q53 -94 130 -139t169 -71q53 0 102.5 26.5t92.5 67.5t79 90t62 96q53 -12 67 -50q12 -31 13 -68q0 -8 -1 -15q-3 -45 -14.5 -87t-11.5 -60q-41 -47 -92 -86t-110.5 -64t-125.5 -34 q-26 -4 -51 -4q-40 0 -79 9q-86 6 -137.5 47t-88 97.5t-68.5 118t-77 108.5q0 68 -5 148z" />
<glyph unicode="d" horiz-adv-x="1048" d="M41 624q10 100 49 187.5t119 149.5q6 33 31.5 30.5t51 -8.5t45 -2t13.5 49q27 -12 76 -28q50 -17 104 -25q31 -5 61 -5q23 0 45 3q52 6 85 37q-12 41 -23.5 83t-11.5 97q-18 23 -51 28t-70 5t-70.5 -1t-54.5 9q-22 9 -25 35v6q0 26 25 74l332 -17q39 -45 41 -99v-22 q0 -44 -6 -90q-8 -58 -11 -112v-9q0 -49 29 -90q-20 -81 -20 -166q1 -31 3 -61q10 -118 36 -252q-31 -23 -38 -40t-1 -33.5t19.5 -32t23.5 -32t12 -34.5t-16 -41l231 -158q-53 -68 -104 -81q-25 -6 -50 -6t-53 6q-52 14 -104 42q-50 28 -104 44q-35 11 -71 10q-18 0 -37 -2 q-54 -8 -112 -66q-53 0 -108.5 18.5t-103.5 50t-87 72.5t-59 89q-25 86 -38 187q-7 57 -7 114q0 44 4 87zM156 467q20 -53 43.5 -107.5t58.5 -99.5t82 -74.5t115 -35.5q33 6 54 29.5t38.5 51t32 54t34.5 39.5l19 -35q27 47 33 88t6 79v74.5t14 77.5q3 18 3 36q0 64 -35 112 q-44 62 -110 91q-55 25 -114 25h-22q-72 -6 -111 -53q-53 -27 -74.5 -68.5t-30 -89t-12.5 -98.5t-24 -96z" />
<glyph unicode="e" horiz-adv-x="1099" d="M53 513q-5 40 -5 81q0 109 38 225q80 94 166 149.5t203 96.5q39 7 75 7q66 0 122 -24q84 -38 151 -100.5t118.5 -134.5t98.5 -117q25 -56 25 -93q1 -9 -1 -17q-8 -40 -40 -58q-34 -18 -84 -21q-38 -2 -77 -2h-26q-53 1 -102 2h-11q-42 0 -69 -7q-19 -2 -38 -2 q-35 0 -73 7q-58 11 -116 17q-25 3 -50 3q-34 0 -68 -5q-60 -8 -118 -53q12 -68 49 -111t86 -73.5t103.5 -57t101.5 -59.5q31 31 64 31h4q36 -2 67 -5.5t51.5 8t20.5 70.5q17 -4 31 -4q26 0 40 14q24 22 45 48t53 42q12 6 29 7q28 0 68 -17l-90 -284q-25 0 -58.5 -4 t-69.5 -15.5t-70.5 -32t-61.5 -53.5q-61 6 -129 23.5t-133.5 47.5t-126 73t-107.5 102q-66 150 -86 296zM207 715q61 -21 133 -23q33 -1 66 0q40 0 82 1q76 3 153 6q26 1 52 1q51 0 100 -4q0 59 -35 105.5t-85 76.5q-49 28 -105 42q-38 9 -70 10q-14 0 -27 -2 q-178 -27 -264 -213z" />
<glyph unicode="f" horiz-adv-x="1095" d="M41 25l53 141q18 -6 38 -17.5t40.5 -17.5t39.5 -4t38 23q61 59 74 132q9 47 9 97q0 30 -3 61q-8 84 -24.5 175.5t-16.5 183.5q-16 23 -46 33t-60.5 15t-61.5 11t-50.5 19.5t-25.5 40.5q-1 7 -1 16q0 24 13 61q14 12 37 30.5t51 4.5q14 -18 39 -20t53.5 9t56.5 32.5 t46 48.5q12 41 32.5 85t51.5 79.5t71 59.5t93 24q58 13 113 13q57 0 109 -14q103 -28 183 -67q8 -41 24.5 -78t28 -72.5t11.5 -73.5t-27 -77q-20 -41 -47 -45t-54.5 5t-56 24.5t-55.5 15.5q-27 27 -29 50.5t6.5 45t21.5 42t16.5 39t-10 35.5t-56.5 34l-197 -51 q6 -20 12.5 -54.5t17.5 -70t32.5 -69.5t60.5 -52q-27 -29 -50.5 -35t-46 -6h-46t-49.5 -15q-20 -98 -30.5 -176t-10.5 -150.5t10 -150.5t31 -178q39 -25 91 -34t98 -22.5t78 -42t32 -93.5q-86 -27 -180.5 -40.5t-191.5 -13.5t-195.5 13.5t-190.5 40.5z" />
<glyph unicode="g" horiz-adv-x="1177" d="M33 280.5q0 28.5 6 57.5q57 57 84 133t41 156t27.5 156.5t46 139t95 102.5t173.5 44q61 -53 135 -59q23 -2 47 -2q50 0 100 9q74 13 139.5 32.5t112.5 19.5q20 -59 49 -100t43 -76q6 -17 6 -35.5t-6 -37.5q-14 -38 -75 -91l-139 19q-20 -59 -32 -119t-32 -112t-58 -94 t-112 -67q-17 4 -35 4q-36 0 -73 -16q-56 -25 -70 -80q33 -6 82 -11q35 -4 69 -4q14 0 27 1q47 2 83 13t42 38q0 -41 9 -54.5t24.5 -12t36 9.5t40 12t39 -4t33.5 -39q59 -47 91 -93t44 -96q7 -35 7 -72q0 -18 -1 -37q-6 -58 -18 -132q-72 -76 -151.5 -112t-162.5 -44 q-30 -3 -59 -3q-55 0 -110 10q-86 14 -169 36.5t-162 49t-150 44.5q-41 27 -73 79.5t-40 111.5q-2 16 -2 32q0 42 15 83q22 55 83 90q-35 6 -56.5 24.5t-32.5 43t-11 53zM133 317l33 -53q39 -12 87 -13h11q42 0 84 7q47 8 89 23.5t69 35.5q-14 -4 -29 -4q-17 0 -35 5 q-32 10 -65 24t-65.5 29.5t-63.5 17.5t-59.5 -12.5t-55.5 -59.5zM166 -20q0 -74 38 -115t89 -64.5t105.5 -37t88.5 -33.5h88q47 39 102.5 47t113 11t111.5 17.5t102 69.5q11 36 11 65q0 20 -5 36q-13 40 -43.5 66t-76.5 39t-95.5 21.5t-97.5 16.5t-83 20q-37 -27 -80 -33 q-31 -4 -65 -4h-23q-45 2 -90 6h-24q-31 0 -58 -6q-38 -10 -67 -37.5t-41 -84.5zM300 756q-3 -20 -3 -40q0 -35 9 -71q16 -57 56.5 -104t108.5 -62q53 0 94 15.5t73 41t55.5 57.5t43.5 66q0 39 -10 81t-29.5 77t-50.5 60.5t-72 31.5q-14 -14 -46.5 -17t-68.5 -6t-69 -12.5 t-47 -35.5q-35 -27 -44 -82z" />
<glyph unicode="h" horiz-adv-x="1288" d="M51 6q-2 13 -2 24q1 30 15 55q20 34 53 63.5t69 57.5q36 27 58 59q22 31 21 69q0 42 -40 96q15 106 31 230q12 91 12 180q0 32 -2 65q-6 121 -49 227.5t-149 180.5q4 4 35.5 18.5t73.5 25.5t88 14q8 1 16 1q36 0 64 -12q34 -14 47 -54q5 -16 5 -37q0 -32 -12 -77 q-18 -20 -15 -49t18 -60.5t34.5 -63.5t34.5 -58q39 33 88 50t100 24q36 5 72 5q15 0 31 -1q52 -3 96 -9q61 -18 102 -61t65.5 -96.5t35 -109.5t10.5 -101q-19 -36 -19 -86v-7q0 -47 6 -97q6 -54 13 -108q3 -27 3 -50.5t-3 -43.5q0 -39 21.5 -60.5t51 -34.5t59.5 -23.5 t48 -25.5q16 -14 16 -38v-5q-2 -28 -36 -77q-139 -18 -273 -21q-50 -1 -101 -1q-84 0 -168 3q-134 5 -271.5 12t-282.5 7h-70zM403 592q0 -39 35 -92h-18l18 -283q6 -33 43 -39t75 -13t64 -27q16 -13 16 -42q0 -16 -5 -37q47 39 94 86.5t80 100.5q33 52 46 112q5 23 5 48 q0 37 -12 77h18l-18 299q6 33 -6.5 44.5t-33 14.5t-40 7t-25.5 24q-31 -37 -74.5 -62.5t-90 -49t-86 -47t-62.5 -53t-23 -68.5z" />
<glyph unicode="i" horiz-adv-x="974" d="M54 49v6q0 21 8 39q10 22 28.5 41t38.5 31q48 -39 97 -39q18 -1 36 5q66 20 129 85q28 155 28 299v10q-1 148 -42 293l-301 53q-12 37 -12 60q0 14 4 22q12 23 40.5 31t63 13t61.5 32q23 -18 56 -19h13q28 0 56 3l72 8q12 1 24 1q22 0 42 -5q30 -8 50.5 -32.5t26.5 -76.5 q-6 -78 -6 -151v-36q2 -89 12.5 -176t26 -175t35.5 -187q27 -27 75 -30.5t94 -10.5t80 -30t34 -88q-106 -14 -210 -31t-208 -25q-60 -5 -121 -5q-45 0 -91 3q-106 6 -218 39q-20 20 -22 43zM327 1246q0 31 31 67q20 6 58 16q32 8 63 8h13q36 -3 62 -23q20 -16 20 -52 q0 -10 -1 -21q3 -9 3 -19t-3 -20q-6 -22 -20 -42.5t-32.5 -37t-39.5 -22.5q-35 14 -69 34q-34 22 -58 48q-26 30 -27 64z" />
<glyph unicode="j" horiz-adv-x="829" d="M33 -56q-2 11 -2 22q0 46 26 93q18 33 47 51.5t59 25.5t58.5 4t48.5 -9q20 -18 25.5 -45t3.5 -57.5t-8 -62.5t-6 -59.5t11 -48t42 -28.5q14 -3 29 -3q19 0 39 5q36 8 67 28.5t52.5 49.5t27.5 61q-7 65 -7 131q0 55 5 110q10 122 21 240q7 88 7 173q0 28 -1 56 q-3 112 -41 210q-35 4 -63 4q-13 0 -25 -1q-35 -3 -65 -5t-63.5 4t-87.5 35q8 86 59 114q47 27 109 27h9q67 -2 140 -22.5t124 -34.5l53 -213q-20 -31 -23.5 -57.5t-3.5 -51t-3 -50.5t-23 -52q41 -72 48 -176q3 -44 3 -89q0 -64 -6 -133q-10 -116 -29.5 -238t-32.5 -226 q-92 -68 -205 -84q-40 -6 -80 -6q-71 0 -139 18q-39 39 -84 85t-76.5 97t-39.5 108zM444 1294q12 27 33 68t47.5 68.5t59.5 30.5h5q31 0 68 -42q41 -27 54.5 -53.5t14.5 -54t-2 -57t3 -62.5q-39 -12 -93 -20q-29 -5 -55 -5q-24 0 -45 3q-47 8 -74 36q-20 20 -20 55 q0 15 4 33z" />
<glyph unicode="k" horiz-adv-x="1253" d="M29 70q96 14 140 58q43 44 55 108q6 33 7 70q1 34 -5 70q-10 76 -21 156q-11 88 -11 162t29 133q3 34 3 69q0 40 -4 80q-7 75 -25.5 144.5t-47 130t-67.5 107.5q40 5 80 5h13q46 -1 81 -17q36 -18 52 -52q9 -19 9 -46q0 -21 -6 -48q3 -34 3 -66q0 -37 -4 -69 q-7 -61 -13 -120.5t-6 -121t20 -135.5q34 -11 64 -11q23 0 43 6q48 15 87.5 49t73 76t66.5 75q-39 20 -40 44.5t17.5 48t47 42t49.5 24.5q43 -35 90 -41q23 -3 45 -3q25 0 50 4q48 6 96 14q27 5 52 5q18 0 36 -3q42 -6 79 -36t64 -99q-229 0 -384 -78t-237 -225 q47 -33 75 -72t47.5 -78l39 -78t51.5 -71l17 18q20 -47 70.5 -76.5t106.5 -61.5t106.5 -73t70.5 -106q-66 0 -142 -2l-64 -2q-45 0 -89 2q-76 4 -146.5 16t-125.5 39q-6 18 4 35.5t27.5 32t35 28.5t25.5 27q1 10 1 19q0 41 -22 73q-26 39 -65 75.5t-76 74.5t-51 92l-19 -17 q-6 -18 -5 -15t1 14t-5 23.5t-25 12.5q-12 -12 -47 -29.5t-65 -42t-44 -58.5q-5 -11 -5 -24q0 -26 19 -57q-2 -17 -2 -31q1 -26 7 -42q10 -26 30.5 -46t45 -40.5t44.5 -53.5l17 18q20 20 37.5 11t27.5 -32.5t8 -52t-20 -48.5q-70 26 -142 26h-8q-76 -2 -142 -3h-13 q-59 1 -103 9q-49 10 -69 56z" />
<glyph unicode="l" horiz-adv-x="1095" d="M45 35q4 43 34 61.5t70.5 24.5t86 6t79 9t49.5 33q7 11 7 29q0 20 -9 48l52 35q-12 71 -12 153v6q0 86 6 175.5t9 178.5q1 18 1 37q0 70 -10 135q-12 83 -42 156.5t-92 130.5q-29 -20 -55 -21t-53 8t-52.5 27.5t-52.5 37.5q14 20 42 31.5t63 17.5t71.5 11t67.5 11 q29 -17 55 -17q4 0 10 1q30 4 59.5 7t56 -6t53.5 -56q3 -57 3 -120q0 -67 -3 -143q-6 -144 -8 -300v-26q-1 -140 9 -282q10 -154 50 -295q68 0 133 1h18q55 0 107 -5q60 -6 112 -25.5t91 -58.5q-12 -39 -50 -59q-39 -21 -91 -27q-39 -5 -83 -5q-15 0 -29 1q-60 2 -121 5 t-115 4h-12q-47 0 -81 -7q-41 6 -92 13.5t-108.5 15.5t-115 18t-108.5 25z" />
<glyph unicode="m" horiz-adv-x="1435" d="M35 58q8 20 29.5 31t47 20.5t38.5 29.5l36 813q18 35 41 44.5t49.5 6t55 -14.5t58.5 -14t59.5 6t56.5 44q66 -49 134 -55q22 -2 44 -2q46 0 90 8q66 12 132 31q66 18 128 19h4q60 -1 116 -29q58 -30 112 -113l53 -178l-107 34q0 -31 -4 -62.5t1 -57t24.5 -41t66.5 -15.5 q-27 0 -50 -4t-38 21q16 -39 16 -83q0 -4 1 -8q0 -40 -5 -80q-6 -44 -12 -85q-3 -20 -2.5 -39t2.5 -36q6 -34 30 -58.5t77 -32.5q18 -12 38.5 -37t30.5 -51q6 -15 7 -31q1 -11 -3 -21q-8 -24 -40 -36l-422 -19q-34 26 -81 26h-4q-50 -1 -106.5 -8.5t-112.5 -8.5h-5 q-54 0 -99 26q-59 0 -118.5 -7t-119.5 -13q-44 -4 -87 -4l-31 1q-60 2 -119 23q-14 28 -14 46q0 8 2 14zM313 158q39 -20 80 -23.5t76 -3.5t59.5 -3t30.5 -24q45 80 51 170q2 36 2 73q0 54 -5 109q-9 91 -23 178q-9 57 -8 109q0 27 2 52q-26 10 -42 10q-12 -1 -18 -7 q-14 -14 -17 -36.5t-9 -42.5t-39 -14l-56 34l-32 -51q31 -34 33 -68q1 -7 1 -15q0 -26 -7 -52q-9 -33 -25.5 -65.5t-25.5 -63.5t-2 -62.5t42 -62.5l-68 16q0 -27 11.5 -42t24.5 -27.5t27.5 -27.5t20.5 -42zM746 306q2 -50 42 -95l35 213l17 -18q33 -35 40 -65t0.5 -59.5 t-20.5 -60.5t-20 -63q26 -20 52 -20h2q26 0 49.5 9t43 19t31.5 10q-15 44 -15 90v16q3 54 14 107t24.5 106.5t18.5 104.5q1 15 1 29q-1 35 -9 71q-12 50 -51 95q-41 -41 -75 -55q-18 -7 -40 -7q-21 0 -46 6q-2 -12 -1 -23q0 -26 9 -50q14 -34 26 -67q9 -27 9 -54 q0 -7 -1 -13q-3 -34 -42 -73q-39 0 -53.5 8t-14.5 21.5t9.5 30t16.5 33.5t8 33.5t-18 28.5h-18q7 -29 7 -58q0 -24 -5 -47q-10 -53 -20 -103q-8 -40 -7 -79q0 -11 1 -21zM1266 492l53 -68l16 68h-69z" />
<glyph unicode="n" horiz-adv-x="1259" d="M20 70q33 39 76 68.5t83 61t68.5 70.5t35.5 99q-35 59 -40 144t-5 176t-6 179t-39 156q61 -45 144 -49q26 -1 52 -1q59 0 119 6q88 10 174 20q33 4 65 3q49 1 93 -9q72 -16 121 -74t63 -181q14 -80 14 -167t11.5 -171t48.5 -160.5t123 -136.5q-14 -53 -45 -77.5 t-73 -32.5q-26 -5 -55 -5q-18 0 -38 2q-52 5 -104 11t-103 7h-8q-47 0 -88 -11q-20 42 -20 72q0 11 3 21q10 36 39 59.5t67 42t66.5 42t38.5 58.5q3 10 3 21q0 30 -19 71q-5 46 -5 97q0 17 1 35q1 19 1 38q0 53 -4 103q-6 70 -27.5 133t-72.5 110q-29 5 -57 5q-37 0 -72 -9 q-61 -16 -116.5 -51t-100.5 -82t-78 -92q10 -42 10 -89q0 -11 -1 -23q-3 -60 -7 -118.5t-4 -115t19.5 -104.5t64.5 -83t131 -53h33q8 -35 -13.5 -53.5t-62.5 -25.5t-94 -7q-54 0 -110 1h-22q-44 0 -86 -3q-52 -4 -87 -16q-41 12 -60.5 36.5t-44.5 51.5z" />
<glyph unicode="o" horiz-adv-x="1075" d="M53 348q2 58 5 118t4 118v16q0 48 -5 88q6 80 52.5 135.5t111 93t140 62.5t141.5 45q22 5 45 5q37 -1 73 -13q60 -20 115.5 -55t107.5 -81t99 -85q14 -74 36.5 -133.5t39.5 -117.5q16 -60 19 -122v-14q0 -57 -21 -127q-35 -47 -70 -99.5t-75 -98.5t-87 -80t-106 -40 q-63 -10 -131 -10q-23 0 -49 1q-94 5 -181.5 37t-157 94t-102.5 161q-5 34 -5 75q0 13 1 27zM221 492q-2 -18 -2 -35q-1 -49 13 -86q18 -49 52.5 -87t82 -72t100.5 -73q23 -5 58 -5h12q43 1 91 16.5t94 46t77 84.5q53 94 53 203.5t-53 203.5q-31 -6 -50.5 14.5t-39 48 t-47 52t-74.5 24.5q-27 -18 -76 -18t-97 -5q-48 -6 -81 -28q-28 -19 -28 -69q0 -9 1 -19l-53 17q0 -53 -16.5 -106.5t-16.5 -106.5z" />
<glyph unicode="p" horiz-adv-x="1163" d="M-23 -320v5q0 13 9 19q10 7 29.5 8t38 5t34.5 15.5t21 38.5q25 0 49 4t39 -23q25 139 43 275.5t22 275.5q1 29 1 59q0 110 -12 224q-15 143 -54 297q-14 -33 -30.5 -37t-34 6t-37 26.5t-40.5 22.5q20 18 29.5 34.5t19 30t25.5 23.5t49 17q27 -12 60.5 -18.5t66.5 -14.5 t61 -23.5t40 -48.5q61 39 129.5 64.5t136.5 30.5q14 1 29 1q52 0 101 -14q64 -18 118 -63q74 -41 110.5 -93.5t52 -112t15.5 -125v-130.5q-20 -80 -48 -158t-70 -143.5t-100.5 -116.5t-138.5 -78q-39 -41 -86 -42h-5q-44 0 -90 17q-48 19 -93 47.5t-78 49.5q3 -22 3 -44 q0 -19 -2 -37q-4 -33 -4 -65v-13q1 -38 15.5 -73.5t59.5 -68.5q20 -9 40 -9q13 0 25 4q33 9 60.5 14t50 -8.5t37.5 -72.5q-68 -45 -149 -63.5t-168 -19.5h-11q-82 0 -167 13q-91 15 -177 33q-23 37 -25 55zM396 513q-3 -26 -3 -51q0 -29 3 -58q5 -56 23.5 -111t59.5 -100 q39 -27 76 -47.5t76 -28.5q19 -4 39 -4t41 4q41 8 88 41q72 20 96.5 76.5t26.5 127.5v22q0 61 -10 124q-11 74 -11 127q-12 39 -44 89t-72 83t-83 37h-5q-40 0 -76 -49q-18 6 -52 -6.5t-68 -37t-60.5 -60.5t-34.5 -77q-6 -47 -10 -101z" />
<glyph unicode="q" horiz-adv-x="1165" d="M60 398q-2 30 -2 61q0 76 16 153q24 109 78 209q80 61 179 92t203 34h24q90 0 175 -19q96 -23 170 -70q0 -162 -10 -305t-18.5 -278.5t-9.5 -267.5v-12q0 -126 20 -261q18 -14 27.5 -36t19.5 -40t26.5 -29.5t51.5 -5.5l34 37q8 -14 20.5 -25.5t22 -22.5t14.5 -26 q2 -5 2 -12q0 -10 -5 -23q-68 -39 -142 -42q-17 -1 -34 -1q-57 0 -115 8q-74 11 -141 22q-33 5 -62 5q-32 0 -61 -6q-21 41 -21 61q0 22 16 29q15 6 38.5 6t47 7.5t42 28t22.5 65.5l70 -37q12 33 14 75q1 28 1 56v27q-1 41 -2 79v10q0 31 5 56q-68 -33 -142.5 -64.5 t-147.5 -43.5q-25 -3 -50 -3q-47 0 -92 15q-68 22 -119 96q-74 88 -114.5 189.5t-50.5 208.5zM213 398v-8q0 -58 27 -122q41 -41 85 -86t91 -76.5t97 -41.5q11 -2 23 -2q39 0 80 26v92q57 8 84 32t34 58q4 19 4 40q0 18 -3 38q-6 43 -13 89t-10 95q-1 8 -1 17q0 39 12 76 q-33 41 -78 72.5t-94 46.5q-36 10 -72 10q-13 0 -25 -1q-48 -5 -89 -38q-41 -41 -76 -90.5t-54.5 -106.5t-21.5 -120z" />
<glyph unicode="r" horiz-adv-x="1249" d="M63 76q9 22 30.5 41.5t47 36t37.5 22.5q33 -27 47.5 -19.5t25.5 24t28.5 29.5t58.5 1q27 80 35 160q6 64 6 127v32q-2 78 -9.5 157t-13.5 157q-18 18 -43.5 21t-53.5 0t-56.5 -7t-52 0t-40 20.5t-20.5 57.5q0 57 27.5 91t71.5 47q34 10 73 10q12 0 26 -1 q54 -4 107.5 -21.5t98.5 -46t71 -63.5q150 112 282 112q9 0 17 -1q140 -8 285 -127q27 -34 30 -68q2 -17 1.5 -34.5t-1.5 -36.5q-3 -37 -5 -77q0 -6 -1 -12q0 -35 13 -73q-41 -7 -80 -15q-34 -7 -67 -7h-9q-37 1 -68.5 17.5t-58.5 57.5l-72 139q-94 -12 -173.5 -73.5 t-108.5 -155.5q3 -20 3 -44t-3 -50q-6 -52 -8 -112v-18q0 -50 10 -102q12 -60 53 -114q27 0 69 -2t83 -11.5t72.5 -32t37.5 -61.5q-18 -47 -56 -56q-31 -7 -66 -7h-15q-43 2 -87 2t-77 -27q-53 20 -114.5 21.5t-126 1.5t-129 7t-121.5 42q-14 12 -14 27q0 7 3 14z" />
<glyph unicode="s" horiz-adv-x="1028" d="M23 281h36l17 143q19 5 36 5q22 0 40 -8q32 -15 59 -46t49.5 -68t49.5 -67q26 -30 58 -46q17 -9 37 -8q18 0 39 7q40 -17 73 -17h11q37 4 71 17.5t68.5 30t80.5 22.5q-8 20 0 36.5t23 30t32.5 23.5t30.5 16q-25 59 -66 89t-89 44.5t-99.5 21.5t-96.5 21q-23 -14 -49 -14 q-12 0 -24 3q-40 9 -80.5 28.5t-83.5 41t-82 27.5q-52 40 -64 90q-6 26 -7 53q-1 24 5 48q10 51 32 102t34 99q57 43 114.5 60t115.5 19h20q47 0 96 -7q59 -9 122.5 -18t131.5 -12q14 -1 27 -1q55 0 116 10q6 -59 15 -119q8 -62 13 -120q4 -49 5 -93q0 -9 -1 -17 q-1 -52 -13 -94q-14 16 -47 37t-62 21q51 -35 90 -94.5t57 -131.5q15 -59 16 -120q0 -13 -1 -27q-4 -76 -39 -141q-33 -27 -67.5 -40.5t-65.5 -26.5t-56.5 -33.5t-37.5 -59.5q-80 14 -165 36.5t-168 39t-161 19.5h-16q-69 0 -127 -23q-27 23 -29 43t7 39.5t21.5 37t15.5 34 t-10 30.5t-58 27zM268 739q41 -6 108.5 -25.5t136.5 -33.5t129 -18h13q50 0 72 26q8 31 8 54q0 14 -3 25q-7 30 -28.5 47t-51 27.5t-59.5 19.5t-55.5 22.5t-39.5 36.5q-33 -6 -73 -18.5t-75 -33t-58.5 -52.5t-23.5 -77z" />
<glyph unicode="t" horiz-adv-x="1030" d="M23 1042q54 -22 93 -22q17 0 31 4q46 14 72.5 52t40.5 91.5t31.5 104.5t43.5 91t75 48q12 -59 24 -123.5t37 -118t68 -85.5q36 -27 94 -28q11 0 22 1q42 23 89 23q12 0 24 -2q60 -8 100 -72q0 -20 -11 -37t-28.5 -31t-35 -27.5t-29.5 -27.5q-24 27 -60 35q-27 6 -56 6 q-11 0 -23 -1q-43 -3 -87 -14.5t-79 -25.5q0 -80 -14.5 -162t-22.5 -162q-4 -40 -4 -78.5t4 -76.5q8 -74 55 -142q33 -27 67 -34q20 -4 39 -4q15 0 27 2q32 5 60 20.5t55 34.5q41 39 54.5 83t27.5 83.5t39.5 71.5t91.5 44q27 -59 33 -102q5 -37 5 -72v-11q-1 -40 -5 -83 q-1 -14 -1 -30q0 -32 5 -72q-33 -33 -87 -73t-116.5 -71t-130.5 -47q-39 -9 -74 -9q-26 0 -51 5q-53 27 -104.5 63.5t-89.5 82.5t-58 102q-15 41 -14 87q0 18 2 36q-7 32 -7 69q0 15 1 30q4 54 11 110.5t10 111.5q1 13 1 25q0 41 -8 77q-10 46 -41 79.5t-92 48.5 q-27 -14 -51.5 -18.5t-36.5 -18.5z" />
<glyph unicode="u" horiz-adv-x="1226" d="M47 856v51q27 0 56.5 8.5t60.5 15.5q32 7 64 11q13 2 26 2q20 0 39 -4q57 -78 73 -156q14 -69 14 -136q0 -9 -1 -17q-1 -75 -9 -149q-3 -31 -4 -61q0 -43 6 -85q10 -72 50.5 -140.5t134.5 -134.5q6 12 15.5 19.5t16.5 13.5t9 14.5t-6 20.5l-19 16q27 -12 46.5 9.5 t40.5 47.5q20 26 46 46q16 12 36 13q13 0 28 -5v88q12 -8 22.5 -6t20.5 8t20.5 15.5t24.5 15.5q-31 16 -36 41.5t1 54.5t17.5 57.5t11.5 52t-16.5 39t-65.5 19.5l88 37l-246 178q27 66 73 84q36 14 77 14q12 0 24 -1q54 -5 110 -22.5t103 -23.5q12 -104 17.5 -207.5 t7.5 -205t3 -200.5t7 -200l107 -69h53q18 -34 18 -55q0 -11 -6 -17q-14 -19 -46 -24t-68.5 -7t-57.5 -22q-21 -12 -38 -12q-8 0 -16 3q-22 9 -42 29.5t-40.5 45t-45.5 41t-57.5 15t-75.5 -31.5q-55 -27 -103.5 -45.5t-94.5 -21.5q-8 -1 -16 -1q-38 0 -77 12q-47 14 -100 56 q-68 61 -89.5 137t-23.5 158q-1 20 -1 41q0 62 5 124q3 35 3 69q0 45 -5 88q-8 75 -45 139.5t-125 109.5z" />
<glyph unicode="v" horiz-adv-x="1249" d="M39 856v102q59 14 147 35t176 22h6q84 0 154 -33q72 -34 96 -126q-25 0 -42 -14.5t-31.5 -35t-25.5 -42t-23 -35.5q14 -16 22 -45t16.5 -58.5t18.5 -56t27.5 -40t43 -9.5t66.5 35q35 39 35 91t-12.5 107.5t-24.5 107.5q-7 28 -7 53q0 20 5 37q10 39 54 57q27 11 76 11 q31 0 71 -5q29 -18 69 -18h10q46 2 92 2.5t86 -15.5t60 -76q-102 -35 -160.5 -97t-93.5 -141t-53 -171t-39.5 -187.5t-54.5 -186.5t-94 -171q-48 -24 -82 -24h-8q-37 3 -63 25.5t-42 59.5t-29.5 78t-27 80t-29.5 66q-31 47 -49.5 110.5t-33.5 131t-33.5 132t-51.5 117.5 t-86 87t-135 40z" />
<glyph unicode="w" horiz-adv-x="1327" d="M47 836l19 122q23 14 43 7t38.5 -21t34 -30.5t27.5 -20.5t21.5 9t13.5 56q35 -23 77 -23q7 1 14 1q50 4 103 4q-27 -39 -46 -90q-20 -52 -28 -106q-6 -36 -5 -71q-1 -19 1 -37q4 -54 25 -99l53 -54q49 12 75 65.5t41 119t29.5 130t38.5 103.5q24 38 66 38h2 q43 -1 119 -67q39 -47 41 -103q1 -28 1 -56q0 -29 -1 -57v-16q0 -48 10 -91q12 -51 72 -84v-105q45 4 66.5 23.5t28.5 47.5t5 61.5t-5 67.5t-3 64.5t14 53.5q2 11 2 23q0 19 -4 41q-6 38 -12 77q-5 33 -5 65v10q1 36 19.5 60.5t59.5 32.5q13 2 28 2q36 0 88 -12 q0 -29 21.5 -45.5t46.5 -42.5q0 -31 -16.5 -75t-39 -91t-46 -91t-35.5 -77q8 -37 8 -70q0 -17 -2 -33q-6 -48 -21.5 -97.5t-33 -103.5t-23.5 -122q14 -25 4 -48.5t-28.5 -47t-38 -47t-25.5 -49.5q-20 -7 -36 -7q-15 0 -25 6q-22 13 -37 35.5t-28 49t-34 40.5q14 51 14 92 q0 19 -3 35q-9 52 -31.5 96t-52 86t-50.5 95h-53q-23 -39 -37 -92.5t-28.5 -109.5t-29.5 -109.5t-40 -91.5q-26 -38 -60 -60q-24 -15 -55 -15q-15 0 -32 3q-53 104 -74 215.5t-41.5 220.5t-54 213t-113.5 197h-37z" />
<glyph unicode="x" horiz-adv-x="1226" d="M41 922q0 35 22.5 45t53 10t60.5 -4t42 2v57q43 -24 84 -24q9 0 17 2q48 6 93 12q20 3 41 3q24 0 48 -4q45 -7 92 -63l-88 -106q27 4 43 -8.5t29.5 -31.5t22.5 -37.5t20.5 -24t27 7t37.5 57.5q-8 14 -17.5 35.5t-14.5 44.5t-3 44.5t15 35.5q58 49 120 53q15 1 31 1 q47 0 95 -9q64 -12 130 -24q32 -6 66 -6q37 0 76 7q4 -17 4 -31q0 -30 -18 -48q-26 -26 -71.5 -38t-100 -21t-99.5 -28.5t-69 -60.5q-13 -23 -13 -58q0 -26 8 -59q-27 20 -47 9t-35.5 -37.5t-24.5 -58t-16 -52.5q33 -35 61 -76t54.5 -80t55 -70.5t63.5 -45.5q6 -6 -1 -12.5 t-13.5 -13.5t-6.5 -13t21 -13q12 -31 29.5 -39t35 -7t34 6.5t29.5 3.5t21.5 -17.5t8.5 -54.5q-39 -33 -85 -45q-45 -12 -97 -13h-18q-43 0 -87 4q-53 5 -105 5q10 29 -5 41t-31 28q14 0 39.5 12.5t45 31t25.5 40t-20 39.5q-31 -4 -47.5 7.5t-25.5 30t-14 40t-12.5 37.5 t-21.5 21.5t-41 -9.5q-27 -6 -64.5 -38.5t-60.5 -72.5q-20 -35 -20 -69q1 -5 1 -10q4 -39 56 -60q12 -27 -3.5 -46t-42 -31.5t-56.5 -16.5q-12 -2 -20 -2q-14 0 -22 4l-305 23q88 18 145.5 72.5t104.5 125t92 146.5t107 137q-16 104 -87 188t-163 150q-25 -9 -45 -9 q-13 0 -23 4q-26 9 -47.5 25.5t-44 33t-55.5 16.5z" />
<glyph unicode="y" horiz-adv-x="1253" d="M30 -265q-1 9 -1 19q0 28 10 58l102 125q9 1 17 1q44 0 67 -20q27 -22 38 -56t13.5 -72t13.5 -62.5t36 -29.5q4 -1 8 -1q26 0 76 27l-54 71q68 18 90 61q20 42 20 92q0 53 -12 114q-12 55 -12 102q-51 100 -85.5 192.5t-72.5 177t-89.5 160.5t-137.5 142q0 39 20.5 56 t48.5 27.5t57.5 20.5t47.5 37q53 -14 105.5 -17.5t98.5 -11.5t85 -27.5t66 -64.5q45 59 113.5 88t147.5 35q26 2 53 2q52 0 106 -8q79 -12 147 -33q0 -25 14.5 -50.5t24.5 -49.5q7 -17 7 -32q0 -8 -2 -16q-5 -22 -44 -42q-31 18 -57 18q-13 0 -26 -6q-36 -14 -64.5 -46 t-53 -70t-51.5 -56q-53 -121 -98 -240t-91 -238.5t-97.5 -239.5t-114.5 -239q-68 -80 -165 -93q-19 -2 -37 -2l-157 44q-25 12 -49 35t-40.5 52.5t-21.5 65.5zM442 729q0 -53 4.5 -110.5t32.5 -98.5q20 -6 41 -23.5t42.5 -31.5t43.5 -17q4 -1 7 -1q19 0 40 18q6 47 30 106.5 t31 114.5q2 12 2 24q0 40 -20 72q-24 42 -110 54q0 -33 -17.5 -55.5t-41 -37t-47 -17.5t-38.5 3z" />
<glyph unicode="z" d="M57 738q-2 20 -2 39q1 30 5 58q6 44 29.5 79.5t76.5 62.5h672q53 0 78.5 -23.5t31.5 -56.5q3 -14 3 -29q0 -20 -5 -40q-8 -36 -20 -60q-74 -80 -154 -158t-155.5 -156.5t-142 -162.5t-114.5 -176q39 -35 81 -47.5t92.5 -15.5t112 -3t140.5 -8l33 74q0 -16 9.5 -29.5 t9.5 -24.5h69q0 25 -2 62t-2 77t5 77.5t18 66.5q41 -33 54 -75q11 -36 11 -76v-12q-2 -46 -13 -95t-17 -96q-104 -8 -221 -20.5t-233 -14.5h-24q-105 -1 -203 15q-110 18 -202 71l141 197l-16 18q66 45 135.5 103.5t130.5 127t107.5 143.5t66.5 154q-47 0 -91 3.5t-89 3.5 t-92 -4.5t-101 -18.5q-18 -35 -33.5 -74t-37 -64.5t-53.5 -31.5q-5 -1 -9 -1q-30 0 -76 30q0 59 -4 111z" />
<glyph unicode="&#xa0;" />
<glyph unicode="&#xa2;" horiz-adv-x="956" d="M64.5 670.5q-5.5 70.5 21.5 144.5t100 154q35 66 90.5 104.5t117 64t123 48t109.5 57.5t73.5 90.5t17.5 147.5q39 4 56.5 -3.5t21.5 -22.5t1 -36.5t-5.5 -44t3.5 -45.5t29 -41q-49 -57 -47 -109.5t25.5 -100.5t57.5 -94t48.5 -92t-5 -92t-97.5 -95q-20 6 -36.5 21 t-34 33.5t-34 37t-36.5 32.5q4 -45 -11.5 -97t-37 -105.5t-41 -104.5t-22.5 -95t16.5 -78t76.5 -52q31 0 57.5 19.5t50 46t44 51t40 35t37 -2t35.5 -59.5q-18 -84 -61 -126t-97.5 -62.5t-111.5 -31.5t-104.5 -32.5t-76 -63.5t-24.5 -126q-27 -14 -37 -43t-22.5 -56.5 t-34 -47t-68.5 -13.5q41 86 43 166t-19.5 154.5t-58 145.5t-73.5 140.5t-65.5 139t-34 140zM250 618q6 -40 24.5 -73t43 -58.5t47.5 -46.5q27 33 34 74l14 82t21.5 79t54.5 64l-40 54q-6 14 0 19t16 8t21.5 8.5t15.5 19.5q0 12 5 30.5t5 35t-8 28.5t-35 12q-53 8 -81 -1 t-41 -29.5t-17 -49t-9.5 -59.5t-18.5 -59.5t-44 -50.5q-14 -47 -8 -87z" />
<glyph unicode="&#xa3;" horiz-adv-x="1183" d="M-1 268q-1 49 15.5 92t48 78t76.5 56q33 -14 63.5 -6t57.5 16t50.5 6t41.5 -35q41 27 44 68t-7 87t-21.5 93t1.5 86q-23 31 -46.5 39t-50 5t-54.5 -11t-55.5 -9.5t-55 12t-54.5 54.5v55q33 6 81 0t91 -5t71 19.5t21 71.5q-20 47 -7.5 95.5t35 94.5t48 88t31.5 75 q66 53 156 70.5t181 2t171 -60.5t125 -117q-39 -39 -40 -84t0 -88t-10.5 -82t-70.5 -65q-53 29 -93 17.5t-69 -52.5q14 12 11 31.5t-11 43t-14 49t0 52.5q12 27 37.5 41t49 27.5t37 32t1.5 57.5q-35 -31 -71 -23t-74 33t-77.5 54.5t-78.5 41.5q12 -39 4 -61.5t-27.5 -36.5 t-46.5 -23.5t-51.5 -24t-40.5 -37t-16 -61.5q27 -8 36 -28.5t6.5 -46t-10.5 -49t-14 -37.5l297 -35q-6 -59 -35 -75.5t-66.5 -14.5t-76.5 9t-66 -5q12 -41 10 -83t-4 -85t6.5 -86t40.5 -82l-53 -37q68 -66 130.5 -126t113.5 -85q29 -29 66.5 -47t76.5 -6l37 106 q27 -27 42 -29.5t26.5 7.5t18.5 27.5t18.5 32t27 20.5t41.5 -6q-6 -39 -17 -81t-30.5 -77t-50.5 -60.5t-76 -31.5q-47 20 -97 28.5t-99.5 19.5t-98.5 35.5t-94 78.5l-211 -177q-41 6 -72.5 14.5t-63.5 18.5t-65.5 20.5t-79.5 16.5q-20 45 -21 94zM211 369l53 -72l-16 72h-37 z" />
<glyph unicode="&#xad;" horiz-adv-x="1189" d="M57 611.5q2 31.5 27 66.5q45 12 100.5 31.5t113.5 30t117.5 3t114.5 -46.5q33 33 63 40t60.5 7t64.5 2.5t75 22.5q59 -6 104 -25.5t85 -44t79 -54.5t84 -56q-43 -84 -112.5 -123t-152.5 -49t-176.5 -1t-185.5 23.5t-176 24.5t-152 2q-41 14 -71.5 36.5t-47 50.5 t-14.5 59.5z" />
<glyph unicode="&#xb7;" horiz-adv-x="579" d="M37 201.5q4 29.5 14 52t21.5 45t17.5 55.5q33 68 94.5 81.5t128 -8t127 -70t95.5 -107.5q20 -53 4.5 -96t-47 -78t-70.5 -61.5t-66 -45.5q-53 -41 -102 -35.5t-90 34t-74 72.5t-51 85q-6 47 -2 76.5z" />
<glyph unicode="&#xbc;" horiz-adv-x="1161" d="M0 -2q20 86 71.5 149.5t113 121t123 113.5t102.5 130q25 -20 45 -9t36.5 33.5t31 48t26.5 33.5q53 -27 63.5 -48t7 -44.5t-5.5 -53.5t25 -71q-31 -16 -36 -36.5t3 -41t24.5 -43t27 -44t9.5 -42t-28 -38.5q27 -43 59.5 -57.5t67.5 -14.5t65.5 5t53 1t33 -27.5t2.5 -80.5 q-39 18 -81 22t-80 -8t-70 -39t-50 -66l70 -55q23 37 39 45t31.5 0t30.5 -25.5t32.5 -34t40 -23.5t53.5 5q-80 -59 -162 -72.5t-165 -6t-165 20.5t-159 7v105q6 -39 27.5 -44.5t48 5t54 25t46.5 14.5q41 14 51 55t-18 70q-78 12 -140.5 14t-119 1t-111.5 -3t-123 4zM109 969 q0 41 19 52t47 13t58.5 3t51.5 22q20 -27 42.5 -30t46 3t46 16.5t41.5 10.5q-12 43 -8 107.5t11 134t6 136t-23.5 117t-77 76t-154.5 10.5q-14 41 6.5 53.5t54 16.5t67.5 12t48 41q74 33 105.5 13.5t43 -62.5t13.5 -95t14 -85q0 -39 -6 -111.5t-3 -148.5t23.5 -141.5 t73.5 -92.5q39 33 66 30t50.5 -20.5t49 -34t64.5 -9.5q-27 -53 -54.5 -76t-57.5 -27t-60.5 3t-63.5 12.5t-66.5 4.5t-68.5 -24q-35 31 -70.5 37t-70.5 0t-70 -16.5t-67.5 -12.5t-64.5 9.5t-62 52.5zM127 848q113 -6 233.5 -10t243.5 -8.5t244 -8.5t233 -12q12 -47 -4 -66.5 t-44.5 -27.5t-60.5 -11.5t-52 -17.5q-86 0 -183.5 3t-198 6t-201.5 6.5t-194 3.5zM229 104q20 -33 47 -37t54.5 4.5t57.5 20.5t56 12q39 33 62.5 53.5t32 41t2.5 46t-27 72.5h18l-71 70z" />
<glyph unicode="&#xbd;" horiz-adv-x="1333" d="M66 653q14 31 32.5 42.5t40 11.5t46 -4.5t47 -5.5t44 7.5t39.5 34.5l-71 70q14 41 44.5 62.5t68.5 27.5t79 1t74 -19l16 -19q33 61 50.5 136t22.5 153t-1 154.5t-18 142.5q-23 27 -51.5 30t-60.5 -3.5t-60.5 -14.5t-51 -5t-34 23.5t-7.5 73.5q39 14 85 36t95.5 43.5 t103 39t106.5 23.5q-14 -86 6 -171t38.5 -164t16.5 -150.5t-61 -131.5q4 -72 35.5 -103.5t77.5 -46t98.5 -18.5t98.5 -17t77.5 -47t35.5 -106l140 -51q14 -57 -2.5 -85t-50 -37t-81 -6t-94.5 8t-89 7.5t-68 -10.5q-106 0 -195.5 12.5t-175.5 20.5t-176 4t-195 -37zM262 -296 q-6 -38 53 -79q39 45 75 58.5t71 8.5t70.5 -22.5t73.5 -36t80 -32t91 -7.5q51 -8 95 6.5t79 46t61.5 77t47.5 100.5q-20 -8 -29.5 8t-17.5 32.5t-21.5 20.5t-40.5 -28q27 0 31 -18.5t4 -35.5q0 -53 -25.5 -81.5t-63.5 -40t-81 -10.5t-76 7v19q14 0 2 -10.5t-33.5 -14.5 t-44 2.5t-30.5 40.5q18 49 12 66.5t-23.5 18.5t-41 -4t-41 -2t-23.5 23.5t10 73.5q0 47 28 55.5t63.5 0.5t66.5 -22.5t37 -14.5l-16 14l104 76q31 -41 49.5 -49t29.5 2t19 32.5t20.5 42t30 30t48.5 -4.5q6 39 11 81t5 83t-8 80t-29 72l-86 90q-18 43 -45 55t-59.5 7 t-69.5 -20.5t-75 -25.5t-73.5 -10t-66.5 27q-80 -51 -139.5 -130t-75.5 -190q14 -18 33.5 -44t43 -40t49 -10t52.5 43q0 18 7 40.5t11.5 45t-2 42t-30.5 34.5l67 69q59 18 124 21.5t123 -10t105.5 -43t71.5 -74.5q18 -49 13 -77t-24 -44t-49 -22.5t-61.5 -11.5t-60.5 -13 t-47 -25q-14 -37 -39 -45t-55.5 -3t-65.5 15.5t-67.5 12.5t-61.5 -12.5t-47 -57.5q6 -53 -25.5 -97t-61.5 -84t-36 -78z" />
<glyph unicode="&#xbe;" horiz-adv-x="1290" d="M-3 714.5q-3 20.5 15 65.5q20 -6 61.5 -11t84.5 2t77.5 28.5t40.5 68.5q14 -53 37 -65t51.5 -4t60.5 26.5t64.5 25.5t64.5 -5t58 -66q68 0 142.5 17.5t154.5 27t161 0t161 -62.5q-72 -59 -161 -75.5t-184 -14.5t-188.5 9t-173.5 -5l-67 139q-8 -66 -44 -93.5t-84 -35.5 t-100.5 -6t-91.5 -4q0 12 -14 13t-33.5 -2t-41 -5t-35 5t-16.5 27.5zM102 -12q12 39 45 80t69 74.5t68.5 58t47.5 30.5q27 45 69.5 88t86.5 88.5t84 96.5t59 117q59 -23 84.5 -64t32 -91t-1 -104.5t-13.5 -104.5t-5 -92t22.5 -66.5t73 -29t143.5 22.5q53 -57 53 -104 q-35 -23 -80 -23t-87 -7t-70.5 -33.5t-28.5 -98.5q47 47 76.5 42t56 -29.5t56.5 -52.5t77 -28q-66 -35 -146.5 -42t-164.5 0.5t-168 21.5t-158 20q8 20 30.5 28.5t51.5 10.5t57.5 5t49 13.5t28.5 33t-4 65.5q-18 27 -41 25t-42 -9.5t-34.5 -4.5t-21.5 44q-41 0 -84 -2 t-87 -2t-91.5 4t-92.5 19zM209 1133l67 178q33 -33 68 -61.5t61.5 -59.5t42 -70t9.5 -94l88 107q12 -6 5 -29t-10 -47.5t8 -44t64 -19.5q80 0 137.5 36t110.5 104q4 76 -30.5 106.5t-87 39.5t-108.5 9t-95 12.5t-48.5 49t33.5 120.5q8 -47 38 -57t68 -2t76.5 27.5t67.5 31.5 l70 86q-68 94 -158 117t-197 8q-27 -23 -35 -49t-10 -53t-2 -51.5t-8 -43t-31.5 -26.5t-70.5 -4q-41 -23 -55.5 -10.5t-19.5 37t-9 53.5t-23 43q12 45 46 84t75 68.5t84 49t76 27.5q68 6 120 0t98 -23.5t91 -43t98 -58.5q12 -41 8.5 -81.5t-14 -82.5t-19.5 -85t-8 -86 t19.5 -87.5t67.5 -87.5q12 -86 -30 -134t-109.5 -74.5t-146.5 -41t-136 -32.5q-53 6 -118 14t-118 33t-83.5 71t-16.5 126zM332 109h264q-12 33 -8 48t15 21t24.5 9t19.5 12l-102 139q-47 -12 -68.5 -55t-38 -86t-38 -72t-68.5 -16z" />
<glyph unicode="&#x2000;" horiz-adv-x="965" />
<glyph unicode="&#x2001;" horiz-adv-x="1930" />
<glyph unicode="&#x2002;" horiz-adv-x="965" />
<glyph unicode="&#x2003;" horiz-adv-x="1930" />
<glyph unicode="&#x2004;" horiz-adv-x="643" />
<glyph unicode="&#x2005;" horiz-adv-x="482" />
<glyph unicode="&#x2006;" horiz-adv-x="321" />
<glyph unicode="&#x2007;" horiz-adv-x="321" />
<glyph unicode="&#x2008;" horiz-adv-x="241" />
<glyph unicode="&#x2009;" horiz-adv-x="386" />
<glyph unicode="&#x200a;" horiz-adv-x="107" />
<glyph unicode="&#x2010;" horiz-adv-x="1189" d="M57 611.5q2 31.5 27 66.5q45 12 100.5 31.5t113.5 30t117.5 3t114.5 -46.5q33 33 63 40t60.5 7t64.5 2.5t75 22.5q59 -6 104 -25.5t85 -44t79 -54.5t84 -56q-43 -84 -112.5 -123t-152.5 -49t-176.5 -1t-185.5 23.5t-176 24.5t-152 2q-41 14 -71.5 36.5t-47 50.5 t-14.5 59.5z" />
<glyph unicode="&#x2011;" horiz-adv-x="1189" d="M57 611.5q2 31.5 27 66.5q45 12 100.5 31.5t113.5 30t117.5 3t114.5 -46.5q33 33 63 40t60.5 7t64.5 2.5t75 22.5q59 -6 104 -25.5t85 -44t79 -54.5t84 -56q-43 -84 -112.5 -123t-152.5 -49t-176.5 -1t-185.5 23.5t-176 24.5t-152 2q-41 14 -71.5 36.5t-47 50.5 t-14.5 59.5z" />
<glyph unicode="&#x2012;" horiz-adv-x="1189" d="M57 611.5q2 31.5 27 66.5q45 12 100.5 31.5t113.5 30t117.5 3t114.5 -46.5q33 33 63 40t60.5 7t64.5 2.5t75 22.5q59 -6 104 -25.5t85 -44t79 -54.5t84 -56q-43 -84 -112.5 -123t-152.5 -49t-176.5 -1t-185.5 23.5t-176 24.5t-152 2q-41 14 -71.5 36.5t-47 50.5 t-14.5 59.5z" />
<glyph unicode="&#x2013;" horiz-adv-x="1124" d="M56 611.5q2 31.5 26 66.5q42 12 94 31.5t107 30t111 3t107 -46.5q31 33 59.5 40t57 7t60.5 2.5t71 22.5q55 -6 97.5 -25.5t80 -44t74.5 -54.5t79 -56q-40 -84 -105.5 -123t-143.5 -49t-166 -1t-175 23.5t-166 24.5t-143 2q-38 14 -67 36.5t-44.5 50.5t-13.5 59.5z" />
<glyph unicode="&#x2014;" horiz-adv-x="2148" d="M56.5 611.5q3.5 31.5 50.5 66.5q85 12 189.5 31.5t213.5 30t221 3t216 -46.5q62 33 118.5 40t113.5 7t121 2.5t142 22.5q111 -6 195.5 -25.5t160 -44t148.5 -54.5t158 -56q-81 -84 -212 -123t-287 -49t-332 -1t-349 23.5t-331 24.5t-286 2q-77 14 -134.5 36.5t-88.5 50.5 t-27.5 59.5z" />
<glyph unicode="&#x2018;" horiz-adv-x="559" d="M63 1391q35 80 100.5 102.5t133.5 6t123 -66t67 -114.5q-41 -31 -59 -87t-29.5 -120.5t-19.5 -128t-26.5 -111t-52.5 -69t-95 1.5q-37 82 -61.5 171t-24.5 185q-41 37 -55.5 100.5t-0.5 129.5z" />
<glyph unicode="&#x2019;" horiz-adv-x="532" d="M63 1391q35 80 100.5 102.5t133.5 6t123 -66t67 -114.5q-41 -31 -59 -87t-29.5 -120.5t-19.5 -128t-26.5 -111t-52.5 -69t-95 1.5q-37 82 -61.5 171t-24.5 185q-41 37 -55.5 100.5t-0.5 129.5z" />
<glyph unicode="&#x201c;" horiz-adv-x="997" d="M35 1020q0 53 35 112.5t129 127.5q47 -27 82.5 -49.5t62.5 -49t43 -62.5t25 -89l-88 -33l53 -123q-53 0 -78 -31.5t-34 -74.5t-9 -86.5t-6 -67t-24.5 -17t-61.5 63.5q12 45 -6.5 90t-46 91t-52 95.5t-24.5 102.5zM529.5 1109q-5.5 58 29.5 106t137 79q39 -47 84 -77.5 t81 -64.5t55.5 -78t7.5 -116q-27 -35 -40.5 -82t-23.5 -95t-20.5 -93t-28.5 -79t-50 -50t-85 -8q23 72 4.5 145.5t-50.5 146t-63.5 140.5t-37 126z" />
<glyph unicode="&#x201d;" horiz-adv-x="954" d="M43 942q29 29 36 81t21.5 99t51 74.5t122.5 7.5q45 -8 60.5 -32.5t18.5 -56.5t5 -64.5t21 -57.5q-37 -53 -51.5 -106t-19.5 -105.5t-10 -105.5t-24 -107q-47 33 -69.5 82t-41 101.5t-44 102.5t-76.5 87zM564 1058q-5 52 10.5 102.5t68.5 99.5q41 -14 75 -17.5t62.5 -10.5 t55 -23.5t53.5 -57.5l-137 -582q-20 -14 -29.5 -4t-19 28.5t-21.5 38t-39 25.5q18 45 10 93.5t-25.5 99.5t-38 103.5t-25.5 104.5z" />
<glyph unicode="&#x202f;" horiz-adv-x="386" />
<glyph unicode="&#x205f;" horiz-adv-x="482" />
<glyph unicode="&#xe000;" horiz-adv-x="1034" d="M0 0v1034h1034v-1034h-1034z" />
</font>
</defs>
</svg>
